<?xml version="1.0" encoding="utf-8" standalone="yes"?>
<!DOCTYPE svg PUBLIC "-//W3C//DTD SVG 1.1//EN" "http://www.w3.org/Graphics/SVG/1.1/DTD/svg11.dtd">
<svg width="555" height="674" viewBox="0 0 555 674" style="fill:none;stroke:none;fill-rule:evenodd;clip-rule:evenodd;stroke-linecap:round;stroke-linejoin:round;stroke-miterlimit:1.5;" version="1.1" xmlns="http://www.w3.org/2000/svg" xmlns:xlink="http://www.w3.org/1999/xlink"><style class="text-font-style fontImports" data-font-family="Roboto">@import url('https://fonts.googleapis.com/css2?family=Roboto:wght@400;700&amp;display=block');</style><g id="items" style="isolation: isolate"><g id="blend" style="mix-blend-mode: normal"><g id="g-root-0.cu_sy_zlbr3rct4cng-fill" data-item-order="-272154" transform="translate(237.00048828125, 99)"></g><g id="g-root-0.cu_1_sy_zlbr3rct4cnh-fill" data-item-order="-272151" transform="translate(15, 182.9990234375)"></g><g id="g-root-0.cu_2_sy_v5i8zbct4dfq-fill" data-item-order="-272149" transform="translate(267.00048828125, 75)"></g><g id="g-root-tx_pros_me7c3bd384qo-fill" data-item-order="0" transform="translate(75.00048828125, 105)"><g id="tx_pros_me7c3bd384qo-fill" stroke="none" fill="#f4f4f4"><g><text style="font: bold 30px Roboto, sans-serif; white-space: pre;" font-weight="bold" font-size="30px" font-family="Roboto, sans-serif"><tspan x="12" y="45.5" dominant-baseline="ideographic">Pros</tspan></text></g></g></g><g id="g-root-tx_cons_qted4nd38747-fill" data-item-order="0" transform="translate(375.00048828125, 105)"><g id="tx_cons_qted4nd38747-fill" stroke="none" fill="#f4f4f4"><g><text style="font: bold 30px Roboto, sans-serif; white-space: pre;" font-weight="bold" font-size="30px" font-family="Roboto, sans-serif"><tspan x="12" y="45.5" dominant-baseline="ideographic">Cons</tspan></text></g></g></g><g id="g-root-4_1hjp3d33y84-fill" data-item-order="0" transform="translate(15.00048828125, 219)"></g><g id="g-root-tx_enhanced_v97v93d386by-fill" data-item-order="0" transform="translate(75.00048828125, 219)"><g id="tx_enhanced_v97v93d386by-fill" stroke="none" fill="#f4f4f4"><g><text style="font: 20px Roboto, sans-serif; white-space: pre;" font-size="20px" font-family="Roboto, sans-serif"><tspan x="12" y="33.5" dominant-baseline="ideographic">Enhanced </tspan><tspan x="12" y="57.5" dominant-baseline="ideographic">security</tspan></text></g></g></g><g id="g-root-outl_23xmfd2sphk-fill" data-item-order="0" transform="translate(315.00048828125, 219)"></g><g id="g-root-tx_maintena_1qbbx13d385jh-fill" data-item-order="0" transform="translate(375.00048828125, 555)"><g id="tx_maintena_1qbbx13d385jh-fill" stroke="none" fill="#f4f4f4"><g><text style="font: 20px Roboto, sans-serif; white-space: pre;" font-size="20px" font-family="Roboto, sans-serif"><tspan x="12" y="33.5" dominant-baseline="ideographic">Maintenance </tspan><tspan x="12" y="57.5" dominant-baseline="ideographic">requirements</tspan></text></g></g></g><g id="g-root-1_1uu9pfbd32io2-fill" data-item-order="0" transform="translate(15.00048828125, 303)"></g><g id="g-root-tx_userconv_v97v93d386bx-fill" data-item-order="0" transform="translate(75.00048828125, 303)"><g id="tx_userconv_v97v93d386bx-fill" stroke="none" fill="#f4f4f4"><g><text style="font: 20px Roboto, sans-serif; white-space: pre;" font-size="20px" font-family="Roboto, sans-serif"><tspan x="12" y="33.5" dominant-baseline="ideographic">User </tspan><tspan x="12" y="57.5" dominant-baseline="ideographic">convenience</tspan></text></g></g></g><g id="g-root-doll_142zd2vd2pxjj-fill" data-item-order="0" transform="translate(315.00048828125, 303)"></g><g id="g-root-tx_higherco_1hfows7d38740-fill" data-item-order="0" transform="translate(375.00048828125, 315)"><g id="tx_higherco_1hfows7d38740-fill" stroke="none" fill="#f4f4f4"><g><text style="font: 20px Roboto, sans-serif; white-space: pre;" font-size="20px" font-family="Roboto, sans-serif"><tspan x="12" y="33.5" dominant-baseline="ideographic">Higher cost</tspan></text></g></g></g><g id="g-root-1_1qeg7avd2zrwj-fill" data-item-order="0" transform="translate(15.00048828125, 387)"></g><g id="g-root-tx_modernau_144uvhzd385j8-fill" data-item-order="0" transform="translate(75.00048828125, 387)"><g id="tx_modernau_144uvhzd385j8-fill" stroke="none" fill="#f4f4f4"><g><text style="font: 20px Roboto, sans-serif; white-space: pre;" font-size="20px" font-family="Roboto, sans-serif"><tspan x="12" y="33.5" dominant-baseline="ideographic">Modern </tspan><tspan x="12" y="57.5" dominant-baseline="ideographic">authentication</tspan></text></g></g></g><g id="g-root-incr_1hbctfbctbdvq-fill" data-item-order="0" transform="translate(315.00048828125, 387)"></g><g id="g-root-tx_userlear_1czvenrd3874f-fill" data-item-order="0" transform="translate(375.00048828125, 387)"><g id="tx_userlear_1czvenrd3874f-fill" stroke="none" fill="#f4f4f4"><g><text style="font: 20px Roboto, sans-serif; white-space: pre;" font-size="20px" font-family="Roboto, sans-serif"><tspan x="12" y="33.5" dominant-baseline="ideographic">User learning </tspan><tspan x="12" y="57.5" dominant-baseline="ideographic">curve</tspan></text></g></g></g><g id="g-root-smil_1cxzw8nd2u422-fill" data-item-order="0" transform="translate(15.00048828125, 471)"></g><g id="g-root-tx_userfrie_144uvhzd385j7-fill" data-item-order="0" transform="translate(75.00048828125, 471)"><g id="tx_userfrie_144uvhzd385j7-fill" stroke="none" fill="#f4f4f4"><g><text style="font: 20px Roboto, sans-serif; white-space: pre;" font-size="20px" font-family="Roboto, sans-serif"><tspan x="12" y="33.5" dominant-baseline="ideographic">User-friendly </tspan><tspan x="12" y="57.5" dominant-baseline="ideographic">interface</tspan></text></g></g></g><g id="g-root-1_zkpa0nct77d6-fill" data-item-order="0" transform="translate(315.00048828125, 471)"></g><g id="g-root-tx_integrat_1lviewnd386bq-fill" data-item-order="0" transform="translate(375.00048828125, 471)"><g id="tx_integrat_1lviewnd386bq-fill" stroke="none" fill="#f4f4f4"><g><text style="font: 20px Roboto, sans-serif; white-space: pre;" font-size="20px" font-family="Roboto, sans-serif"><tspan x="12" y="33.5" dominant-baseline="ideographic">Integration </tspan><tspan x="12" y="57.5" dominant-baseline="ideographic">challenges</tspan></text></g></g></g><g id="g-root-1_3cvsnd2u51d-fill" data-item-order="0" transform="translate(15.00048828125, 555)"></g><g id="g-root-tx_coldstor_18kodmfd384qy-fill" data-item-order="0" transform="translate(75.00048828125, 555)"><g id="tx_coldstor_18kodmfd384qy-fill" stroke="none" fill="#f4f4f4"><g><text style="font: 20px Roboto, sans-serif; white-space: pre;" font-size="20px" font-family="Roboto, sans-serif"><tspan x="12" y="33.5" dominant-baseline="ideographic">Cold storage </tspan><tspan x="12" y="57.5" dominant-baseline="ideographic">benefits</tspan></text></g></g></g><g id="g-root-wren_qpoquvct4e80-fill" data-item-order="0" transform="translate(315.00048828125, 555)"></g><g id="g-root-tx_hybridwa_v5i8zbct4dfr-fill" data-item-order="0" transform="translate(165.00048828125, 39)"><g id="tx_hybridwa_v5i8zbct4dfr-fill" stroke="none" fill="#f4f4f4"><g><text style="font: 20px Roboto, sans-serif; white-space: pre;" font-size="20px" font-family="Roboto, sans-serif"><tspan x="14.7" y="33.5" dominant-baseline="ideographic">Hybrid Wallet Security</tspan></text></g></g></g><g id="g-root-tx_potentia_18kodmfd384qx-fill" data-item-order="0" transform="translate(375.00048828125, 219)"><g id="tx_potentia_18kodmfd384qx-fill" stroke="none" fill="#f4f4f4"><g><text style="font: 20px Roboto, sans-serif; white-space: pre;" font-size="20px" font-family="Roboto, sans-serif"><tspan x="12" y="33.5" dominant-baseline="ideographic">Potential </tspan><tspan x="12" y="57.5" dominant-baseline="ideographic">complexity</tspan></text></g></g></g><g id="g-root-0.cu_sy_zlbr3rct4cng-stroke" data-item-order="-272154" transform="translate(237.00048828125, 99)"><g id="0.cu_sy_zlbr3rct4cng-stroke" fill="none" stroke-linecap="round" stroke-linejoin="round" stroke-miterlimit="4" stroke="#d3d3d3" stroke-width="2"><g><path d="M 10 34L 28 10L 28 18.0001L 52 18.0001L 52 10.0002L 70 34.0002L 52 58.0002L 52 50.0001L 28 50.0001L 28 58L 10 34ZM 30.598633 28.373184L 34.998633 39.480384M 35.198633 39.097384L 39.598633 28.660484M 49.398633 30.192484C 49.065333 29.937084 48.731933 29.681784 48.398633 29.426484C 47.798633 28.851984 46.831933 28.628484 45.498633 28.756184C 44.165333 28.883884 43.465333 29.522184 43.398633 30.671184C 43.265333 31.820284 44.231933 32.905384 46.298633 33.926784C 48.431933 34.884284 49.465333 36.001384 49.398633 37.278084C 49.398633 38.554784 48.631933 39.320784 47.098633 39.576084C 45.498633 39.767584 44.431933 39.416584 43.898633 38.522884C 43.565333 38.075984 43.265333 37.629184 42.998633 37.182384"></path></g></g></g><g id="g-root-0.cu_1_sy_zlbr3rct4cnh-stroke" data-item-order="-272151" transform="translate(15, 182.9990234375)"><g id="0.cu_1_sy_zlbr3rct4cnh-stroke" fill="none" stroke-linecap="round" stroke-linejoin="round" stroke-miterlimit="4" stroke="#d3d3d3" stroke-width="2"><g><path d="M 514.0005 10L 10 10.0008"></path></g></g></g><g id="g-root-0.cu_2_sy_v5i8zbct4dfq-stroke" data-item-order="-272149" transform="translate(267.00048828125, 75)"><g id="0.cu_2_sy_v5i8zbct4dfq-stroke" fill="none" stroke-linecap="round" stroke-linejoin="round" stroke-miterlimit="4" stroke="#d3d3d3" stroke-width="2"><g><path d="M 10.0001 298L 10 214M 10.0001 382L 10 298M 10.0001 466L 10 382M 10.0001 550L 10 466M 10.0001 214L 10 118M 10 118L 10 80M 10 36L 10 10"></path></g></g></g><g id="g-root-tx_pros_me7c3bd384qo-stroke" data-item-order="0" transform="translate(75.00048828125, 105)"></g><g id="g-root-tx_cons_qted4nd38747-stroke" data-item-order="0" transform="translate(375.00048828125, 105)"></g><g id="g-root-4_1hjp3d33y84-stroke" data-item-order="0" transform="translate(15.00048828125, 219)"><g id="4_1hjp3d33y84-stroke" fill="none" stroke-linecap="round" stroke-linejoin="round" stroke-miterlimit="4" stroke="#43dd93" stroke-width="2"><g><path d="M 35.234287 56.045715L 35.234287 56.045715C 34.439972 56.352219 33.560028 56.352219 32.765713 56.045715L 32.765713 56.045715C 20.077654 51.174545 11.706056 38.985279 11.714286 25.394285L 11.714286 16.445715C 11.710423 15.674867 12.211807 14.992427 12.948571 14.765715C 26.686428 10.68641 41.313572 10.68641 55.05143 14.765715C 55.788193 14.992427 56.289577 15.674867 56.285713 16.445715L 56.285713 25.394285C 56.293945 38.985279 47.922348 51.174545 35.234283 56.045712Z"></path></g></g></g><g id="g-root-tx_enhanced_v97v93d386by-stroke" data-item-order="0" transform="translate(75.00048828125, 219)"></g><g id="g-root-outl_23xmfd2sphk-stroke" data-item-order="0" transform="translate(315.00048828125, 219)"><g id="outl_23xmfd2sphk-stroke" fill="none" stroke-linecap="round" stroke-linejoin="round" stroke-miterlimit="4" stroke="#fb6762" stroke-width="2"><g><path d="M 48 50C 49.104568 50 50 49.104568 50 48L 50 32C 50 30.89543 50.895432 30 52 30L 54 30C 55.104568 30 56 30.89543 56 32L 56 54C 56 55.104568 55.104568 56 54 56L 30 56C 28.89543 56 28 55.104568 28 54L 28 52C 28 50.895432 28.89543 50 30 50ZM 26 24L 42 24C 42 24 44 24 44 26L 44 42C 44 42 44 44 42 44L 26 44C 26 44 24 44 24 42L 24 26C 24 26 24 24 26 24M 20 18C 18.895432 18 18 18.895432 18 20L 18 36C 18 37.104568 17.104568 38 16 38L 14 38C 12.895431 38 12 37.104568 12 36L 12 14C 12 12.895431 12.895431 12 14 12L 38 12C 39.104568 12 40 12.895431 40 14L 40 16C 40 17.104568 39.104568 18 38 18Z"></path></g></g></g><g id="g-root-tx_maintena_1qbbx13d385jh-stroke" data-item-order="0" transform="translate(375.00048828125, 555)"></g><g id="g-root-1_1uu9pfbd32io2-stroke" data-item-order="0" transform="translate(15.00048828125, 303)"><g id="1_1uu9pfbd32io2-stroke" fill="none" stroke-linecap="round" stroke-linejoin="round" stroke-miterlimit="4" stroke="#4f91fc" stroke-width="2"><g><path d="M 33.234001 53L 29.233999 53C 25.920292 53 23.234001 50.313709 23.234001 47L 23.234001 42M 19.234001 45L 23.234001 41L 27.233999 45M 13 11L 23 11C 23 11 25 11 25 13L 25 33C 25 33 25 35 23 35L 13 35C 13 35 11 35 11 33L 11 13C 11 13 11 11 13 11M 25 29L 11 29M 49 33L 55 33C 56.104568 33 57 33.895432 57 35L 57 55C 57 56.104568 56.104568 57 55 57L 45 57C 43.895432 57 43 56.104568 43 55L 43 39M 57 51L 43 51M 36.912003 32.139999C 37.79039 33.29538 39.177818 33.948776 40.627998 33.889999C 42.905998 33.889999 44.754002 32.503998 44.754002 30.796C 44.754002 29.087999 42.905998 27.702 40.627998 27.702C 38.349998 27.702 36.503998 26.316 36.503998 24.6C 36.503998 22.883999 38.349998 21.506001 40.627998 21.506001C 42.078178 21.447224 43.465611 22.100616 44.344002 23.256001M 40.627998 33.889999L 40.627998 35.952M 40.627998 19.452L 40.627998 21.512001"></path></g></g></g><g id="g-root-tx_userconv_v97v93d386bx-stroke" data-item-order="0" transform="translate(75.00048828125, 303)"></g><g id="g-root-doll_142zd2vd2pxjj-stroke" data-item-order="0" transform="translate(315.00048828125, 303)"><g id="doll_142zd2vd2pxjj-stroke" fill="none" stroke-linecap="round" stroke-linejoin="round" stroke-miterlimit="4" stroke="#f79438" stroke-width="2"><g><path d="M 25.428572 46L 38.628574 46C 41.548523 46.01215 43.997971 43.799973 44.282356 40.893879C 44.566746 37.987785 42.592628 35.34272 39.725716 34.78857L 28.274286 33.21143C 25.407375 32.65728 23.433254 30.012215 23.717644 27.106121C 24.002031 24.200029 26.451479 21.987852 29.371429 22L 42.57143 22M 34 56.285713L 34 11.714286"></path></g></g></g><g id="g-root-tx_higherco_1hfows7d38740-stroke" data-item-order="0" transform="translate(375.00048828125, 315)"></g><g id="g-root-1_1qeg7avd2zrwj-stroke" data-item-order="0" transform="translate(15.00048828125, 387)"><g id="1_1qeg7avd2zrwj-stroke" fill="none" stroke-linecap="round" stroke-linejoin="round" stroke-miterlimit="4" stroke="#a6da37" stroke-width="2"><g><path d="M 34 57C 43.941124 57 52 48.941124 52 39L 52 29C 52.005566 24.570942 50.372009 20.296478 47.413998 17M 16 33L 16 39C 15.998039 46.238045 20.331699 52.773205 27 55.588001M 43 13.412C 37.585358 10.285933 30.936401 10.193536 25.436985 13.167935C 19.937567 16.142334 16.37554 21.757416 16.028 28M 29 18.088001C 32.715576 16.38497 37.042473 16.690245 40.482124 18.898094C 43.921776 21.105946 46.001122 24.912727 46 29L 46 39C 46.000443 40.011902 45.873444 41.019833 45.621998 42M 42.944 47C 39.627033 50.708229 34.365829 51.98505 29.718086 50.209747C 25.070341 48.434444 22.000126 43.975266 22 39L 22 29C 21.996113 26.047504 23.084642 23.197952 25.056 21M 28 39C 28 42.313709 30.686293 45 34 45C 37.313709 45 40 42.313709 40 39L 40 29C 40 25.686291 37.313709 23 34 23C 30.686293 23 28 25.686291 28 29L 28 35M 34 29L 34 35M 34 39L 34 41"></path></g></g></g><g id="g-root-tx_modernau_144uvhzd385j8-stroke" data-item-order="0" transform="translate(75.00048828125, 387)"></g><g id="g-root-incr_1hbctfbctbdvq-stroke" data-item-order="0" transform="translate(315.00048828125, 387)"><g id="incr_1hbctfbctbdvq-stroke" fill="none" stroke-linecap="round" stroke-linejoin="round" stroke-miterlimit="4" stroke="#ffe711" stroke-width="2"><g><path d="M 10 10M 52.542 17.5L 47.104 38.510002C 45.276348 45.56963 38.906372 50.500298 31.614 50.5L 11 50.5M 10 10M 45.321999 21.958L 52.542 17.5L 57 24.720001"></path></g></g></g><g id="g-root-tx_userlear_1czvenrd3874f-stroke" data-item-order="0" transform="translate(375.00048828125, 387)"></g><g id="g-root-smil_1cxzw8nd2u422-stroke" data-item-order="0" transform="translate(15.00048828125, 471)"><g id="smil_1cxzw8nd2u422-stroke" fill="none" stroke-linecap="round" stroke-linejoin="round" stroke-miterlimit="4" stroke="#1ac3fb" stroke-width="2"><g><path d="M 28 55C 29.811644 52.712475 30.860811 49.914696 31 47M 40 55C 38.188354 52.712475 37.139191 49.914696 37 47M 24.998001 55L 42.998001 55M 11 41L 57 41M 13 13L 55 13C 55 13 57 13 57 15L 57 45C 57 45 57 47 55 47L 13 47C 13 47 11 47 11 45L 11 15C 11 15 11 13 13 13M 28.997999 23L 28.997999 27M 38.998001 23L 38.998001 27M 42 32C 37.416779 36.000294 30.583225 36.000294 26.000002 32"></path></g></g></g><g id="g-root-tx_userfrie_144uvhzd385j7-stroke" data-item-order="0" transform="translate(75.00048828125, 471)"></g><g id="g-root-1_zkpa0nct77d6-stroke" data-item-order="0" transform="translate(315.00048828125, 471)"><g id="1_zkpa0nct77d6-stroke" fill="none" stroke-linecap="round" stroke-linejoin="round" stroke-miterlimit="4" stroke="#cb68f9" stroke-width="2"><g><path d="M 24.022858 14.08C 25.258335 15.286715 25.992985 16.915182 26.08 18.639999L 32.354286 12.4C 32.790134 11.91136 33.413795 11.631939 34.068573 11.631939C 34.723347 11.631939 35.347008 11.91136 35.782856 12.4L 40.857143 17.68C 40.13644 18.029476 39.476597 18.492525 38.902859 19.05143C 36.366226 21.841013 36.468044 26.131165 39.134155 28.797272C 41.800262 31.463381 46.090416 31.565199 48.879997 29.02857C 49.438904 28.454834 49.901951 27.794989 50.251427 27.074286L 55.600002 32.354286C 56.088642 32.790134 56.368061 33.413795 56.368061 34.068573C 56.368061 34.723347 56.088642 35.347008 55.600002 35.782856L 49.360001 41.920002C 53.124832 42.147659 56.03883 45.306301 55.962902 49.077248C 55.886978 52.84819 52.84819 55.886978 49.077248 55.962902C 45.306301 56.03883 42.147659 53.124832 41.920002 49.360001L 35.645714 55.600002C 35.209866 56.088642 34.586205 56.368061 33.931427 56.368061C 33.276653 56.368061 32.652992 56.088642 32.217144 55.600002L 27.142857 50.32C 27.86356 49.970524 28.523405 49.507477 29.097143 48.948574C 31.852257 46.174526 31.836906 41.692257 29.062859 38.937145C 26.288811 36.182034 21.806541 36.197384 19.05143 38.971432C 18.492525 39.545166 18.029476 40.205009 17.68 40.925716L 12.4 35.645714C 11.91136 35.209866 11.631939 34.586205 11.631939 33.931427C 11.631939 33.276653 11.91136 32.652992 12.4 32.217144L 18.639999 26.08C 16.915182 25.992985 15.286715 25.258335 14.08 24.022858C 11.335168 21.277073 11.335553 16.826168 14.080861 14.080861C 16.826168 11.335553 21.277073 11.335168 24.022856 14.08Z"></path></g></g></g><g id="g-root-tx_integrat_1lviewnd386bq-stroke" data-item-order="0" transform="translate(375.00048828125, 471)"></g><g id="g-root-1_3cvsnd2u51d-stroke" data-item-order="0" transform="translate(15.00048828125, 555)"><g id="1_3cvsnd2u51d-stroke" fill="none" stroke-linecap="round" stroke-linejoin="round" stroke-miterlimit="4" stroke="#f366bb" stroke-width="2"><g><path d="M 47.5 41.499802L 47.5 52.699799M 10 10M 45.5 56.5L 47.5 52.700001L 49.299999 56.5M 10 10M 49.299999 37.700001L 47.5 41.5L 45.5 37.700001M 10 10M 42.5 44.299999L 52.299999 49.900002M 10 10M 54.700001 53.299801L 52.299999 49.900002L 56.5 50.099998M 10 10M 40.299999 40.700001L 42.5 44.299999L 38.5 43.900002M 10 10M 42.5 49.900002L 52.299999 44.299999M 10 10M 56.5 43.900002L 52.299999 44.299999L 54.700001 40.700001M 10 10M 38.5 50.099998L 42.5 49.900002L 40.299999 53.299801M 47.5 30.5L 47.5 21.099979L 11.5 21.099979L 11.5 45.900002C 11.5 46.700001 12.29998 47.5 13.09998 47.5L 31.5 47.5M 11.5 21.1C 11.5 15.7 19.5 11.5 29.5 11.5C 39.5 11.5 47.5 15.7 47.5 21.1M 41.5 34.5L 41.5 29.10006C 41.5 28.70006 41.099998 28.300039 40.700001 28.300039L 18.29998 28.300039C 17.899981 28.300039 17.5 28.70006 17.5 29.10006L 17.5 47.5M 25.5 35.5L 33.5 35.5M 25.5 41.5L 33.5 41.5"></path></g></g></g><g id="g-root-tx_coldstor_18kodmfd384qy-stroke" data-item-order="0" transform="translate(75.00048828125, 555)"></g><g id="g-root-wren_qpoquvct4e80-stroke" data-item-order="0" transform="translate(315.00048828125, 555)"><g id="wren_qpoquvct4e80-stroke" fill="none" stroke-linecap="round" stroke-linejoin="round" stroke-miterlimit="4" stroke="#8769fd" stroke-width="2"><g><path d="M 56.045715 22.308571C 55.91172 21.581938 55.47554 20.946358 54.845715 20.559999L 47.988571 27.417143C 47.342342 28.087606 46.451199 28.466375 45.52 28.466375C 44.588799 28.466375 43.697659 28.087606 43.05143 27.417143L 40.445717 25.085714C 39.138939 23.752537 39.138939 21.618893 40.445717 20.285715L 47.302856 13.428572C 47.000103 12.717376 46.397224 12.177299 45.657143 11.954286C 40.775776 10.980844 35.766331 12.873705 32.748444 16.831947C 29.730558 20.790192 29.231665 26.122034 31.462858 30.571428L 12.742857 49.119999C 12.083157 49.765053 11.711284 50.648769 11.711284 51.57143C 11.711284 52.494087 12.083157 53.377804 12.742857 54.022858L 13.977142 55.257141C 14.622196 55.916847 15.505913 56.288715 16.428572 56.288715C 17.351231 56.288715 18.234947 55.916847 18.879999 55.257141L 37.600002 36.57143C 42.048428 38.690815 47.31094 38.126667 51.209045 35.112518C 55.107147 32.098373 56.977451 27.147182 56.045715 22.308573Z"></path></g></g></g><g id="g-root-tx_hybridwa_v5i8zbct4dfr-stroke" data-item-order="0" transform="translate(165.00048828125, 39)"></g><g id="g-root-tx_potentia_18kodmfd384qx-stroke" data-item-order="0" transform="translate(375.00048828125, 219)"></g></g></g></svg>