<?xml version="1.0" encoding="utf-8" standalone="yes"?>
<!DOCTYPE svg PUBLIC "-//W3C//DTD SVG 1.1//EN" "http://www.w3.org/Graphics/SVG/1.1/DTD/svg11.dtd">
<svg width="1058" height="458" viewBox="0 0 1058 458" style="fill:none;stroke:none;fill-rule:evenodd;clip-rule:evenodd;stroke-linecap:round;stroke-linejoin:round;stroke-miterlimit:1.5;" version="1.1" xmlns="http://www.w3.org/2000/svg" xmlns:xlink="http://www.w3.org/1999/xlink"><style class="text-font-style fontImports" data-font-family="Roboto">@import url('https://fonts.googleapis.com/css2?family=Roboto:wght@400;700&amp;display=block');</style><g id="items" style="isolation: isolate"><g id="blend" style="mix-blend-mode: normal"><g id="g-root-ro_dcxyrsc8tx53-fill" data-item-order="-28800" transform="translate(423, 186)"><g id="ro_dcxyrsc8tx53-fill" stroke="none" fill="#545454"><g><path d="M 34 10L 178 10C 178 10 202 10 202 34L 202 136C 202 136 202 160 178 160L 34 160C 34 160 10 160 10 136L 10 34C 10 34 10 10 34 10"></path></g></g></g><g id="g-root-ro_1q87mmgc956o7-fill" data-item-order="-16848" transform="translate(63, 273)"><g id="ro_1q87mmgc956o7-fill" stroke="none" fill="#4b533a"><g><path d="M 22 10L 310 10C 310 10 322 10 322 22L 322 52C 322 52 322 64 310 64L 22 64C 22 64 10 64 10 52L 10 22C 10 22 10 10 22 10"></path></g></g></g><g id="g-root-ro_zn6154c90zyh-fill" data-item-order="-16200" transform="translate(663, 273)"><g id="ro_zn6154c90zyh-fill" stroke="none" fill="#54502f"><g><path d="M 22 10L 298 10C 298 10 310 10 310 22L 310 52C 310 52 310 64 298 64L 22 64C 22 64 10 64 10 52L 10 22C 10 22 10 10 22 10"></path></g></g></g><g id="g-root-ro_1heg1mwc93sap-fill" data-item-order="-15552" transform="translate(87, 123)"><g id="ro_1heg1mwc93sap-fill" stroke="none" fill="#68403f"><g><path d="M 22 10L 286 10C 286 10 298 10 298 22L 298 52C 298 52 298 64 286 64L 22 64C 22 64 10 64 10 52L 10 22C 10 22 10 10 22 10"></path></g></g></g><g id="g-root-ro_144uyiwc8wq2t-fill" data-item-order="-15552" transform="translate(663, 123)"><g id="ro_144uyiwc8wq2t-fill" stroke="none" fill="#60436d"><g><path d="M 22 10L 286 10C 286 10 298 10 298 22L 298 52C 298 52 298 64 286 64L 22 64C 22 64 10 64 10 52L 10 22C 10 22 10 10 22 10"></path></g></g></g><g id="g-root-cu_1q87mmgc956o8-fill" data-item-order="0" transform="translate(375, 150)"></g><g id="g-root-cu_18hk37sc956o1-fill" data-item-order="0" transform="translate(687, 327)"></g><g id="g-root-cu_1lse4i0c957gj-fill" data-item-order="0" transform="translate(615, 150)"></g><g id="g-root-tx_customiz_1d1qwy0c92ej0-fill" data-item-order="0" transform="translate(711, 225)"><g id="tx_customiz_1d1qwy0c92ej0-fill" stroke="none" fill="#f4f4f4"><g><text style="font: 20px Roboto, sans-serif; white-space: pre;" font-size="20px" font-family="Roboto, sans-serif"><tspan x="15.93" y="33.5" dominant-baseline="ideographic">Customizable Bot Interfaces</tspan></text></g></g></g><g id="g-root-tx_futureen_141ql3cc957gg-fill" data-item-order="0" transform="translate(297, 39)"><g id="tx_futureen_141ql3cc957gg-fill" stroke="none" fill="#f4f4f4"><g><text style="font: 25px Roboto, sans-serif; white-space: pre;" font-size="25px" font-family="Roboto, sans-serif"><tspan x="15.03" y="42.5" dominant-baseline="ideographic">Future Enhancements for Hybrid Wallet</tspan></text></g></g></g><g id="g-root-tx_compatib_1qd7fbcc92cy1-fill" data-item-order="0" transform="translate(15, 189)"><g id="tx_compatib_1qd7fbcc92cy1-fill" stroke="none" fill="#f4f4f4"><g><text style="font: 20px Roboto, sans-serif; white-space: pre;" font-size="20px" font-family="Roboto, sans-serif"><tspan x="15.66" y="33.5" dominant-baseline="ideographic">Compatibility with Popular Brands</tspan></text></g></g></g><g id="g-root-cu_1hd73goc95538-fill" data-item-order="0" transform="translate(333, 177)"></g><g id="g-root-cu_18hk37sc955vz-fill" data-item-order="0" transform="translate(333, 177)"></g><g id="g-root-tx_integrat_1lxdx6wc92dqb-fill" data-item-order="0" transform="translate(711, 189)"><g id="tx_integrat_1lxdx6wc92dqb-fill" stroke="none" fill="#f4f4f4"><g><text style="font: 20px Roboto, sans-serif; white-space: pre;" font-size="20px" font-family="Roboto, sans-serif"><tspan x="12.55" y="33.5" dominant-baseline="ideographic">Integration with Leading Platforms</tspan></text></g></g></g><g id="g-root-tx_multilay_vb3djcc92dqf-fill" data-item-order="0" transform="translate(51, 339)"><g id="tx_multilay_vb3djcc92dqf-fill" stroke="none" fill="#f4f4f4"><g><text style="font: 20px Roboto, sans-serif; white-space: pre;" font-size="20px" font-family="Roboto, sans-serif"><tspan x="15.27" y="33.5" dominant-baseline="ideographic">Multi-Layer Security Protocols</tspan></text></g></g></g><g id="g-root-cu_zlx2ywc957gr-fill" data-item-order="0" transform="translate(333, 327)"></g><g id="g-root-cu_1cxdlc8c955vl-fill" data-item-order="0" transform="translate(687, 177)"></g><g id="g-root-cu_141ql3cc956oc-fill" data-item-order="0" transform="translate(687, 177)"></g><g id="g-root-cu_zlx2ywc957gu-fill" data-item-order="0" transform="translate(333, 327)"></g><g id="g-root-tx_facialre_18mjvwoc92c5i-fill" data-item-order="0" transform="translate(711, 375)"><g id="tx_facialre_18mjvwoc92c5i-fill" stroke="none" fill="#f4f4f4"><g><text style="font: 20px Roboto, sans-serif; white-space: pre;" font-size="20px" font-family="Roboto, sans-serif"><tspan x="12.76" y="33.5" dominant-baseline="ideographic">Facial Recognition Technology</tspan></text></g></g></g><g id="g-root-cu_1hd73goc95535-fill" data-item-order="0" transform="translate(375, 286)"></g><g id="g-root-tx_advanced_1d1qwy0c92ej1-fill" data-item-order="0" transform="translate(711, 339)"><g id="tx_advanced_1d1qwy0c92ej1-fill" stroke="none" fill="#f4f4f4"><g><text style="font: 20px Roboto, sans-serif; white-space: pre;" font-size="20px" font-family="Roboto, sans-serif"><tspan x="15.72" y="33.5" dominant-baseline="ideographic">Advanced Fingerprint Scanning</tspan></text></g></g></g><g id="g-root-tx_seamless_1lxdx6wc92dqa-fill" data-item-order="0" transform="translate(51, 225)"><g id="tx_seamless_1lxdx6wc92dqa-fill" stroke="none" fill="#f4f4f4"><g><text style="font: 20px Roboto, sans-serif; white-space: pre;" font-size="20px" font-family="Roboto, sans-serif"><tspan x="15.38" y="33.5" dominant-baseline="ideographic">Seamless Integration Process</tspan></text></g></g></g><g id="g-root-tx_regulato_vb3djcc92dqg-fill" data-item-order="0" transform="translate(27, 375)"><g id="tx_regulato_vb3djcc92dqg-fill" stroke="none" fill="#f4f4f4"><g><text style="font: 20px Roboto, sans-serif; white-space: pre;" font-size="20px" font-family="Roboto, sans-serif"><tspan x="15.82" y="33.5" dominant-baseline="ideographic">Regulatory Compliance Features</tspan></text></g></g></g><g id="g-root-cu_1cxdlc8c9553i-fill" data-item-order="0" transform="translate(615, 286)"></g><g id="g-root-cu_141ql3cc956oe-fill" data-item-order="0" transform="translate(687, 327)"></g><g id="g-root-tx_botplatf_5uybsc8wphn-fill" data-item-order="1000000000" transform="translate(711, 138)"><g id="tx_botplatf_5uybsc8wphn-fill" stroke="none" fill="#cb68f9"><g><text style="font: 20px Roboto, sans-serif; white-space: pre;" font-size="20px" font-family="Roboto, sans-serif"><tspan x="17.05" y="33.5" dominant-baseline="ideographic">Bot Platform Integration</tspan></text></g></g></g><g id="g-root-1_1hfozt4c8wrno-fill" data-item-order="1000000000" transform="translate(675, 135)"></g><g id="g-root-add_dcxyrsc8tx52-fill" data-item-order="1000000000" transform="translate(495, 210)"></g><g id="g-root-1_1heg1mwc93sao-fill" data-item-order="1000000000" transform="translate(333, 135)"></g><g id="g-root-tx_futureen_qns020c8typx-fill" data-item-order="1000000000" transform="translate(447, 264)"><g id="tx_futureen_qns020c8typx-fill" stroke="none" fill="#b7b7b7"><g><text style="font: 20px Roboto, sans-serif; white-space: pre;" font-size="20px" font-family="Roboto, sans-serif"><tspan x="53.68" y="33.5" dominant-baseline="ideographic">Future </tspan><tspan x="15.76" y="57.5" dominant-baseline="ideographic">Enhancements</tspan></text></g></g></g><g id="g-root-tx_hardware_1qa31vsc93qq7-fill" data-item-order="1000000000" transform="translate(99, 138)"><g id="tx_hardware_1qa31vsc93qq7-fill" stroke="none" fill="#fb6762"><g><text style="font: 20px Roboto, sans-serif; white-space: pre;" font-size="20px" font-family="Roboto, sans-serif"><tspan x="13.1" y="33.5" dominant-baseline="ideographic">Hardware Wallet Support</tspan></text></g></g></g><g id="g-root-hier_1uo14qwc955vy-fill" data-item-order="1000000000" transform="translate(333, 285)"></g><g id="g-root-1_18it1e0c90z5s-fill" data-item-order="1000000000" transform="translate(675, 285)"></g><g id="g-root-tx_biometri_1heg1mwc90xlb-fill" data-item-order="1000000000" transform="translate(711, 288)"><g id="tx_biometri_1heg1mwc90xlb-fill" stroke="none" fill="#ffe711"><g><text style="font: 20px Roboto, sans-serif; white-space: pre;" font-size="20px" font-family="Roboto, sans-serif"><tspan x="11.88" y="33.5" dominant-baseline="ideographic">Biometric Security Options</tspan></text></g></g></g><g id="g-root-tx_institut_4ik30oc955ad-fill" data-item-order="1000000000" transform="translate(75, 288)"><g id="tx_institut_4ik30oc955ad-fill" stroke="none" fill="#a6da37"><g><text style="font: 20px Roboto, sans-serif; white-space: pre;" font-size="20px" font-family="Roboto, sans-serif"><tspan x="15.87" y="33.5" dominant-baseline="ideographic">Institutional-Grade Security</tspan></text></g></g></g><g id="g-root-ro_dcxyrsc8tx53-stroke" data-item-order="-28800" transform="translate(423, 186)"><g id="ro_dcxyrsc8tx53-stroke" fill="none" stroke-linecap="round" stroke-linejoin="round" stroke-miterlimit="4" stroke="#f4f4f4" stroke-width="2"><g><path d="M 34 10L 178 10C 178 10 202 10 202 34L 202 136C 202 136 202 160 178 160L 34 160C 34 160 10 160 10 136L 10 34C 10 34 10 10 34 10"></path></g></g></g><g id="g-root-ro_1q87mmgc956o7-stroke" data-item-order="-16848" transform="translate(63, 273)"><g id="ro_1q87mmgc956o7-stroke" fill="none" stroke-linecap="round" stroke-linejoin="round" stroke-miterlimit="4" stroke="#a6da37" stroke-width="2"><g><path d="M 22 10L 310 10C 310 10 322 10 322 22L 322 52C 322 52 322 64 310 64L 22 64C 22 64 10 64 10 52L 10 22C 10 22 10 10 22 10"></path></g></g></g><g id="g-root-ro_zn6154c90zyh-stroke" data-item-order="-16200" transform="translate(663, 273)"><g id="ro_zn6154c90zyh-stroke" fill="none" stroke-linecap="round" stroke-linejoin="round" stroke-miterlimit="4" stroke="#ffe711" stroke-width="2"><g><path d="M 22 10L 298 10C 298 10 310 10 310 22L 310 52C 310 52 310 64 298 64L 22 64C 22 64 10 64 10 52L 10 22C 10 22 10 10 22 10"></path></g></g></g><g id="g-root-ro_1heg1mwc93sap-stroke" data-item-order="-15552" transform="translate(87, 123)"><g id="ro_1heg1mwc93sap-stroke" fill="none" stroke-linecap="round" stroke-linejoin="round" stroke-miterlimit="4" stroke="#fb6762" stroke-width="2"><g><path d="M 22 10L 286 10C 286 10 298 10 298 22L 298 52C 298 52 298 64 286 64L 22 64C 22 64 10 64 10 52L 10 22C 10 22 10 10 22 10"></path></g></g></g><g id="g-root-ro_144uyiwc8wq2t-stroke" data-item-order="-15552" transform="translate(663, 123)"><g id="ro_144uyiwc8wq2t-stroke" fill="none" stroke-linecap="round" stroke-linejoin="round" stroke-miterlimit="4" stroke="#cb68f9" stroke-width="2"><g><path d="M 22 10L 286 10C 286 10 298 10 298 22L 298 52C 298 52 298 64 286 64L 22 64C 22 64 10 64 10 52L 10 22C 10 22 10 10 22 10"></path></g></g></g><g id="g-root-cu_1q87mmgc956o8-stroke" data-item-order="0" transform="translate(375, 150)"><g id="cu_1q87mmgc956o8-stroke" fill="none" stroke-linecap="round" stroke-linejoin="round" stroke-miterlimit="4" stroke="#b7b7b7" stroke-width="2" stroke-dasharray="5.0, 7.0"><g><path d="M 58 96L 55 96L 54.9 96C 43.357245 95.999996 33.999997 86.642747 33.999997 75.099997L 34 75L 34 30.9C 33.999998 19.357248 24.64275 10 13.1 10L 13 10L 10 10"></path></g></g></g><g id="g-root-cu_18hk37sc956o1-stroke" data-item-order="0" transform="translate(687, 327)"><g id="cu_18hk37sc956o1-stroke" fill="none" stroke-linecap="round" stroke-linejoin="round" stroke-miterlimit="4" stroke="#b7b7b7" stroke-width="2" stroke-dasharray="5.0, 7.0"><g><path d="M 10 10L 10 17.5L 10 58C 10.000002 64.627417 15.372585 70 22.000002 69.999999L 22.1 70L 28 70"></path></g></g></g><g id="g-root-cu_1lse4i0c957gj-stroke" data-item-order="0" transform="translate(615, 150)"><g id="cu_1lse4i0c957gj-stroke" fill="none" stroke-linecap="round" stroke-linejoin="round" stroke-miterlimit="4" stroke="#b7b7b7" stroke-width="2" stroke-dasharray="5.0, 7.0"><g><path d="M 10 96L 13 96L 13.1 96C 24.642748 96.000003 33.999998 86.642755 33.999998 75.100003L 34 75L 34 30.9C 33.999999 19.357249 43.357248 10.000001 54.899999 10.000002L 55 10L 58 10"></path></g></g></g><g id="g-root-tx_customiz_1d1qwy0c92ej0-stroke" data-item-order="0" transform="translate(711, 225)"></g><g id="g-root-tx_futureen_141ql3cc957gg-stroke" data-item-order="0" transform="translate(297, 39)"></g><g id="g-root-tx_compatib_1qd7fbcc92cy1-stroke" data-item-order="0" transform="translate(15, 189)"></g><g id="g-root-cu_1hd73goc95538-stroke" data-item-order="0" transform="translate(333, 177)"><g id="cu_1hd73goc95538-stroke" fill="none" stroke-linecap="round" stroke-linejoin="round" stroke-miterlimit="4" stroke="#b7b7b7" stroke-width="2" stroke-dasharray="5.0, 7.0"><g><path d="M 28 10L 28 22L 28 34L 19 34L 10 34"></path></g></g></g><g id="g-root-cu_18hk37sc955vz-stroke" data-item-order="0" transform="translate(333, 177)"><g id="cu_18hk37sc955vz-stroke" fill="none" stroke-linecap="round" stroke-linejoin="round" stroke-miterlimit="4" stroke="#b7b7b7" stroke-width="2" stroke-dasharray="5.0, 7.0"><g><path d="M 28 10L 28 17.5L 28 58C 27.999999 64.627415 22.627416 69.999998 16 69.999998L 15.9 70L 10 70"></path></g></g></g><g id="g-root-tx_integrat_1lxdx6wc92dqb-stroke" data-item-order="0" transform="translate(711, 189)"></g><g id="g-root-tx_multilay_vb3djcc92dqf-stroke" data-item-order="0" transform="translate(51, 339)"></g><g id="g-root-cu_zlx2ywc957gr-stroke" data-item-order="0" transform="translate(333, 327)"><g id="cu_zlx2ywc957gr-stroke" fill="none" stroke-linecap="round" stroke-linejoin="round" stroke-miterlimit="4" stroke="#b7b7b7" stroke-width="2" stroke-dasharray="5.0, 7.0"><g><path d="M 28 10L 28 22L 28 34L 19 34L 10 34"></path></g></g></g><g id="g-root-cu_1cxdlc8c955vl-stroke" data-item-order="0" transform="translate(687, 177)"><g id="cu_1cxdlc8c955vl-stroke" fill="none" stroke-linecap="round" stroke-linejoin="round" stroke-miterlimit="4" stroke="#b7b7b7" stroke-width="2" stroke-dasharray="5.0, 7.0"><g><path d="M 10 10L 10 22L 10 34L 19 34L 28 34"></path></g></g></g><g id="g-root-cu_141ql3cc956oc-stroke" data-item-order="0" transform="translate(687, 177)"><g id="cu_141ql3cc956oc-stroke" fill="none" stroke-linecap="round" stroke-linejoin="round" stroke-miterlimit="4" stroke="#b7b7b7" stroke-width="2" stroke-dasharray="5.0, 7.0"><g><path d="M 10 10L 10 17.5L 10 58C 10.000002 64.627417 15.372585 70 22.000002 69.999999L 22.1 70L 28 70"></path></g></g></g><g id="g-root-cu_zlx2ywc957gu-stroke" data-item-order="0" transform="translate(333, 327)"><g id="cu_zlx2ywc957gu-stroke" fill="none" stroke-linecap="round" stroke-linejoin="round" stroke-miterlimit="4" stroke="#b7b7b7" stroke-width="2" stroke-dasharray="5.0, 7.0"><g><path d="M 28 10L 28 17.5L 28 58C 27.999999 64.627415 22.627416 69.999998 16 69.999998L 15.9 70L 10 70"></path></g></g></g><g id="g-root-tx_facialre_18mjvwoc92c5i-stroke" data-item-order="0" transform="translate(711, 375)"></g><g id="g-root-cu_1hd73goc95535-stroke" data-item-order="0" transform="translate(375, 286)"><g id="cu_1hd73goc95535-stroke" fill="none" stroke-linecap="round" stroke-linejoin="round" stroke-miterlimit="4" stroke="#b7b7b7" stroke-width="2" stroke-dasharray="5.0, 7.0"><g><path d="M 58 10L 55 10L 54.9 10C 51.522851 10.003929 47.800585 10.613027 43.900001 11.799999C 41.565213 12.503613 38.063122 14.343095 34 17.000001C 29.936878 19.656907 26.434787 21.496389 24.1 22.200001C 20.199417 23.386972 16.477151 23.99607 13.100001 24L 13 24L 10 24"></path></g></g></g><g id="g-root-tx_advanced_1d1qwy0c92ej1-stroke" data-item-order="0" transform="translate(711, 339)"></g><g id="g-root-tx_seamless_1lxdx6wc92dqa-stroke" data-item-order="0" transform="translate(51, 225)"></g><g id="g-root-tx_regulato_vb3djcc92dqg-stroke" data-item-order="0" transform="translate(27, 375)"></g><g id="g-root-cu_1cxdlc8c9553i-stroke" data-item-order="0" transform="translate(615, 286)"><g id="cu_1cxdlc8c9553i-stroke" fill="none" stroke-linecap="round" stroke-linejoin="round" stroke-miterlimit="4" stroke="#b7b7b7" stroke-width="2" stroke-dasharray="5.0, 7.0"><g><path d="M 10 10L 13 10L 13.1 10C 16.47715 10.00393 20.199416 10.613028 24.1 11.8C 26.434787 12.503612 29.936878 14.343094 34 16.999999C 38.063122 19.656905 41.565214 21.496387 43.900001 22.199999C 47.800584 23.386973 51.52285 23.996071 54.900001 24.000001L 55 24L 58 24"></path></g></g></g><g id="g-root-cu_141ql3cc956oe-stroke" data-item-order="0" transform="translate(687, 327)"><g id="cu_141ql3cc956oe-stroke" fill="none" stroke-linecap="round" stroke-linejoin="round" stroke-miterlimit="4" stroke="#b7b7b7" stroke-width="2" stroke-dasharray="5.0, 7.0"><g><path d="M 10 10L 10 22L 10 34L 19 34L 28 34"></path></g></g></g><g id="g-root-tx_botplatf_5uybsc8wphn-stroke" data-item-order="1000000000" transform="translate(711, 138)"></g><g id="g-root-1_1hfozt4c8wrno-stroke" data-item-order="1000000000" transform="translate(675, 135)"><g id="1_1hfozt4c8wrno-stroke" fill="none" stroke-linecap="round" stroke-linejoin="round" stroke-miterlimit="4" stroke="#cb68f9" stroke-width="2"><g><path d="M 18.55875 27.58625L 20.0525 30.366249M 27.13875 16.932501L 33.028751 27.893749M 32.393753 26.7125L 19.692501 29.695L 18.9 28.221249L 27.905001 18.3575L 32.393753 26.7125ZM 22.436251 29.05125L 23.137501 30.32C 23.369761 30.771175 23.777817 31.106585 24.265419 31.247116C 24.753019 31.387646 25.276993 31.320858 25.713749 31.062498C 26.632231 30.497723 26.950771 29.314577 26.439999 28.365L 26.315001 28.141249M 23.1425 12.78125C 23.616581 13.307542 24.291666 13.608022 25 13.608022C 25.708334 13.608022 26.383419 13.307542 26.8575 12.78125L 28.059999 11.45125C 28.768265 10.661479 29.89785 10.404702 30.877934 10.81068C 31.858015 11.216658 32.475159 12.19698 32.4175 13.25625L 32.326248 15.04625C 32.289936 15.752952 32.554817 16.441938 33.055187 16.94231C 33.555561 17.442684 34.244549 17.707563 34.951252 17.671249L 36.75 17.5825C 37.809269 17.524839 38.789593 18.141985 39.195572 19.122066C 39.601547 20.10215 39.344772 21.231735 38.555 21.940001L 37.225002 23.1425C 36.698708 23.616581 36.398232 24.291666 36.398232 25C 36.398232 25.708334 36.698708 26.383419 37.225002 26.8575L 38.555 28.059999C 39.344772 28.768265 39.601547 29.89785 39.195572 30.877934C 38.789593 31.858015 37.809269 32.475159 36.75 32.4175L 34.959999 32.326248C 34.2533 32.289936 33.564312 32.554817 33.063938 33.055187C 32.563568 33.555561 32.298687 34.244549 32.334999 34.951252L 32.42625 36.741249C 32.48391 37.800518 31.866764 38.780842 30.886684 39.186821C 29.906601 39.592796 28.777016 39.336021 28.06875 38.546249L 26.866249 37.216251C 26.39217 36.689957 25.717083 36.389481 25.008751 36.389481C 24.300417 36.389481 23.625332 36.689957 23.151249 37.216251L 21.94875 38.546249C 21.242926 39.341732 20.111101 39.603615 19.127602 39.199009C 18.144098 38.794399 17.524218 37.811878 17.5825 36.75L 17.67375 34.959999C 17.710064 34.2533 17.445183 33.564312 16.944811 33.063938C 16.444439 32.563568 15.755451 32.298687 15.04875 32.334999L 13.25875 32.42625C 12.199479 32.48391 11.219158 31.866764 10.81318 30.886684C 10.407203 29.906601 10.663979 28.777016 11.45375 28.06875L 12.78375 26.866249C 13.310041 26.39217 13.610521 25.717083 13.610521 25.008751C 13.610521 24.300417 13.310041 23.625332 12.78375 23.151249L 11.45125 21.940001C 10.661479 21.231735 10.404702 20.10215 10.81068 19.122066C 11.216658 18.141985 12.19698 17.524839 13.25625 17.5825L 15.04625 17.67375C 15.752952 17.710064 16.441938 17.445183 16.94231 16.944811C 17.442684 16.444439 17.707563 15.755451 17.671249 15.04875L 17.5825 13.25625C 17.524839 12.19698 18.141985 11.216658 19.122066 10.81068C 20.10215 10.404702 21.231735 10.661479 21.940001 11.45125Z"></path></g></g></g><g id="g-root-add_dcxyrsc8tx52-stroke" data-item-order="1000000000" transform="translate(495, 210)"><g id="add_dcxyrsc8tx52-stroke" fill="none" stroke-linecap="round" stroke-linejoin="round" stroke-miterlimit="4" stroke="#b7b7b7" stroke-width="2"><g><path d="M 47 17.132L 47 24.91M 50.888 21.02L 43.112 21.02M 37 21.02C 37 26.542849 41.477154 31.02 47 31.02C 52.522846 31.02 57 26.542849 57 21.02C 57 15.497152 52.522846 11.02 47 11.02C 41.477154 11.02 37 15.497152 37 21.02M 14.656 48.942001L 27.563999 56.472C 28.703381 57.136513 30.111088 57.141182 31.25485 56.484241C 32.398613 55.827301 33.103889 54.609001 33.104 53.290001L 33.104 36.306C 33.10408 33.684845 31.711996 31.260889 29.448 29.939999L 16.540001 22.41C 15.399384 21.744762 13.989967 21.74085 12.845675 22.399746C 11.701385 23.058643 10.997243 24.279568 11 25.6L 11 42.585999C 11.003066 45.20369 12.394784 47.623207 14.656 48.942001ZM 43 36.02L 43 42.02C 43 44.229137 41.209137 46.02 39 46.02L 34 46.02M 14.446 21.903999L 32.762001 21.903999M 24.934 42.433998C 24.934 42.986286 25.381714 43.434002 25.934 43.434002C 26.486284 43.434002 26.934 42.986286 26.934 42.433998C 26.934 41.881714 26.486284 41.433998 25.934 41.433998C 25.381714 41.433998 24.934 41.881714 24.934 42.433998"></path></g></g></g><g id="g-root-1_1heg1mwc93sao-stroke" data-item-order="1000000000" transform="translate(333, 135)"><g id="1_1heg1mwc93sao-stroke" fill="none" stroke-linecap="round" stroke-linejoin="round" stroke-miterlimit="4" stroke="#fb6762" stroke-width="2"><g><path d="M 10 10M 37.837502 39.0625L 34.78125 34.8675L 34.78125 29.279999C 34.818748 27.967499 33.665001 26.522501 32.228752 25.1425M 31.748751 31.724998L 28.45875 28.3375C 28.133801 27.996212 27.649353 27.857937 27.193211 27.976282C 26.737072 28.094629 26.380957 28.450987 26.26292 28.907207C 26.144886 29.36343 26.283489 29.847782 26.625 30.172501L 29.889999 34.171249L 29.889999 36.005001C 29.889999 37.228752 31.797501 39.0625 31.797501 39.0625M 26.223751 18.845001C 26.223061 20.195049 25.128801 21.28931 23.778749 21.290001L 19.498751 21.289999L 19.498751 16.4L 23.778749 16.4C 25.129288 16.40069 26.223751 17.495712 26.223751 18.846251ZM 26.223751 23.73625C 26.223061 25.0863 25.128801 26.180561 23.778749 26.181252L 19.498751 26.18125L 19.498751 21.289999L 23.778749 21.289999C 25.129288 21.290691 26.223751 22.385712 26.223751 23.73625ZM 23.778749 14.565L 23.778749 16.39875M 23.778749 26.182501L 23.778749 28.016251M 26.223751 18.845001C 26.223061 20.195049 25.128801 21.28931 23.778749 21.290001L 19.498751 21.289999L 19.498751 16.4L 23.778749 16.4C 25.129288 16.40069 26.223751 17.495712 26.223751 18.846251ZM 26.223751 23.73625C 26.223061 25.0863 25.128801 26.180561 23.778749 26.181252L 19.498751 26.18125L 19.498751 21.289999L 23.778749 21.289999C 25.129288 21.290691 26.223751 22.385712 26.223751 23.73625ZM 23.778749 14.565L 23.778749 16.39875M 23.778749 26.182501L 23.778749 28.016251M 21.3325 14.565L 21.3325 16.39875M 21.3325 26.182501L 21.3325 28.016251M 21.3325 14.565L 21.3325 16.39875M 21.3325 26.182501L 21.3325 28.016251M 27.057499 30.702499C 22.121803 33.077599 16.189962 31.214693 13.498345 26.444223C 10.806727 21.673752 12.279211 15.633144 16.864185 12.636446C 21.44916 9.639747 27.572866 10.715551 30.861914 15.095548C 34.150959 19.475544 33.476406 25.65633 29.32 29.223749"></path></g></g></g><g id="g-root-tx_futureen_qns020c8typx-stroke" data-item-order="1000000000" transform="translate(447, 264)"></g><g id="g-root-tx_hardware_1qa31vsc93qq7-stroke" data-item-order="1000000000" transform="translate(99, 138)"></g><g id="g-root-hier_1uo14qwc955vy-stroke" data-item-order="1000000000" transform="translate(333, 285)"><g id="hier_1uo14qwc955vy-stroke" fill="none" stroke-linecap="round" stroke-linejoin="round" stroke-miterlimit="4" stroke="#a6da37" stroke-width="2"><g><path d="M 15 31.875L 15 28.75C 15 28.404823 15.279821 28.125 15.625 28.125L 34.375 28.125C 34.720177 28.125 35 28.404823 35 28.75L 35 31.875M 25 24.375L 25 31.875M 11.25 35.625C 11.25 37.696068 12.928932 39.375 15 39.375C 17.071068 39.375 18.75 37.696068 18.75 35.625C 18.75 33.553932 17.071068 31.875 15 31.875C 12.928932 31.875 11.25 33.553932 11.25 35.625ZM 21.25 35.625C 21.25 37.696068 22.928932 39.375 25 39.375C 27.071068 39.375 28.75 37.696068 28.75 35.625C 28.75 33.553932 27.071068 31.875 25 31.875C 22.928932 31.875 21.25 33.553932 21.25 35.625ZM 31.25 35.625C 31.25 37.696068 32.928932 39.375 35 39.375C 37.071068 39.375 38.75 37.696068 38.75 35.625C 38.75 33.553932 37.071068 31.875 35 31.875C 32.928932 31.875 31.25 33.553932 31.25 35.625ZM 31.25 23.125C 31.25 23.815357 30.690355 24.375 30 24.375L 20 24.375C 19.309645 24.375 18.75 23.815357 18.75 23.125L 18.75 16.875C 18.75 16.184645 19.309645 15.625 20 15.625L 30 15.625C 30.690355 15.625 31.25 16.184645 31.25 16.875ZM 23.75 20C 23.75 20.690357 24.309643 21.25 25 21.25C 25.690357 21.25 26.25 20.690357 26.25 20C 26.25 19.309645 25.690357 18.75 25 18.75C 24.309643 18.75 23.75 19.309645 23.75 20ZM 28.75 15.625L 28.75 14.375C 28.75 12.303932 27.071068 10.625 25 10.625C 22.928932 10.625 21.25 12.303932 21.25 14.375L 21.25 15.625"></path></g></g></g><g id="g-root-1_18it1e0c90z5s-stroke" data-item-order="1000000000" transform="translate(675, 285)"><g id="1_18it1e0c90z5s-stroke" fill="none" stroke-linecap="round" stroke-linejoin="round" stroke-miterlimit="4" stroke="#ffe711" stroke-width="2"><g><path d="M 25 39.375C 31.213203 39.375 36.25 34.338203 36.25 28.125L 36.25 21.875C 36.253479 19.106838 35.232506 16.435299 33.383747 14.375M 13.75 24.375L 13.75 28.125C 13.748775 32.648777 16.457312 36.733253 20.625 38.4925M 30.625 12.1325C 27.240849 10.178708 23.085251 10.12096 19.648115 11.979959C 16.210979 13.83896 13.984713 17.348385 13.7675 21.25M 21.875 15.055C 24.197233 13.990606 26.901546 14.181402 29.051329 15.56131C 31.201111 16.941216 32.500702 19.320454 32.5 21.875L 32.5 28.125C 32.500275 28.757439 32.420902 29.387396 32.263748 30M 30.59 33.125C 28.516895 35.442642 25.228645 36.240658 22.323803 35.131092C 19.418962 34.021526 17.500078 31.234541 17.5 28.125L 17.5 21.875C 17.49757 20.02969 18.177902 18.24872 19.41 16.875M 21.25 28.125C 21.25 30.196068 22.928932 31.875 25 31.875C 27.071068 31.875 28.75 30.196068 28.75 28.125L 28.75 21.875C 28.75 19.803932 27.071068 18.125 25 18.125C 22.928932 18.125 21.25 19.803932 21.25 21.875L 21.25 25.625M 25 21.875L 25 25.625M 25 28.125L 25 29.375"></path></g></g></g><g id="g-root-tx_biometri_1heg1mwc90xlb-stroke" data-item-order="1000000000" transform="translate(711, 288)"></g><g id="g-root-tx_institut_4ik30oc955ad-stroke" data-item-order="1000000000" transform="translate(75, 288)"></g></g></g></svg>