<?xml version="1.0" encoding="utf-8" standalone="yes"?>
<!DOCTYPE svg PUBLIC "-//W3C//DTD SVG 1.1//EN" "http://www.w3.org/Graphics/SVG/1.1/DTD/svg11.dtd">
<svg width="914" height="758" viewBox="0 0 914 758" style="fill:none;stroke:none;fill-rule:evenodd;clip-rule:evenodd;stroke-linecap:round;stroke-linejoin:round;stroke-miterlimit:1.5;" version="1.1" xmlns="http://www.w3.org/2000/svg" xmlns:xlink="http://www.w3.org/1999/xlink"><style class="text-font-style fontImports" data-font-family="Roboto">@import url('https://fonts.googleapis.com/css2?family=Roboto:wght@400;700&amp;display=block');</style><g id="items" style="isolation: isolate"><g id="blend" style="mix-blend-mode: normal"><g id="g-root--1.g-0d_fr_vy5ufaqtxg-fill" data-item-order="-570230" transform="translate(494.8699951171875, 415.3095703125)"></g><g id="g-root--1.g-0c_fr_vy5ufaqtxi-fill" data-item-order="-570226" transform="translate(449.76055908203125, 326.75)"></g><g id="g-root--1.g-0b_fr_1um6i0ifaquio-fill" data-item-order="-570222" transform="translate(327.8599853515625, 331.650390625)"></g><g id="g-root--1.g-0a_fr_1um6i0ifaquiq-fill" data-item-order="-570218" transform="translate(213.28997802734375, 422.9296875)"></g><g id="g-root-4.g-4_fr_1lqjhrmfaqvbg-fill" data-item-order="-570214" transform="translate(588.9814453125, 404.33203125)"></g><g id="g-root-3.g-3_fr_1lqjhrmfaqvbi-fill" data-item-order="-570210" transform="translate(468.2314453125, 316.62109375)"></g><g id="g-root-2.g-2_fr_1hapzn6faqw3s-fill" data-item-order="-570206" transform="translate(317.859375, 321.69140625)"></g><g id="g-root-1.g-1_fr_1hapzn6faqw3u-fill" data-item-order="-570202" transform="translate(201.7138671875, 411.46484375)"></g><g id="g-root-tx_advancin_1cuwhiqfaqww4-fill" data-item-order="0" transform="translate(165, 39)"><g id="tx_advancin_1cuwhiqfaqww4-fill" stroke="none" fill="#f4f4f4"><g><text style="font: 20px Roboto, sans-serif; white-space: pre;" font-size="20px" font-family="Roboto, sans-serif"><tspan x="17.38" y="33.5" dominant-baseline="ideographic">Advancing Security and Integration for Future Wallet Solutions</tspan></text></g></g></g><g id="g-root-tx_botplatf_v48y42faqw3l-fill" data-item-order="0" transform="translate(219, 159)"><g id="tx_botplatf_v48y42faqw3l-fill" stroke="none" fill="#f4f4f4"><g><text style="font: bold 20px Roboto, sans-serif; white-space: pre;" font-weight="bold" font-size="20px" font-family="Roboto, sans-serif"><tspan x="61.43" y="33.5" dominant-baseline="ideographic">Bot Platform </tspan><tspan x="77.67" y="57.5" dominant-baseline="ideographic">Integration</tspan></text></g></g></g><g id="g-root-tx_biometri_zk2g8ifaqvbb-fill" data-item-order="0" transform="translate(507.530029296875, 159)"><g id="tx_biometri_zk2g8ifaqvbb-fill" stroke="none" fill="#f4f4f4"><g><text style="font: bold 20px Roboto, sans-serif; white-space: pre;" font-weight="bold" font-size="20px" font-family="Roboto, sans-serif"><tspan x="12" y="33.5" dominant-baseline="ideographic">Biometric </tspan><tspan x="12" y="57.5" dominant-baseline="ideographic">Security</tspan></text></g></g></g><g id="g-root-tx_expanded_v48y42faqw3m-fill" data-item-order="0" transform="translate(219, 219)"><g id="tx_expanded_v48y42faqw3m-fill" stroke="none" fill="#f4f4f4"><g><text style="font: 15px Roboto, sans-serif; white-space: pre;" font-size="15px" font-family="Roboto, sans-serif"><tspan x="35.02" y="27.5" dominant-baseline="ideographic">Expanded integration </tspan><tspan x="51.61" y="45.5" dominant-baseline="ideographic">capabilities for bot </tspan><tspan x="19.96" y="63.5" dominant-baseline="ideographic">platforms to streamline </tspan><tspan x="101.02" y="81.5" dominant-baseline="ideographic">operations.</tspan></text></g></g></g><g id="g-root-tx_enhanced_zk2g8ifaqvbc-fill" data-item-order="0" transform="translate(507.530029296875, 219)"><g id="tx_enhanced_zk2g8ifaqvbc-fill" stroke="none" fill="#f4f4f4"><g><text style="font: 15px Roboto, sans-serif; white-space: pre;" font-size="15px" font-family="Roboto, sans-serif"><tspan x="12" y="27.5" dominant-baseline="ideographic">Enhanced biometric </tspan><tspan x="12" y="45.5" dominant-baseline="ideographic">security options to </tspan><tspan x="12" y="63.5" dominant-baseline="ideographic">improve user </tspan><tspan x="12" y="81.5" dominant-baseline="ideographic">authentication.</tspan></text></g></g></g><g id="g-root-tx_hardware_m8lxv6faqwwb-fill" data-item-order="0" transform="translate(15, 339)"><g id="tx_hardware_m8lxv6faqwwb-fill" stroke="none" fill="#f4f4f4"><g><text style="font: bold 20px Roboto, sans-serif; white-space: pre;" font-weight="bold" font-size="20px" font-family="Roboto, sans-serif"><tspan x="28.43" y="33.5" dominant-baseline="ideographic">Hardware Wallet </tspan><tspan x="104.11" y="57.5" dominant-baseline="ideographic">Support</tspan></text></g></g></g><g id="g-root-tx_institut_13zvycyfaquj1-fill" data-item-order="0" transform="translate(711, 351)"><g id="tx_institut_13zvycyfaquj1-fill" stroke="none" fill="#f4f4f4"><g><text style="font: bold 20px Roboto, sans-serif; white-space: pre;" font-weight="bold" font-size="20px" font-family="Roboto, sans-serif"><tspan x="12" y="33.5" dominant-baseline="ideographic">Institutional </tspan><tspan x="12" y="57.5" dominant-baseline="ideographic">Security</tspan></text></g></g></g><g id="g-root-tx_supportf_m8lxv6faqwwc-fill" data-item-order="0" transform="translate(15, 399)"><g id="tx_supportf_m8lxv6faqwwc-fill" stroke="none" fill="#f4f4f4"><g><text style="font: 15px Roboto, sans-serif; white-space: pre;" font-size="15px" font-family="Roboto, sans-serif"><tspan x="30.84" y="27.5" dominant-baseline="ideographic">Support for additional </tspan><tspan x="45.76" y="45.5" dominant-baseline="ideographic">hardware wallets to </tspan><tspan x="34.35" y="63.5" dominant-baseline="ideographic">enhance security and </tspan><tspan x="113.89" y="81.5" dominant-baseline="ideographic">flexibility.</tspan></text></g></g></g><g id="g-root-tx_features_13zvycyfaquj2-fill" data-item-order="0" transform="translate(711, 411)"><g id="tx_features_13zvycyfaquj2-fill" stroke="none" fill="#f4f4f4"><g><text style="font: 15px Roboto, sans-serif; white-space: pre;" font-size="15px" font-family="Roboto, sans-serif"><tspan x="12" y="30.5" dominant-baseline="ideographic">Features designed to </tspan><tspan x="12" y="48.5" dominant-baseline="ideographic">meet institutional-grade </tspan><tspan x="12" y="66.5" dominant-baseline="ideographic">security requirements.</tspan></text></g></g></g><g id="g-root-1_htewtufaquit-fill" data-item-order="0" transform="translate(411, 567)"></g><g id="g-root-tx_futureen_1hgc9f6faton4-fill" data-item-order="0" transform="translate(375, 651)"><g id="tx_futureen_1hgc9f6faton4-fill" stroke="none" fill="#d3d3d3"><g><text style="font: bold 20px Roboto, sans-serif; white-space: pre;" font-weight="bold" font-size="20px" font-family="Roboto, sans-serif"><tspan x="53.07" y="33.5" dominant-baseline="ideographic">Future </tspan><tspan x="15.4" y="57.5" dominant-baseline="ideographic">Enhancements</tspan></text></g></g></g><g id="g-root--1.g-0d_fr_vy5ufaqtxg-stroke" data-item-order="-570230" transform="translate(494.8699951171875, 415.3095703125)"><g id="-1.g-0d_fr_vy5ufaqtxg-stroke" fill="none" stroke-linecap="round" stroke-linejoin="round" stroke-miterlimit="4" stroke="#f4f4f4" stroke-width="2"><g><path d="M 117.1857 97.7104C 115.2356 95.0313 111.4828 94.4403 108.8037 96.3904L 15.0174 164.6556L 36.7907 168.0846C 37.8818 168.2565 38.9057 167.5112 39.0775 166.4201L 40.7464 155.8228L 47.1528 156.8317C 48.2439 157.0036 49.2677 156.2583 49.4396 155.1672L 50.4485 148.7609L 55.2995 145.2299L 65.6571 146.8611C 66.1811 146.9436 66.7164 146.8146 67.1452 146.5025L 72.2737 142.7696C 72.7025 142.4574 72.9898 141.9877 73.0723 141.4637L 74.7035 131.1061L 82.2672 132.2973C 82.7911 132.3798 83.3264 132.2508 83.7553 131.9386L 87.2667 129.3827C 87.6956 129.0706 87.9829 128.6008 88.0654 128.0768L 88.5965 124.7042L 91.9692 125.2353C 92.4932 125.3179 93.0285 125.1888 93.4573 124.8767L 96.9688 122.3208C 97.3976 122.0086 97.6849 121.5389 97.7674 121.0149L 98.9586 113.4513L 105.3649 114.4602C 106.456 114.632 107.4799 113.8868 107.6517 112.7957L 108.6606 106.3894L 116.2243 107.5805C 116.7482 107.6631 117.2835 107.534 117.7124 107.2219L 121.8936 104.1785L 117.1857 97.7104ZM 102.9895 83.3066C 101.0394 80.6275 97.2866 80.0365 94.6075 81.9866L 12.9488 141.4244L 10.3087 158.1884L 101.6694 91.6886C 104.3485 89.7385 104.9396 85.9858 102.9895 83.3066ZM 134.4521 101.0471L 106.8539 63.1313C 104.8639 60.4942 101.1447 59.9114 98.4944 61.8405C 95.8343 63.7767 95.2513 67.5155 97.1746 70.2222L 16.7165 128.7861C 15.4299 129.7226 14.5681 131.1318 14.3205 132.7037L 10.0493 159.8253C 9.7056 162.0075 11.1961 164.0551 13.3783 164.3988L 15.0174 164.6556L 108.8037 96.3904C 111.4828 94.4403 115.2356 95.0313 117.1857 97.7104L 121.8936 104.1785L 125.9685 109.7814C 127.9418 112.4923 131.7133 113.1092 134.3924 111.1591C 138.1586 108.4178 136.7041 104.141 134.4521 101.0471ZM 101.6694 91.6886L 10.3087 158.1884L 12.9488 141.4244L 94.6075 81.9866C 97.2866 80.0365 101.0394 80.6275 102.9895 83.3066C 104.9396 85.9858 104.3485 89.7385 101.6694 91.6886ZM 149.4462 11.149C 151.1847 9.8836 153.4675 9.6452 155.4299 10.5243L 192.2466 27.0161C 194.1906 27.8869 195.5271 29.7232 195.7583 31.8407L 200.1362 71.9441C 200.3696 74.0817 199.4411 76.1807 197.7026 77.4462L 165.3248 101.0134C 163.5863 102.2788 161.3035 102.5172 159.341 101.6381L 144.8536 95.1485C 144.7545 95.1042 144.7404 94.9693 144.8282 94.9054C 147.5074 92.9553 148.0984 89.2025 146.1483 86.5234L 124.9625 57.4173C 123.0124 54.7382 119.2597 54.1472 116.5805 56.0973C 116.493 56.161 116.3692 56.1063 116.3574 55.9986L 114.6348 40.2184C 114.4014 38.0807 115.3298 35.9817 117.0684 34.7162L 149.4462 11.149ZM 185.2591 39.4513L 186.3903 49.362C 186.6612 51.7358 185.6348 54.072 183.7031 55.478C 180.7409 57.6342 176.5915 56.9808 174.4353 54.0185L 164.5887 40.4908C 162.4326 37.5285 163.086 33.3791 166.0483 31.2229C 167.98 29.8169 170.5185 29.5582 172.6942 30.5456L 181.7775 34.6681C 183.6981 35.5398 185.0199 37.3558 185.2591 39.4513Z"></path></g></g></g><g id="g-root--1.g-0c_fr_vy5ufaqtxi-stroke" data-item-order="-570226" transform="translate(449.76055908203125, 326.75)"><g id="-1.g-0c_fr_vy5ufaqtxi-stroke" fill="none" stroke-linecap="round" stroke-linejoin="round" stroke-miterlimit="4" stroke="#f4f4f4" stroke-width="2"><g><path d="M 73.4265 114.035709C 70.2756 113.010109 66.8897 114.733009 65.8641 117.884009L 29.9603 228.186209L 29.9598 228.187609L 49.6044 218.191309C 50.5888 217.690309 50.9808 216.486209 50.4798 215.501709L 45.6145 205.940509L 52.4386 202.468009C 52.9114 202.227409 53.2692 201.808909 53.4334 201.304509L 54.7777 197.174609C 54.9418 196.670309 54.8989 196.121309 54.6584 195.648609L 51.1858 188.824409L 60.5308 184.069109C 61.0035 183.828609 61.3614 183.410109 61.5256 182.905709L 63.4889 176.874009C 63.653 176.369709 63.6101 175.820709 63.3696 175.348009L 58.6143 166.003009L 64.3943 163.061809C 65.3787 162.560809 65.7707 161.356709 65.2697 160.372309L 62.3285 154.592309L 69.1527 151.119709C 69.6254 150.879209 69.9832 150.460709 70.1474 149.956309L 71.4917 145.826409C 71.6559 145.322009 71.613 144.773109 71.3724 144.300309L 67.8999 137.476209L 73.6799 134.535009C 74.6643 134.034009 75.0563 132.829909 74.5553 131.845409L 71.6141 126.065509L 78.4382 122.592909C 78.911 122.352409 79.2688 121.933909 79.433 121.429509L 81.0337 116.511909L 73.4265 114.035709ZM 53.4802 110.698609C 50.3293 109.673009 46.9434 111.395909 45.9178 114.546909L 14.6567 210.585909L 14.6563 210.587109L 22.3532 225.710809L 57.3285 118.261109C 58.3541 115.110109 56.6312 111.724309 53.4802 110.698609ZM 65.8641 117.884009C 66.8897 114.733009 70.2756 113.010109 73.4265 114.035709L 81.0337 116.511909L 87.6223 118.655309C 90.8107 119.693109 94.2269 117.980109 95.2526 114.829109C 96.2782 111.678109 94.5249 108.282409 91.3365 107.244609L 44.1539 91.933809C 41.1881 91.351209 38.1964 93.035209 37.2482 95.948509C 36.2298 99.077109 37.951 102.446909 41.0965 103.510509L 10.2946 198.138709C 9.8021 199.651909 9.9308 201.298709 10.6525 202.717009L 14.6567 210.585909L 45.9178 114.546909C 46.9434 111.395909 50.3293 109.673009 53.4802 110.698609C 56.6312 111.724309 58.3541 115.110109 57.3285 118.261109L 22.3532 225.710809L 23.1043 227.186809C 24.1062 229.155709 26.5145 229.939609 28.4834 228.937709L 29.9603 228.186209L 65.8641 117.884009ZM 50.3821 74.984809C 49.4863 77.736709 45.9454 78.341809 44.4984 75.835409C 38.494 65.434809 36.7589 52.625109 40.7687 40.306309C 48.2688 17.264709 73.0277 4.665909 96.0693 12.166009C 119.1108 19.666109 131.7097 44.425009 124.2095 67.466609C 120.1997 79.785409 111.2568 89.119309 100.2806 93.992709C 97.6355 95.167109 95.1292 92.593609 96.025 89.841709C 97.0506 86.690709 95.3277 83.304909 92.1767 82.279209L 57.9446 71.136509C 54.7936 70.110909 51.4078 71.833809 50.3821 74.984809ZM 86.8221 40.575109C 92.0738 42.284509 97.7168 39.413009 99.4263 34.161309C 101.1357 28.909709 98.2642 23.266609 93.0125 21.557209C 87.7609 19.847809 82.1178 22.719309 80.4084 27.970909C 78.699 33.222609 81.5705 38.865609 86.8221 40.575109Z"></path></g></g></g><g id="g-root--1.g-0b_fr_1um6i0ifaquio-stroke" data-item-order="-570222" transform="translate(327.8599853515625, 331.650390625)"><g id="-1.g-0b_fr_1um6i0ifaquio-stroke" fill="none" stroke-linecap="round" stroke-linejoin="round" stroke-miterlimit="4" stroke="#f4f4f4" stroke-width="2"><g><path d="M 81.0685 103.2952C 77.9185 104.324 76.199 107.7116 77.2278 110.8615L 113.2422 221.1292L 121.2985 205.2579C 121.7985 204.2729 121.4053 203.0692 120.4204 202.5692L 114.6375 199.6338L 118.1032 192.8062C 118.3433 192.3332 118.3856 191.7842 118.2209 191.28L 116.8725 187.1515C 116.7079 186.6473 116.3496 186.2291 115.8766 185.989L 109.049 182.5233L 107.1862 176.8198L 110.6519 169.9922C 110.892 169.5192 110.9344 168.9702 110.7697 168.466L 109.4213 164.3375C 109.2566 163.8332 108.8983 163.4151 108.4254 163.175L 101.5978 159.7093L 106.4535 150.1432C 106.9535 149.1583 106.5603 147.9545 105.5754 147.4545L 96.0093 142.5988L 98.9447 136.8159C 99.4447 135.8309 99.0516 134.6272 98.0666 134.1272L 96.0668 133.1121L 98.8924 127.5456C 99.1325 127.0726 99.1749 126.5236 99.0102 126.0194L 97.0409 119.9897C 96.8762 119.4855 96.5179 119.0673 96.045 118.8272L 86.6952 114.0813L 90.161 107.2537C 90.401 106.7807 90.4434 106.2317 90.2787 105.7275L 88.6731 100.8115L 81.0685 103.2952ZM 62.9887 112.3568C 59.8387 113.3856 58.1192 116.7731 59.148 119.9231L 90.5053 215.932L 105.638 223.6134L 70.555 116.1975C 69.5262 113.0475 66.1386 111.328 62.9887 112.3568ZM 91.5337 87.2534L 91.5064 87.2623L 44.1676 102.7235L 44.2535 102.7647C 41.6066 104.0823 40.2476 107.1486 41.1823 110.0105C 42.2038 113.1381 45.5806 114.8457 48.7484 113.8508L 79.6448 208.4482C 80.1388 209.9609 81.2135 211.2153 82.6325 211.9356L 90.5053 215.932L 59.148 119.9231C 58.1192 116.7731 59.8387 113.3856 62.9887 112.3568C 66.1386 111.328 69.5262 113.0475 70.555 116.1975L 105.638 223.6134L 107.1148 224.3628C 109.0847 225.3627 111.4922 224.5764 112.4921 222.6066L 113.2422 221.1292L 77.2278 110.8615C 76.199 107.7116 77.9185 104.324 81.0685 103.2952L 88.6731 100.8115L 95.2593 98.6604C 98.4467 97.6193 100.1966 94.2219 99.1678 91.0719C 98.139 87.922 94.7211 86.2123 91.5337 87.2534ZM 10.9937 81.9988C 7.5644 71.499 13.2962 60.2071 23.796 56.7778C 25.371 56.2634 26.2308 54.5696 25.7164 52.9946L 23.2326 45.39C 18.603 31.2152 26.3409 15.9712 40.5157 11.3415C 54.6905 6.7119 69.9345 14.4498 74.5641 28.6246L 77.0479 36.2293C 77.5623 37.8043 79.2561 38.6641 80.831 38.1496C 91.3309 34.7203 102.6227 40.4521 106.0521 50.9519C 109.4814 61.4518 103.7497 72.7436 93.2498 76.173L 36.2148 94.8011C 25.7149 98.2305 14.4231 92.4987 10.9937 81.9988ZM 57.1628 30.1007C 58.8775 35.3506 56.0116 40.9966 50.7617 42.7112C 45.5117 44.4259 39.8658 41.56 38.1511 36.3101C 36.4365 31.0602 39.3024 25.4142 44.5523 23.6996C 49.8022 21.9849 55.4481 24.8508 57.1628 30.1007Z"></path></g></g></g><g id="g-root--1.g-0a_fr_1um6i0ifaquiq-stroke" data-item-order="-570218" transform="translate(213.28997802734375, 422.9296875)"><g id="-1.g-0a_fr_1um6i0ifaquiq-stroke" fill="none" stroke-linecap="round" stroke-linejoin="round" stroke-miterlimit="4" stroke="#f4f4f4" stroke-width="2"><g><path d="M 99.856531 73.7708C 97.919031 76.459 98.527631 80.209 101.215931 82.1465L 195.321431 149.9709L 191.829131 128.4535C 191.744231 127.9299 191.454731 127.4615 191.024431 127.1514L 185.878431 123.4426C 185.448131 123.1325 184.912231 123.006 184.388731 123.091L 174.038831 124.7707L 172.812131 117.2128C 172.727231 116.6892 172.437731 116.2208 172.007431 115.9107L 168.484031 113.3712C 168.053731 113.0611 167.517831 112.9346 166.994231 113.0196L 159.436231 114.2462L 158.397331 107.8447C 158.220331 106.7544 157.193031 106.014 156.102731 106.1909L 149.701231 107.2299L 147.982531 96.6405C 147.805631 95.5502 146.778331 94.8098 145.688031 94.9868L 135.098631 96.7054L 134.059631 90.3039C 133.882731 89.2136 132.855431 88.4732 131.765131 88.6501L 125.363631 89.6891L 124.136931 82.1311C 124.051931 81.6075 123.762431 81.1392 123.332131 80.829L 119.808731 78.2896C 119.378431 77.9795 118.842531 77.853 118.318931 77.938L 110.761031 79.1646L 109.534331 71.6066C 109.449431 71.083 109.159931 70.6147 108.729631 70.3045L 104.534131 67.2807L 99.856531 73.7708ZM 90.595931 91.7491C 88.658431 94.4374 89.267031 98.1873 91.955331 100.1248L 173.890731 159.178L 173.891931 159.1789L 190.643331 156.4602L 190.642031 156.4593L 98.971631 90.3898C 96.283331 88.4523 92.533431 89.0609 90.595931 91.7491ZM 98.850231 54.6416L 70.239931 94.3386C 68.332031 97.054 68.933231 100.7878 71.601331 102.7108C 74.270431 104.6345 78.004631 104.0227 79.976631 101.3513L 160.708631 159.5371C 161.999531 160.4676 163.607231 160.847 165.178031 160.5921L 173.890731 159.178L 91.955331 100.1248C 89.267031 98.1873 88.658431 94.4374 90.595931 91.7491C 92.533431 89.0609 96.283331 88.4523 98.971631 90.3898L 190.642031 156.4593L 192.279131 156.1936C 194.459731 155.8397 195.940631 153.785 195.586731 151.6044L 195.321431 149.9709L 101.215931 82.1465C 98.527631 80.209 97.919031 76.459 99.856531 73.7708L 101.026931 72.1471L 101.026631 72.1453L 108.585231 61.6579C 110.545831 58.9377 109.955831 55.1619 107.267631 53.2244C 104.579331 51.2869 100.810731 51.9214 98.850231 54.6416ZM 28.366131 90.9478C 24.004931 91.6557 19.895731 88.694 19.187831 84.3328L 10.104531 28.3661C 9.396731 24.0049 12.358431 19.8956 16.719631 19.1878L 72.686331 10.1045C 77.047531 9.3967 81.156731 12.3584 81.864531 16.7196L 86.780931 47.0117C 87.290831 50.1531 86.534431 53.3648 84.673631 55.9467C 79.322031 63.372 72.066931 73.4383 66.469031 81.2053C 64.608131 83.7872 61.799731 85.5216 58.658231 86.0315L 28.366131 90.9478ZM 44.146031 34.0901C 48.626531 37.3193 49.640831 43.5691 46.411631 48.0496C 43.182531 52.53 36.932631 53.5443 32.452231 50.3152C 27.971731 47.086 26.957431 40.8361 30.186631 36.3557C 33.415731 31.8753 39.665631 30.8609 44.146031 34.0901Z"></path></g></g></g><g id="g-root-4.g-4_fr_1lqjhrmfaqvbg-stroke" data-item-order="-570214" transform="translate(588.9814453125, 404.33203125)"><g id="4.g-4_fr_1lqjhrmfaqvbg-stroke" fill="none" stroke-linecap="round" stroke-linejoin="round" stroke-miterlimit="4" stroke="#8769fd" stroke-width="2"><g><path d="M 111.0225 39.0694C 110.561 34.8319 107.8863 31.1572 103.9957 29.4156L 62.9602 11.0473C 59.0359 9.2907 54.4717 9.7678 50.9955 12.298L 14.9382 38.5435C 11.4621 41.0737 9.6053 45.2703 10.0707 49.5445L 12.7454 74.107L 40.4501 112.1677L 62.9999 122.2614C 66.9242 124.018 71.4884 123.5409 74.9646 121.0107L 111.0219 94.7653C 114.498 92.235 116.3548 88.0384 115.8894 83.7642L 111.0225 39.0694ZM 61.3214 21.5L 98.138 37.9918C 100.082 38.8626 101.4186 40.6989 101.6497 42.8164L 106.0277 82.9198C 106.261 85.0574 105.3326 87.1565 103.5941 88.4219L 71.2163 111.9891C 69.4777 113.2545 67.1949 113.4929 65.2325 112.6138L 50.7451 106.1243C 50.646 106.0799 50.6319 105.945 50.7197 105.8811C 53.3988 103.931 53.9898 100.1783 52.0397 97.4991L 30.854 68.393C 28.9039 65.7139 25.1511 65.1229 22.472 67.073C 22.3844 67.1367 22.2606 67.082 22.2489 66.9743L 20.5262 51.1941C 20.2928 49.0564 21.2212 46.9574 22.9598 45.6919L 55.3376 22.1247C 57.0761 20.8593 59.3589 20.621 61.3214 21.5Z"></path></g></g></g><g id="g-root-3.g-3_fr_1lqjhrmfaqvbi-stroke" data-item-order="-570210" transform="translate(468.2314453125, 316.62109375)"><g id="3.g-3_fr_1lqjhrmfaqvbi-stroke" fill="none" stroke-linecap="round" stroke-linejoin="round" stroke-miterlimit="4" stroke="#1ac3fb" stroke-width="2"><g><path d="M 72.7048 117.3221C 91.9968 114.1608 108.8946 100.6 115.3628 80.7286C 124.5937 52.3698 109.0875 21.8973 80.7286 12.6664C 52.3698 3.4354 21.8973 18.9417 12.6664 47.3006C 6.1873 67.2052 11.8949 88.1511 25.6795 102.0626L 72.7048 117.3221ZM 31.9077 85.1135C 32.9333 81.9626 36.3192 80.2396 39.4702 81.2653L 73.7023 92.408C 76.8533 93.4337 78.5762 96.8195 77.5506 99.9705C 76.6548 102.7224 79.1611 105.2959 81.8061 104.1215C 92.7824 99.2481 101.7253 89.9142 105.7351 77.5954C 113.2352 54.5538 100.6364 29.7949 77.5948 22.2948C 54.5533 14.7947 29.7944 27.3935 22.2943 50.4351C 18.2844 62.7539 20.0196 75.5635 26.024 85.9642C 27.471 88.4706 31.0119 87.8655 31.9077 85.1135Z"></path></g></g></g><g id="g-root-2.g-2_fr_1hapzn6faqw3s-stroke" data-item-order="-570206" transform="translate(317.859375, 321.69140625)"><g id="2.g-2_fr_1hapzn6faqw3s-stroke" fill="none" stroke-linecap="round" stroke-linejoin="round" stroke-miterlimit="4" stroke="#a6da37" stroke-width="2"><g><path d="M 93.6189 37.3045L 92.8116 34.8328C 86.6388 15.9331 66.3135 5.6159 47.4137 11.7887C 28.514 17.9615 18.1968 38.2869 24.3696 57.1866L 25.1769 59.6582C 13.0231 66.5519 6.9845 81.26 11.4906 95.0565C 16.6346 110.8063 33.5724 119.404 49.3222 114.26L 106.3572 95.6318C 122.107 90.4878 130.7046 73.5501 125.5606 57.8003C 121.0546 44.0037 107.4986 35.6953 93.6189 37.3045ZM 20.9964 91.9519C 17.5671 81.452 23.2989 70.1601 33.7987 66.7308C 35.3737 66.2164 36.2335 64.5226 35.7191 62.9476L 33.2353 55.343C 28.6057 41.1682 36.3436 25.9242 50.5184 21.2946C 64.6932 16.6649 79.9372 24.4029 84.5668 38.5777L 87.0506 46.1823C 87.565 47.7573 89.2588 48.6171 90.8337 48.1027C 101.3336 44.6733 112.6254 50.4051 116.0548 60.905C 119.4841 71.4048 113.7524 82.6967 103.2525 86.126L 46.2175 104.7542C 35.7176 108.1835 24.4258 102.4517 20.9964 91.9519Z"></path></g></g></g><g id="g-root-1.g-1_fr_1hapzn6faqw3u-stroke" data-item-order="-570202" transform="translate(201.7138671875, 411.46484375)"><g id="1.g-1_fr_1hapzn6faqw3u-stroke" fill="none" stroke-linecap="round" stroke-linejoin="round" stroke-miterlimit="4" stroke="#43dd93" stroke-width="2"><g><path d="M 20.0794 21.2652C 13.5376 22.327 9.0951 28.4909 10.1568 35.0327L 21.2652 103.4773C 22.327 110.0191 28.4909 114.4616 35.0327 113.3998L 81.8162 105.807L 109.8842 66.8623L 102.2914 20.0794C 101.2297 13.5376 95.0658 9.0951 88.524 10.1568L 20.0794 21.2652ZM 30.7641 95.8011L 21.6808 39.8345C 20.973 35.4733 23.9347 31.364 28.2959 30.6562L 84.2625 21.5729C 88.6238 20.8651 92.733 23.8267 93.4408 28.1879L 98.3572 58.48C 98.867 61.6215 98.1105 64.8335 96.2496 67.4154C 91.0948 74.5677 83.1817 85.547 78.045 92.674C 76.1842 95.2559 73.376 96.99 70.2345 97.4998L 39.9424 102.4162C 35.5812 103.124 31.4719 100.1623 30.7641 95.8011Z"></path></g></g></g><g id="g-root-tx_advancin_1cuwhiqfaqww4-stroke" data-item-order="0" transform="translate(165, 39)"></g><g id="g-root-tx_botplatf_v48y42faqw3l-stroke" data-item-order="0" transform="translate(219, 159)"></g><g id="g-root-tx_biometri_zk2g8ifaqvbb-stroke" data-item-order="0" transform="translate(507.530029296875, 159)"></g><g id="g-root-tx_expanded_v48y42faqw3m-stroke" data-item-order="0" transform="translate(219, 219)"></g><g id="g-root-tx_enhanced_zk2g8ifaqvbc-stroke" data-item-order="0" transform="translate(507.530029296875, 219)"></g><g id="g-root-tx_hardware_m8lxv6faqwwb-stroke" data-item-order="0" transform="translate(15, 339)"></g><g id="g-root-tx_institut_13zvycyfaquj1-stroke" data-item-order="0" transform="translate(711, 351)"></g><g id="g-root-tx_supportf_m8lxv6faqwwc-stroke" data-item-order="0" transform="translate(15, 399)"></g><g id="g-root-tx_features_13zvycyfaquj2-stroke" data-item-order="0" transform="translate(711, 411)"></g><g id="g-root-1_htewtufaquit-stroke" data-item-order="0" transform="translate(411, 567)"><g id="1_htewtufaquit-stroke" fill="none" stroke-linecap="round" stroke-linejoin="round" stroke-miterlimit="4" stroke="#d3d3d3" stroke-width="2"><g><path d="M 19.521999 63.897999L 13 80.5M 22 80.5L 24.679001 65.5M 72.477997 63.897999L 79 80.5M 70 80.5L 67.320999 65.5M 52.995998 47.098L 63.82 55.756001M 28.18 55.756001L 39.000999 47.098M 22.932999 53.554001L 21.49 38.406998M 40.293999 67.335999L 28.921001 62.028999M 63.075996 62.031998L 51.706001 67.335999M 70.500999 38.5L 69.067001 53.538998M 51.547001 19.785999L 66.121002 25.785999M 25.875999 25.785999L 40.456001 19.782999M 17.5 59.5C 17.5 62.813713 20.186291 65.5 23.5 65.5C 26.813709 65.5 29.5 62.813713 29.5 59.5C 29.5 56.186291 26.813709 53.5 23.5 53.5C 20.186291 53.5 17.5 56.186291 17.5 59.5ZM 40 17.5C 40 20.813709 42.686291 23.5 46 23.5C 49.313709 23.5 52 20.813709 52 17.5C 52 14.186292 49.313709 11.5 46 11.5C 42.686291 11.5 40 14.186292 40 17.5ZM 13 31C 13 35.142136 16.357864 38.5 20.5 38.5C 24.642136 38.5 28 35.142136 28 31C 28 26.857864 24.642136 23.5 20.5 23.5C 16.357864 23.5 13 26.857864 13 31ZM 62.5 59.5C 62.5 62.813713 65.186287 65.5 68.5 65.5C 71.813713 65.5 74.5 62.813713 74.5 59.5C 74.5 56.186291 71.813713 53.5 68.5 53.5C 65.186287 53.5 62.5 56.186291 62.5 59.5ZM 64 31C 64 35.142136 67.357864 38.5 71.5 38.5C 75.642136 38.5 79 35.142136 79 31C 79 26.857864 75.642136 23.5 71.5 23.5C 67.357864 23.5 64 26.857864 64 31ZM 37.645 38.157997L 23.5 32.5M 68.5 32.5L 54.348999 38.160999M 46 23.5L 46 32.5M 49.320999 49.863998L 53.5 80.5M 38.5 80.5L 42.679001 49.863998M 37 41.5C 37 46.470566 41.029438 50.5 46 50.5C 50.970566 50.5 55 46.470566 55 41.5C 55 36.529438 50.970566 32.5 46 32.5C 41.029438 32.5 37 36.529438 37 41.5Z"></path></g></g></g><g id="g-root-tx_futureen_1hgc9f6faton4-stroke" data-item-order="0" transform="translate(375, 651)"></g></g></g></svg>