<?xml version="1.0" encoding="utf-8" standalone="yes"?>
<!DOCTYPE svg PUBLIC "-//W3C//DTD SVG 1.1//EN" "http://www.w3.org/Graphics/SVG/1.1/DTD/svg11.dtd">
<svg width="654" height="510" viewBox="0 0 654 510" style="fill:none;stroke:none;fill-rule:evenodd;clip-rule:evenodd;stroke-linecap:round;stroke-linejoin:round;stroke-miterlimit:1.5;" version="1.1" xmlns="http://www.w3.org/2000/svg" xmlns:xlink="http://www.w3.org/1999/xlink"><style class="text-font-style fontImports" data-font-family="Roboto">@import url('https://fonts.googleapis.com/css2?family=Roboto:wght@400;700&amp;display=block');</style><g id="items" style="isolation: isolate"><g id="blend" style="mix-blend-mode: normal"><g id="g-root-3.cu_sy_140hmvcbf26fe-fill" data-item-order="-74579" transform="translate(398.96002197265625, 306.02001953125)"><g id="3.cu_sy_140hmvcbf26fe-fill" stroke="none" fill="url(#gradient-4f83d8-135982273)"><g><path d="M 119.91 154.285C 180.611 154.285 229.819 125.802 229.819 90.6665L 229.819 56.7365C 229.819 62.6115 228.444 68.3005 225.868 73.7015C 213.042 100.6011 170.461 120.355 119.91 120.355C 69.3581 120.355 26.7775 100.6011 13.9511 73.7015C 11.3758 68.3005 10 62.6115 10 56.7365L 10 90.6665C 10 125.802 59.2083 154.285 119.91 154.285ZM 225.868 73.7015C 228.444 68.3005 229.819 62.6115 229.819 56.7365C 229.819 38.2598 216.212 21.6227 194.48 10C 190.421 14.385 185.241 18.3704 179.161 21.8279C 194.773 30.7068 204.456 43.0673 204.456 56.7367C 204.456 62.7011 202.612 68.4162 199.237 73.7017C 187.319 92.3673 156.299 105.6742 119.91 105.6742C 83.5205 105.6742 52.5008 92.3673 40.5821 73.7017C 37.2072 68.4162 35.3638 62.7011 35.3638 56.7367C 35.3638 43.0673 45.0463 30.7068 60.658 21.8279C 54.5788 18.3704 49.3986 14.385 45.3392 10C 23.6079 21.6227 10 38.2598 10 56.7365C 10 62.6115 11.3758 68.3005 13.9511 73.7015C 26.7775 100.6011 69.3581 120.355 119.91 120.355C 170.461 120.355 213.042 100.6011 225.868 73.7015ZM 199.237 73.7017C 202.612 68.4162 204.456 62.7011 204.456 56.7367C 204.456 43.0673 194.773 30.7068 179.161 21.8279C 163.905 30.5045 142.987 35.8565 119.91 35.8565C 96.8321 35.8565 75.914 30.5045 60.658 21.8279C 45.0463 30.7068 35.3638 43.0673 35.3638 56.7367C 35.3638 62.7011 37.2072 68.4162 40.5821 73.7017C 52.5008 55.0361 83.5205 41.7292 119.91 41.7292C 156.299 41.7292 187.319 55.0361 199.237 73.7017Z"></path></g></g></g><g id="g-root-2.cu_sy_zko4qwbf277n-fill" data-item-order="-74575" transform="translate(424.32000732421875, 205.340087890625)"><g id="2.cu_sy_zko4qwbf277n-fill" stroke="none" fill="url(#gradient-40ae79-389135447)"><g><path d="M 94.546 136.53C 141.239 136.53 179.092 114.62 179.092 87.5928L 179.092 53.6628C 179.092 59.6272 177.249 65.3423 173.874 70.6278C 161.955 89.2934 130.935 102.6003 94.546 102.6003C 58.1567 102.6003 27.137 89.2934 15.2183 70.6278C 11.8434 65.3423 10 59.6272 10 53.6628L 10 87.5928C 10 114.62 47.8525 136.53 94.546 136.53ZM 173.874 70.6278C 177.249 65.3423 179.092 59.6272 179.092 53.6628C 179.092 34.5972 160.256 18.078 132.768 10.00001C 122.456 15.054 109.116 18.1015 94.546 18.1015C 79.9759 18.1015 66.6356 15.0539 56.3239 10C 28.8359 18.078 10 34.5972 10 53.6628C 10 59.6272 11.8434 65.3423 15.2183 70.6278C 27.137 89.2934 58.1567 102.6003 94.546 102.6003C 130.935 102.6003 161.955 89.2934 173.874 70.6278ZM 35.3638 53.663C 35.3638 34.7438 61.8605 19.4067 94.546 19.4067C 127.231 19.4067 153.728 34.7438 153.728 53.663C 153.728 59.8353 150.908 65.6264 145.973 70.628C 135.78 80.9571 116.568 87.9193 94.546 87.9193C 72.5241 87.9193 53.3115 80.9571 43.1193 70.628C 38.184 65.6264 35.3638 59.8353 35.3638 53.663ZM 94.546 19.4067C 61.8605 19.4067 35.3638 34.7438 35.3638 53.663C 35.3638 59.8353 38.184 65.6264 43.1193 70.628C 53.3115 60.2989 72.5241 53.3368 94.546 53.3368C 116.568 53.3368 135.78 60.2989 145.973 70.628C 150.908 65.6264 153.728 59.8353 153.728 53.663C 153.728 34.7438 127.231 19.4067 94.546 19.4067Z"></path></g></g></g><g id="g-root-1.cu_sy_zko4qwbf277o-fill" data-item-order="-74571" transform="translate(449.67999267578125, 111)"><defs><linearGradient id="gradient-4f83d8-135982273" x2="0" y2="1"><stop offset="0" stop-color="#4e88e6"></stop><stop offset="1" stop-color="#4f7eca"></stop></linearGradient><linearGradient id="gradient-40ae79-389135447" x2="0" y2="1"><stop offset="0" stop-color="#3bc482"></stop><stop offset="1" stop-color="#449870"></stop></linearGradient><linearGradient id="gradient-87aa3f-469929121" x2="0" y2="1"><stop offset="0" stop-color="#91bb39"></stop><stop offset="1" stop-color="#7d9844"></stop></linearGradient></defs><g id="1.cu_sy_zko4qwbf277o-fill" stroke="none" fill="url(#gradient-87aa3f-469929121)"><g><path d="M 69.1822 112.443C 101.8676 112.443 128.364 97.1055 128.364 78.1863L 128.364 44.2563C 128.364 50.4286 125.544 56.2197 120.609 61.2213C 110.417 71.5504 91.204 78.5125 69.1822 78.5125C 47.1603 78.5125 27.9477 71.5504 17.7555 61.2213C 12.8202 56.2197 10 50.4286 10 44.2563L 10 78.1863C 10 97.1055 36.4968 112.443 69.1822 112.443ZM 120.609 61.2213C 125.544 56.2197 128.364 50.4286 128.364 44.2563C 128.364 25.3371 101.8676 10 69.1822 10C 36.4968 10 10 25.3371 10 44.2563C 10 50.4286 12.8202 56.2197 17.7555 61.2213C 27.9477 71.5504 47.1603 78.5125 69.1822 78.5125C 91.204 78.5125 110.417 71.5504 120.609 61.2213ZM 69.1822 63.8315C 63.0332 63.8315 57.2675 62.8816 52.2992 61.2215C 57.2675 59.5614 63.0332 58.6115 69.1822 58.6115C 75.3311 58.6115 81.0968 59.5614 86.0651 61.2215C 81.0968 62.8816 75.3311 63.8315 69.1822 63.8315Z"></path></g></g></g><g id="g-root-tx_multilay_1q9gkqwbfbz0g-fill" data-item-order="0" transform="translate(176.9600067138672, 39)"><g id="tx_multilay_1q9gkqwbfbz0g-fill" stroke="none" fill="#f4f4f4"><g><text style="font: bold 20px Roboto, sans-serif; white-space: pre;" font-weight="bold" font-size="20px" font-family="Roboto, sans-serif"><tspan x="16.86" y="33.5" dominant-baseline="ideographic">Multi-Layer Security Hierarchy</tspan></text></g></g></g><g id="g-root-tx_usersecu_m9u3gobf25mu-fill" data-item-order="0" transform="translate(170.9600067138672, 111)"><g id="tx_usersecu_m9u3gobf25mu-fill" stroke="none" fill="#f4f4f4"><g><text style="font: bold 20px Roboto, sans-serif; white-space: pre;" font-weight="bold" font-size="20px" font-family="Roboto, sans-serif"><tspan x="19.24" y="33.5" dominant-baseline="ideographic">User Security</tspan></text></g></g></g><g id="g-root-user_1utneh4bf96vi-fill" data-item-order="0" transform="translate(326.96002197265625, 99)"></g><g id="g-root-tx_biometri_qpnll4bf24ul-fill" data-item-order="0" transform="translate(74.99000549316406, 147.239990234375)"><g id="tx_biometri_qpnll4bf24ul-fill" stroke="none" fill="#f4f4f4"><g><text style="font: 15px Roboto, sans-serif; white-space: pre;" font-size="15px" font-family="Roboto, sans-serif"><tspan x="16.99" y="27.5" dominant-baseline="ideographic">Biometric authentication for user </tspan><tspan x="162.42" y="45.5" dominant-baseline="ideographic">verification</tspan></text></g></g></g><g id="g-root-tx_applicat_hu0lc8bf26f4-fill" data-item-order="0" transform="translate(110.96000671386719, 231)"><g id="tx_applicat_hu0lc8bf26f4-fill" stroke="none" fill="#f4f4f4"><g><text style="font: bold 20px Roboto, sans-serif; white-space: pre;" font-weight="bold" font-size="20px" font-family="Roboto, sans-serif"><tspan x="18.92" y="33.5" dominant-baseline="ideographic">Application Security</tspan></text></g></g></g><g id="g-root-yuan_1uonls8bf4ykt-fill" data-item-order="0" transform="translate(326.96002197265625, 219)"></g><g id="g-root-tx_hotwalle_m9u3gobf25mv-fill" data-item-order="0" transform="translate(62.99000549316406, 267.22998046875)"><g id="tx_hotwalle_m9u3gobf25mv-fill" stroke="none" fill="#f4f4f4"><g><text style="font: 15px Roboto, sans-serif; white-space: pre;" font-size="15px" font-family="Roboto, sans-serif"><tspan x="12.77" y="27.5" dominant-baseline="ideographic">Hot wallet convenience with secure </tspan><tspan x="164.97" y="45.5" dominant-baseline="ideographic">transactions</tspan></text></g></g></g><g id="g-root-tx_hardware_8ydl3cbf277u-fill" data-item-order="0" transform="translate(122.96000671386719, 351)"><g id="tx_hardware_8ydl3cbf277u-fill" stroke="none" fill="#f4f4f4"><g><text style="font: bold 20px Roboto, sans-serif; white-space: pre;" font-weight="bold" font-size="20px" font-family="Roboto, sans-serif"><tspan x="22.27" y="33.5" dominant-baseline="ideographic">Hardware Security</tspan></text></g></g></g><g id="g-root-1_8ydl3cbf277v-fill" data-item-order="0" transform="translate(326.96002197265625, 339)"></g><g id="g-root-tx_coldstor_hu0lc8bf26f5-fill" data-item-order="0" transform="translate(14.990005493164062, 387.22998046875)"><g id="tx_coldstor_hu0lc8bf26f5-fill" stroke="none" fill="#f4f4f4"><g><text style="font: 15px Roboto, sans-serif; white-space: pre;" font-size="15px" font-family="Roboto, sans-serif"><tspan x="22.17" y="30.5" dominant-baseline="ideographic">Cold storage for secure key management</tspan></text></g></g></g><g id="g-root-3.cu_sy_140hmvcbf26fe-stroke" data-item-order="-74579" transform="translate(398.96002197265625, 306.02001953125)"><g id="3.cu_sy_140hmvcbf26fe-stroke" fill="none" stroke-linecap="round" stroke-linejoin="round" stroke-miterlimit="4" stroke="#f4f4f4" stroke-width="2"><g><path d="M 119.9097 154.2853C 180.6112 154.2853 229.8195 125.8022 229.8195 90.6665L 229.8195 56.7365C 229.8195 62.6115 228.4437 68.3006 225.8683 73.7015C 213.042 100.6011 170.4613 120.3553 119.9097 120.3553C 69.3581 120.3553 26.7775 100.6011 13.9511 73.7015C 11.3758 68.3006 10 62.6115 10 56.7365L 10 90.6665C 10 125.8022 59.2083 154.2853 119.9097 154.2853ZM 225.8683 73.7015C 228.4437 68.3006 229.8195 62.6115 229.8195 56.7365C 229.8195 38.2598 216.2116 21.6227 194.4803 10C 190.4208 14.385 185.2407 18.3704 179.1615 21.8279C 194.7732 30.7068 204.4557 43.0673 204.4557 56.7367C 204.4557 62.7011 202.6123 68.4162 199.2373 73.7017C 187.3187 92.3673 156.299 105.6742 119.9097 105.6742C 83.5205 105.6742 52.5008 92.3673 40.5821 73.7017C 37.2072 68.4162 35.3638 62.7011 35.3638 56.7367C 35.3638 43.0673 45.0463 30.7068 60.658 21.8279C 54.5788 18.3704 49.3986 14.385 45.3392 10C 23.6079 21.6227 10 38.2598 10 56.7365C 10 62.6115 11.3758 68.3006 13.9511 73.7015C 26.7775 100.6011 69.3581 120.3553 119.9097 120.3553C 170.4613 120.3553 213.042 100.6011 225.8683 73.7015ZM 199.2373 73.7017C 202.6123 68.4162 204.4557 62.7011 204.4557 56.7367C 204.4557 43.0673 194.7732 30.7068 179.1615 21.8279C 163.9055 30.5045 142.9874 35.8565 119.9097 35.8565C 96.8321 35.8565 75.914 30.5045 60.658 21.8279C 45.0463 30.7068 35.3638 43.0673 35.3638 56.7367C 35.3638 62.7011 37.2072 68.4162 40.5821 73.7017C 52.5008 55.0361 83.5205 41.7292 119.9097 41.7292C 156.299 41.7292 187.3187 55.0361 199.2373 73.7017Z"></path></g></g></g><g id="g-root-2.cu_sy_zko4qwbf277n-stroke" data-item-order="-74575" transform="translate(424.32000732421875, 205.340087890625)"><g id="2.cu_sy_zko4qwbf277n-stroke" fill="none" stroke-linecap="round" stroke-linejoin="round" stroke-miterlimit="4" stroke="#f4f4f4" stroke-width="2"><g><path d="M 94.546 136.5303C 141.2394 136.5303 179.0919 114.6202 179.0919 87.5928L 179.0919 53.6628C 179.0919 59.6272 177.2485 65.3423 173.8736 70.6278C 161.9549 89.2934 130.9352 102.6003 94.546 102.6003C 58.1567 102.6003 27.137 89.2934 15.2183 70.6278C 11.8434 65.3423 10 59.6272 10 53.6628L 10 87.5928C 10 114.6202 47.8525 136.5303 94.546 136.5303ZM 173.8736 70.6278C 177.2485 65.3423 179.0919 59.6272 179.0919 53.6628C 179.0919 34.5972 160.256 18.078 132.768 10C 122.4563 15.0539 109.116 18.1015 94.546 18.1015C 79.9759 18.1015 66.6356 15.0539 56.3239 10C 28.8359 18.078 10 34.5972 10 53.6628C 10 59.6272 11.8434 65.3423 15.2183 70.6278C 27.137 89.2934 58.1567 102.6003 94.546 102.6003C 130.9352 102.6003 161.9549 89.2934 173.8736 70.6278ZM 35.3638 53.663C 35.3638 34.7438 61.8605 19.4067 94.546 19.4067C 127.2314 19.4067 153.7281 34.7438 153.7281 53.663C 153.7281 59.8353 150.9079 65.6264 145.9726 70.628C 135.7804 80.9571 116.5678 87.9193 94.546 87.9193C 72.5241 87.9193 53.3115 80.9571 43.1193 70.628C 38.184 65.6264 35.3638 59.8353 35.3638 53.663ZM 94.546 19.4067C 61.8605 19.4067 35.3638 34.7438 35.3638 53.663C 35.3638 59.8353 38.184 65.6264 43.1193 70.628C 53.3115 60.2989 72.5241 53.3368 94.546 53.3368C 116.5678 53.3368 135.7804 60.2989 145.9726 70.628C 150.9079 65.6264 153.7281 59.8353 153.7281 53.663C 153.7281 34.7438 127.2314 19.4067 94.546 19.4067Z"></path></g></g></g><g id="g-root-1.cu_sy_zko4qwbf277o-stroke" data-item-order="-74571" transform="translate(449.67999267578125, 111)"><g id="1.cu_sy_zko4qwbf277o-stroke" fill="none" stroke-linecap="round" stroke-linejoin="round" stroke-miterlimit="4" stroke="#f4f4f4" stroke-width="2"><g><path d="M 69.1822 112.4425C 101.8676 112.4425 128.3643 97.1055 128.3643 78.1863L 128.3643 44.2563C 128.3643 50.4286 125.5441 56.2197 120.6088 61.2213C 110.4166 71.5504 91.204 78.5125 69.1822 78.5125C 47.1603 78.5125 27.9477 71.5504 17.7555 61.2213C 12.8202 56.2197 10 50.4286 10 44.2563L 10 78.1863C 10 97.1055 36.4968 112.4425 69.1822 112.4425ZM 120.6088 61.2213C 125.5441 56.2197 128.3643 50.4286 128.3643 44.2563C 128.3643 25.3371 101.8676 10 69.1822 10C 36.4968 10 10 25.3371 10 44.2563C 10 50.4286 12.8202 56.2197 17.7555 61.2213C 27.9477 71.5504 47.1603 78.5125 69.1822 78.5125C 91.204 78.5125 110.4166 71.5504 120.6088 61.2213ZM 69.1822 63.8315C 63.0332 63.8315 57.2675 62.8816 52.2992 61.2215C 57.2675 59.5614 63.0332 58.6115 69.1822 58.6115C 75.3311 58.6115 81.0968 59.5614 86.0651 61.2215C 81.0968 62.8816 75.3311 63.8315 69.1822 63.8315ZM 52.2992 61.2215C 42.1764 57.839 35.3638 51.5083 35.3638 44.2565C 35.3638 33.4455 50.5048 24.6815 69.1822 24.6815C 87.8595 24.6815 103.0005 33.4455 103.0005 44.2565C 103.0005 51.5083 96.1879 57.839 86.0651 61.2215"></path></g></g></g><g id="g-root-tx_multilay_1q9gkqwbfbz0g-stroke" data-item-order="0" transform="translate(176.9600067138672, 39)"></g><g id="g-root-tx_usersecu_m9u3gobf25mu-stroke" data-item-order="0" transform="translate(170.9600067138672, 111)"></g><g id="g-root-user_1utneh4bf96vi-stroke" data-item-order="0" transform="translate(326.96002197265625, 99)"><g id="user_1utneh4bf96vi-stroke" fill="none" stroke-linecap="round" stroke-linejoin="round" stroke-miterlimit="4" stroke="#f4f4f4" stroke-width="2"><g><path d="M 38.997105 56.995308C 38.997105 52.025242 43.026142 47.996204 47.996204 47.996204C 52.96627 47.996204 56.995308 52.025242 56.995308 56.995308ZM 43.272678 37.721233C 45.907188 40.436459 49.942104 41.248215 53.421661 39.763027M 42.496754 40.496956C 42.496754 43.534218 44.958946 45.996407 47.996204 45.996407C 51.03347 45.996407 53.495659 43.534218 53.495659 40.496956C 53.495659 37.459694 51.03347 34.997505 47.996204 34.997505C 44.958946 34.997505 42.496754 37.459694 42.496754 40.496956ZM 46.996307 28.998102C 47.001869 24.569487 45.368477 20.295452 42.410763 16.999302M 10.9999 32.997704L 10.9999 38.997105C 10.99794 46.234428 15.331167 52.768936 21.998802 55.58345M 37.997204 13.411659C 32.583103 10.285905 25.934811 10.193517 20.435942 13.16762C 14.937074 16.141722 11.375402 21.756243 11.027898 27.998203M 23.998602 18.087193C 27.713806 16.384333 32.040276 16.689577 35.479584 18.897207C 38.918888 21.104837 40.998028 24.911238 40.996906 28.998102L 40.996906 31.849817M 37.941212 46.996307C 34.624573 50.704166 29.363897 51.980858 24.716618 50.205734C 20.069336 48.430607 16.999428 43.971874 16.999302 38.997105L 16.999302 28.998102C 16.995035 26.045834 18.083506 23.196434 20.054996 20.998903M 22.998703 38.997105C 22.998703 42.310482 25.684725 44.996506 28.998102 44.996506C 32.311481 44.996506 34.997505 42.310482 34.997505 38.997105L 34.997505 28.998102C 34.997505 25.684725 32.311481 22.998703 28.998102 22.998703C 25.684725 22.998703 22.998703 25.684725 22.998703 28.998102L 22.998703 34.997505M 28.998102 28.998102L 28.998102 34.997505M 28.998102 38.997105L 28.998102 40.996906M 28.998102 56.995308C 30.705347 56.996719 32.40414 56.755669 34.043602 56.279381"></path></g></g></g><g id="g-root-tx_biometri_qpnll4bf24ul-stroke" data-item-order="0" transform="translate(74.99000549316406, 147.239990234375)"></g><g id="g-root-tx_applicat_hu0lc8bf26f4-stroke" data-item-order="0" transform="translate(110.96000671386719, 231)"></g><g id="g-root-yuan_1uonls8bf4ykt-stroke" data-item-order="0" transform="translate(326.96002197265625, 219)"><g id="yuan_1uonls8bf4ykt-stroke" fill="none" stroke-linecap="round" stroke-linejoin="round" stroke-miterlimit="4" stroke="#f4f4f4" stroke-width="2"><g><path d="M 43.168289 29.250937C 43.623844 28.795424 44.164391 28.43408 44.759529 28.187544C 45.354671 27.941029 45.992405 27.81414 46.636543 27.81414C 47.280678 27.81414 47.918613 27.941029 48.513756 28.187544C 49.108692 28.43408 49.649441 28.795424 50.104996 29.250937M 39.918613 25.054436C 41.699833 23.273315 44.115795 22.272696 46.634743 22.272696C 49.15369 22.272696 51.56945 23.273315 53.35067 25.054436M 36.377968 21.247698C 39.098293 18.527489 42.787926 16.999302 46.634941 16.999302C 50.482155 16.999302 54.171589 18.527489 56.891918 21.247698M 10 10M 38.650341 51.812027L 46.623543 56.463562C 46.969307 56.665142 47.36227 56.771931 47.762432 56.773132C 48.16259 56.77433 48.556152 56.669937 48.903118 56.470562C 49.250282 56.271179 49.538452 55.983807 49.739033 55.63744C 49.939613 55.29108 50.0452 54.898117 50.0452 54.497757L 50.0452 44.006805C 50.0452 43.211487 49.83662 42.429962 49.440464 41.740032C 49.0443 41.050301 48.474358 40.476357 47.787426 40.075195L 39.814224 35.425659C 39.468658 35.22348 39.075695 35.116291 38.675137 35.114693C 38.274776 35.113094 37.881016 35.21748 37.533649 35.416862C 37.186485 35.616444 36.898113 35.904015 36.697735 36.250778C 36.497353 36.597546 36.392166 36.991104 36.392567 37.391464L 36.392567 47.880417C 36.392166 48.675938 36.600346 49.457859 36.996704 50.147591C 37.392864 50.837521 37.963009 51.411465 38.650341 51.812027L 38.650341 51.812027ZM 38.150589 35.159489L 53.699036 35.159489C 54.006207 35.15089 54.311974 35.202682 54.598949 35.312473C 54.886116 35.422264 55.148491 35.587646 55.371468 35.799023C 55.594448 36.010403 55.773628 36.263779 55.898418 36.54475C 56.023205 36.82552 56.091198 37.12809 56.098797 37.435261L 56.098797 52.233784M 45.149891 47.650043C 44.735733 47.650043 44.399967 47.314274 44.399967 46.900116C 44.399967 46.485958 44.735733 46.150192 45.149891 46.150192M 45.149891 47.650043C 45.564049 47.650043 45.899815 47.314274 45.899815 46.900116C 45.899815 46.485958 45.564049 46.150192 45.149891 46.150192M 31.101093 50.995907L 15.102771 50.995907C 14.041996 50.995907 13.024678 50.574551 12.274613 49.824425C 11.524546 49.074299 11.103162 48.056999 11.103162 46.996307L 11.103162 20.998901C 11.103162 19.938148 11.524546 18.92083 12.274613 18.170765C 13.024678 17.420679 14.041996 16.999302 15.102771 16.999302L 33.186085 16.999302M 33.528851 16.999302L 19.102371 16.999302L 21.102171 10.9999L 35.100697 10.9999L 36.100594 13.9996M 10 10M 35.562649 55.605446L 35.100697 56.995308L 21.102171 56.995308L 19.102371 50.995907M 20.781883 25.52433L 20.781883 30.063198C 20.781883 30.659338 20.899292 31.249479 21.127388 31.800224C 21.355486 32.350967 21.689833 32.851318 22.111311 33.272675C 22.532789 33.694233 23.033138 34.028603 23.583843 34.25658C 24.134529 34.484756 24.724751 34.602146 25.32081 34.602146C 25.91687 34.602146 26.507092 34.484756 27.057777 34.25658C 27.608461 34.028603 28.108831 33.694233 28.53031 33.272675C 28.951788 32.851318 29.286114 32.350967 29.514231 31.800224C 29.742331 31.249479 29.859735 30.659338 29.859735 30.063198L 29.859735 25.52433M 25.32123 34.602943L 25.32123 43.394867M 20.781883 39.521053L 29.859735 39.521053"></path></g></g></g><g id="g-root-tx_hotwalle_m9u3gobf25mv-stroke" data-item-order="0" transform="translate(62.99000549316406, 267.22998046875)"></g><g id="g-root-tx_hardware_8ydl3cbf277u-stroke" data-item-order="0" transform="translate(122.96000671386719, 351)"></g><g id="g-root-1_8ydl3cbf277v-stroke" data-item-order="0" transform="translate(326.96002197265625, 339)"><g id="1_8ydl3cbf277v-stroke" fill="none" stroke-linecap="round" stroke-linejoin="round" stroke-miterlimit="4" stroke="#f4f4f4" stroke-width="2"><g><path d="M 47.496258 41.496655L 47.496258 52.695534M 10 10M 45.496456 56.495358L 47.496258 52.695736L 49.296074 56.495358M 10 10M 49.296074 37.697235L 47.496258 41.496857L 45.496456 37.697235M 10 10M 42.496754 44.296574L 52.295776 49.896019M 10 10M 54.695538 53.295479L 52.295776 49.896019L 56.495358 50.095997M 10 10M 40.296974 40.696938L 42.496754 44.296574L 38.497154 43.896618M 10 10M 42.496754 49.896019L 52.295776 44.296574M 10 10M 56.495358 43.896618L 52.295776 44.296574L 54.695538 40.696938M 10 10M 38.497154 50.095997L 42.496754 49.896019L 40.296974 53.295479M 47.496258 30.497953L 47.496258 21.098871L 11.49985 21.098871L 11.49985 45.896416C 11.49985 46.696335 12.29975 47.496258 13.09967 47.496258L 31.497854 47.496258M 11.49985 21.098892C 11.49985 15.69943 19.499052 11.49985 29.498053 11.49985C 39.497055 11.49985 47.496258 15.69943 47.496258 21.098892M 41.496857 34.497555L 41.496857 29.098152C 41.496857 28.698193 41.096897 28.298212 40.696938 28.298212L 18.299152 28.298212C 17.899191 28.298212 17.49925 28.698193 17.49925 29.098152L 17.49925 47.496258M 25.498453 35.497456L 33.497654 35.497456M 25.498453 41.496857L 33.497654 41.496857"></path></g></g></g><g id="g-root-tx_coldstor_hu0lc8bf26f5-stroke" data-item-order="0" transform="translate(14.990005493164062, 387.22998046875)"></g></g></g></svg>