<?xml version="1.0" encoding="utf-8" standalone="yes"?>
<!DOCTYPE svg PUBLIC "-//W3C//DTD SVG 1.1//EN" "http://www.w3.org/Graphics/SVG/1.1/DTD/svg11.dtd">
<svg width="843" height="758" viewBox="0 0 843 758" style="fill:none;stroke:none;fill-rule:evenodd;clip-rule:evenodd;stroke-linecap:round;stroke-linejoin:round;stroke-miterlimit:1.5;" version="1.1" xmlns="http://www.w3.org/2000/svg" xmlns:xlink="http://www.w3.org/1999/xlink"><style class="text-font-style fontImports" data-font-family="Roboto">@import url('https://fonts.googleapis.com/css2?family=Roboto:wght@400;700&amp;display=block');</style><g id="items" style="isolation: isolate"><g id="blend" style="mix-blend-mode: normal"><g id="g-root-0.cu_sy_8dn3c9h7u2r-fill" data-item-order="-456186" transform="translate(15, 291)"><g id="0.cu_sy_8dn3c9h7u2r-fill" stroke="none" fill="#545454"><g><path d="M 250 130C 250 196.274 196.274 250 130 250C 63.7258 250 10 196.274 10 130C 10 63.7258 63.7258 10 130 10C 196.274 10 250 63.7258 250 130Z"></path></g></g></g><g id="g-root-6.cu_sy_1qduotk9h7uoc-fill" data-item-order="-456182" transform="translate(187.3699951171875, 483)"><g id="6.cu_sy_1qduotk9h7uoc-fill" stroke="none" fill="#68403f"><g><path d="M 209.63 130L 53.6393 10C 42.2165 25.2074 27.2648 37.6127 10 46L 209.63 226L 629.63 226L 629.63 130L 209.63 130Z"></path></g></g></g><g id="g-root-5.cu_sy_1lynns89h7sat-fill" data-item-order="-456178" transform="translate(231.010009765625, 447)"><g id="5.cu_sy_1lynns89h7sat-fill" stroke="none" fill="#5c4938"><g><path d="M 165.991 70L 28.4976 10C 24.3791 23.1129 18.0703 35.2558 10 46L 165.991 166L 585.991 166L 585.991 70L 165.991 70Z"></path></g></g></g><g id="g-root-4.cu_sy_1lynns89h7sau-fill" data-item-order="-456174" transform="translate(249.510009765625, 411)"><g id="4.cu_sy_1lynns89h7sau-fill" stroke="none" fill="#54502f"><g><path d="M 10 46L 147.493 106L 567.494 106L 567.494 10L 147.493 10L 15.4936 10C 15.4936 22.5425 13.5694 34.6355 10 46Z"></path></g></g></g><g id="g-root-3.cu_sy_1d30njc9h7t3j-fill" data-item-order="-456170" transform="translate(249.510009765625, 315)"><g id="3.cu_sy_1d30njc9h7t3j-fill" stroke="none" fill="#4b533a"><g><path d="M 10 70C 13.5694 81.3645 15.4936 93.4575 15.4936 106L 147.493 106L 567.494 106L 567.494 10L 147.493 10L 10 70Z"></path></g></g></g><g id="g-root-2.cu_sy_1hiu5ns9h7t34-fill" data-item-order="-456166" transform="translate(231.010009765625, 219)"><g id="2.cu_sy_1hiu5ns9h7t34-fill" stroke="none" fill="#3b5649"><g><path d="M 165.991 10L 10 130C 18.0703 140.744 24.3791 152.887 28.4976 166L 165.991 106L 585.991 106L 585.991 10L 165.991 10Z"></path></g></g></g><g id="g-root-1.cu_sy_18n75ew9h7tvt-fill" data-item-order="-456162" transform="translate(187.3699951171875, 123)"><g id="1.cu_sy_18n75ew9h7tvt-fill" stroke="none" fill="#344e57"><g><path d="M 209.63 10L 10 190C 27.2648 198.387 42.2165 210.793 53.6393 226L 209.63 106L 629.63 106L 629.63 10L 209.63 10Z"></path></g></g></g><g id="g-root-tx_unveilin_18n75ew9h7tvu-fill" data-item-order="0" transform="translate(207, 39)"><g id="tx_unveilin_18n75ew9h7tvu-fill" stroke="none" fill="#f4f4f4"><g><text style="font: 20px Roboto, sans-serif; white-space: pre;" font-size="20px" font-family="Roboto, sans-serif"><tspan x="13.72" y="33.5" dominant-baseline="ideographic">Unveiling the Layers of Hybrid Wallet Security</tspan></text></g></g></g><g id="g-root-cold_8vwh7s9h96v6-fill" data-item-order="0" transform="translate(423, 147)"></g><g id="g-root-tx_coldstor_vcd44o9h7sb0-fill" data-item-order="0" transform="translate(483, 159)"><g id="tx_coldstor_vcd44o9h7sb0-fill" stroke="none" fill="#1ac3fb"><g><text style="font: 20px Roboto, sans-serif; white-space: pre;" font-size="20px" font-family="Roboto, sans-serif"><tspan x="12" y="33.5" dominant-baseline="ideographic">Cold Storage Implementation</tspan></text></g></g></g><g id="g-root-targ_deucrs9halfu-fill" data-item-order="0" transform="translate(423, 243)"></g><g id="g-root-tx_biometri_qwjm089h7t39-fill" data-item-order="0" transform="translate(483, 255)"><g id="tx_biometri_qwjm089h7t39-fill" stroke="none" fill="#43dd93"><g><text style="font: 20px Roboto, sans-serif; white-space: pre;" font-size="20px" font-family="Roboto, sans-serif"><tspan x="12" y="33.5" dominant-baseline="ideographic">Biometric Security</tspan></text></g></g></g><g id="g-root-lock_1q5pn3c9r7eoc-fill" data-item-order="0" transform="translate(423, 339)"></g><g id="g-root-tx_qrcodeba_i0wlrc9h7tvy-fill" data-item-order="0" transform="translate(483, 351)"><g id="tx_qrcodeba_i0wlrc9h7tvy-fill" stroke="none" fill="#a6da37"><g><text style="font: 20px Roboto, sans-serif; white-space: pre;" font-size="20px" font-family="Roboto, sans-serif"><tspan x="12" y="33.5" dominant-baseline="ideographic">QR Code-based Communication</tspan></text></g></g></g><g id="g-root-tx_hybridwa_vcd44o9h7saz-fill" data-item-order="0" transform="translate(69, 375)"><g id="tx_hybridwa_vcd44o9h7saz-fill" stroke="none" fill="#b7b7b7"><g><text style="font: bold 20px Roboto, sans-serif; white-space: pre;" font-weight="bold" font-size="20px" font-family="Roboto, sans-serif"><tspan x="13.34" y="33.5" dominant-baseline="ideographic">Hybrid Wallet </tspan><tspan x="36.41" y="57.5" dominant-baseline="ideographic">Security </tspan><tspan x="21.04" y="81.5" dominant-baseline="ideographic">Innovations</tspan></text></g></g></g><g id="g-root-robo_13ymaso9qurk4-fill" data-item-order="0" transform="translate(423, 435)"></g><g id="g-root-tx_raspberr_i0wlrc9h7tvz-fill" data-item-order="0" transform="translate(483, 447)"><g id="tx_raspberr_i0wlrc9h7tvz-fill" stroke="none" fill="#ffe711"><g><text style="font: 20px Roboto, sans-serif; white-space: pre;" font-size="20px" font-family="Roboto, sans-serif"><tspan x="12" y="33.5" dominant-baseline="ideographic">Raspberry Pi-based Hardware</tspan></text></g></g></g><g id="g-root-paym_18mk27c9r36yq-fill" data-item-order="0" transform="translate(423, 531)"></g><g id="g-root-tx_airgappe_dl33mw9h7uo8-fill" data-item-order="0" transform="translate(483, 543)"><g id="tx_airgappe_dl33mw9h7uo8-fill" stroke="none" fill="#f79438"><g><text style="font: 20px Roboto, sans-serif; white-space: pre;" font-size="20px" font-family="Roboto, sans-serif"><tspan x="12" y="33.5" dominant-baseline="ideographic">Air-gapped Transaction Signing</tspan></text></g></g></g><g id="g-root-woma_1cympt49r4mbv-fill" data-item-order="0" transform="translate(423, 627)"></g><g id="g-root-tx_integrat_dl33mw9h7uo9-fill" data-item-order="0" transform="translate(483, 639)"><g id="tx_integrat_dl33mw9h7uo9-fill" stroke="none" fill="#fb6762"><g><text style="font: 20px Roboto, sans-serif; white-space: pre;" font-size="20px" font-family="Roboto, sans-serif"><tspan x="12" y="33.5" dominant-baseline="ideographic">Integrated Facial Authentication</tspan></text></g></g></g><g id="g-root-0.cu_sy_8dn3c9h7u2r-stroke" data-item-order="-456186" transform="translate(15, 291)"><g id="0.cu_sy_8dn3c9h7u2r-stroke" fill="none" stroke-linecap="round" stroke-linejoin="round" stroke-miterlimit="4" stroke="#b7b7b7" stroke-width="2"><g><path d="M 250 130C 250 196.2742 196.2742 250 130 250C 63.7258 250 10 196.2742 10 130C 10 63.7258 63.7258 10 130 10C 196.2742 10 250 63.7258 250 130Z"></path></g></g></g><g id="g-root-6.cu_sy_1qduotk9h7uoc-stroke" data-item-order="-456182" transform="translate(187.3699951171875, 483)"><g id="6.cu_sy_1qduotk9h7uoc-stroke" fill="none" stroke-linecap="round" stroke-linejoin="round" stroke-miterlimit="4" stroke="#fb6762" stroke-width="2"><g><path d="M 209.6304 130L 53.6393 10C 42.2165 25.2074 27.2648 37.6127 10 46L 209.6304 226L 629.6305 226L 629.6305 130L 209.6304 130Z"></path></g></g></g><g id="g-root-5.cu_sy_1lynns89h7sat-stroke" data-item-order="-456178" transform="translate(231.010009765625, 447)"><g id="5.cu_sy_1lynns89h7sat-stroke" fill="none" stroke-linecap="round" stroke-linejoin="round" stroke-miterlimit="4" stroke="#f79438" stroke-width="2"><g><path d="M 165.9911 70L 28.4976 10C 24.3791 23.1129 18.0703 35.2558 10 46L 165.9911 166L 585.9912 166L 585.9912 70L 165.9911 70Z"></path></g></g></g><g id="g-root-4.cu_sy_1lynns89h7sau-stroke" data-item-order="-456174" transform="translate(249.510009765625, 411)"><g id="4.cu_sy_1lynns89h7sau-stroke" fill="none" stroke-linecap="round" stroke-linejoin="round" stroke-miterlimit="4" stroke="#ffe711" stroke-width="2"><g><path d="M 10 46L 147.4935 106L 567.4937 106L 567.4937 10L 147.4935 10L 15.4936 10C 15.4936 22.5425 13.5694 34.6355 10 46Z"></path></g></g></g><g id="g-root-3.cu_sy_1d30njc9h7t3j-stroke" data-item-order="-456170" transform="translate(249.510009765625, 315)"><g id="3.cu_sy_1d30njc9h7t3j-stroke" fill="none" stroke-linecap="round" stroke-linejoin="round" stroke-miterlimit="4" stroke="#a6da37" stroke-width="2"><g><path d="M 10 70C 13.5694 81.3645 15.4936 93.4575 15.4936 106L 147.4935 106L 567.4937 106L 567.4937 10L 147.4935 10L 10 70Z"></path></g></g></g><g id="g-root-2.cu_sy_1hiu5ns9h7t34-stroke" data-item-order="-456166" transform="translate(231.010009765625, 219)"><g id="2.cu_sy_1hiu5ns9h7t34-stroke" fill="none" stroke-linecap="round" stroke-linejoin="round" stroke-miterlimit="4" stroke="#43dd93" stroke-width="2"><g><path d="M 165.9911 10L 10 130C 18.0703 140.7442 24.3791 152.8871 28.4976 166L 165.9911 106L 585.9912 106L 585.9912 10L 165.9911 10Z"></path></g></g></g><g id="g-root-1.cu_sy_18n75ew9h7tvt-stroke" data-item-order="-456162" transform="translate(187.3699951171875, 123)"><g id="1.cu_sy_18n75ew9h7tvt-stroke" fill="none" stroke-linecap="round" stroke-linejoin="round" stroke-miterlimit="4" stroke="#1ac3fb" stroke-width="2"><g><path d="M 209.6304 10L 10 190C 27.2648 198.3873 42.2165 210.7926 53.6393 226L 209.6304 106L 629.6305 106L 629.6305 10L 209.6304 10Z"></path></g></g></g><g id="g-root-tx_unveilin_18n75ew9h7tvu-stroke" data-item-order="0" transform="translate(207, 39)"></g><g id="g-root-cold_8vwh7s9h96v6-stroke" data-item-order="0" transform="translate(423, 147)"><g id="cold_8vwh7s9h96v6-stroke" fill="none" stroke-linecap="round" stroke-linejoin="round" stroke-miterlimit="4" stroke="#1ac3fb" stroke-width="2"><g><path d="M 44.084 26.268L 44.084 16.812C 44.090446 15.826786 43.518101 14.92951 42.622002 14.52C 37.909054 12.462103 32.814415 11.42341 27.672001 11.472C 22.530243 11.423572 17.436295 12.462263 12.724 14.52C 11.827902 14.92951 11.255556 15.826786 11.262 16.812L 11.262 29.628C 11.261524 37.920059 16.36845 45.355831 24.108002 48.332001L 25.860001 49.006001C 26.550814 49.271851 27.291658 49.382465 28.030001 49.329998M 26.841999 43.27C 20.841352 41.354874 16.747589 35.804585 16.690001 29.506001L 16.690001 18.133999C 20.115181 17.032089 23.69194 16.47398 27.290001 16.48L 28.073999 16.48C 31.672623 16.474777 35.249672 17.035631 38.674004 18.142L 38.674 29.506001M 16.784 31.181999L 34.139999 17.191999M 20.192001 38.830002L 38.655998 23.945999M 40.237999 35.529999L 44.737999 38.529999L 49.237999 35.529999M 44.737999 56.529999L 44.737999 32.529999M 40.237999 53.529999L 44.737999 50.529999L 49.237999 53.529999M 53.737999 40.029999L 50.737999 44.529999L 53.737999 49.029999M 32.737999 44.529999L 56.737999 44.529999M 35.737999 40.029999L 38.737999 44.529999L 35.737999 49.029999"></path></g></g></g><g id="g-root-tx_coldstor_vcd44o9h7sb0-stroke" data-item-order="0" transform="translate(483, 159)"></g><g id="g-root-targ_deucrs9halfu-stroke" data-item-order="0" transform="translate(423, 243)"><g id="targ_deucrs9halfu-stroke" fill="none" stroke-linecap="round" stroke-linejoin="round" stroke-miterlimit="4" stroke="#43dd93" stroke-width="2"><g><path d="M 11.5 20.100121L 11.5 13.50012C 11.5 12.30012 12.3 11.500122 13.5 11.500122L 19.900021 11.500122M 56.5 20.100121L 56.5 13.50012C 56.5 12.30012 55.700001 11.500122 54.5 11.500122L 48.099998 11.500122M 11.5 48.099998L 11.5 54.5C 11.5 55.700001 12.3 56.5 13.5 56.5L 19.900021 56.5M 56.5 48.099998L 56.5 54.5C 56.5 55.700001 55.700001 56.5 54.5 56.5L 48.099998 56.5M 49.099998 23.900021C 49.099998 21.70002 47.299999 19.900021 45.099998 19.900021L 23.099979 19.900021C 20.899979 19.900021 19.099979 21.70002 19.099979 23.900021L 19.099979 35.900002C 19.099979 44.099998 25.899979 50.900002 34.099998 50.900002C 42.299999 50.900002 49.099998 44.099998 49.099998 35.900002L 49.099998 23.900021ZM 19.699959 31.9L 48.700001 31.9M 34.299999 19.900021L 34.299999 49.900002M 39.900002 41.099998C 36.700001 44.299999 31.700001 44.299999 28.5 41.099998"></path></g></g></g><g id="g-root-tx_biometri_qwjm089h7t39-stroke" data-item-order="0" transform="translate(483, 255)"></g><g id="g-root-lock_1q5pn3c9r7eoc-stroke" data-item-order="0" transform="translate(423, 339)"><g id="lock_1q5pn3c9r7eoc-stroke" fill="none" stroke-linecap="round" stroke-linejoin="round" stroke-miterlimit="4" stroke="#a6da37" stroke-width="2"><g><path d="M 11 45.001999L 11 15.002M 15 23.001999L 15 37.001999M 19 21.001999L 19 39.001999M 23 19.001999L 23 41.001999M 27 17.001999L 27 43.001999M 51 28.993999L 51 15.002M 47 23.001999L 47 28.966M 43 21.001999L 43 29.986M 39 19.001999L 39 36.989998M 35 17.001999L 35 43.001999M 31 11.002L 31 49.001999M 41 41.001999L 55 41.001999C 55 41.001999 57 41.001999 57 43.001999L 57 55C 57 55 57 57 55 57L 41 57C 41 57 39 57 39 55L 39 43.001999C 39 43.001999 39 41.001999 41 41.001999M 45.5 49.125999C 45.5 50.506714 46.619289 51.625999 48 51.625999C 49.380711 51.625999 50.5 50.506714 50.5 49.125999C 50.5 47.745289 49.380711 46.625999 48 46.625999C 46.619289 46.625999 45.5 47.745289 45.5 49.125999M 53 38C 53 35.238579 50.761425 33 48 33C 45.238575 33 43 35.238579 43 38L 43 41L 53 41Z"></path></g></g></g><g id="g-root-tx_qrcodeba_i0wlrc9h7tvy-stroke" data-item-order="0" transform="translate(483, 351)"></g><g id="g-root-tx_hybridwa_vcd44o9h7saz-stroke" data-item-order="0" transform="translate(69, 375)"></g><g id="g-root-robo_13ymaso9qurk4-stroke" data-item-order="0" transform="translate(423, 435)"><g id="robo_13ymaso9qurk4-stroke" fill="none" stroke-linecap="round" stroke-linejoin="round" stroke-miterlimit="4" stroke="#ffe711" stroke-width="2"><g><path d="M 22.222 18.226L 45.776001 18.226C 45.776001 18.226 49.776001 18.226 49.776001 22.226L 49.776001 45.779999C 49.776001 45.779999 49.776001 49.779999 45.776001 49.779999L 22.222 49.779999C 22.222 49.779999 18.222 49.779999 18.222 45.779999L 18.222 22.226C 18.222 22.226 18.222 18.226 22.222 18.226M 10 10M 27.90234 12.07032L 27.90234 18.223679M 10 10M 12.07032 40.101601L 18.2229 40.101601M 10 10M 40.097603 12.07032L 40.097603 18.223679M 10 10M 12.07032 27.898439L 18.2229 27.898439M 10 10M 27.90234 49.7812L 27.90234 55.9268M 10 10M 49.777401 40.101601L 55.93 40.101601M 10 10M 40.097603 49.7812L 40.097603 55.9268M 10 10M 49.777401 27.898439L 55.93 27.898439M 29.614 28.726L 38.386002 28.726C 38.386002 28.726 42.386002 28.726 42.386002 32.725998L 42.386002 37.774002C 42.386002 37.774002 42.386002 41.774002 38.386002 41.774002L 29.614 41.774002C 29.614 41.774002 25.614 41.774002 25.614 37.774002L 25.614 32.725998C 25.614 32.725998 25.614 28.726 29.614 28.726M 10 10M 34 23.580219L 34 28.726561M 10 10M 31.25 34.090401L 31.25 36.414001M 10 10M 36.75 34.090401L 36.75 36.414001"></path></g></g></g><g id="g-root-tx_raspberr_i0wlrc9h7tvz-stroke" data-item-order="0" transform="translate(483, 447)"></g><g id="g-root-paym_18mk27c9r36yq-stroke" data-item-order="0" transform="translate(423, 531)"><g id="paym_18mk27c9r36yq-stroke" fill="none" stroke-linecap="round" stroke-linejoin="round" stroke-miterlimit="4" stroke="#f79438" stroke-width="2"><g><path d="M 57.008003 43L 57.008003 55C 57.008003 55 57.008003 57 55.008003 57L 37.008003 57C 37.008003 57 35.008003 57 35.008003 55L 35.008003 43C 35.008003 43 35.008003 41 37.008003 41L 55.008003 41C 55.008003 41 57.008003 41 57.008003 43M 57.007999 47L 35.007999 47M 50.007999 53L 53.007999 53M 45 31L 45 14C 45 12.343145 43.656857 11 42 11L 18 11C 16.343145 11 15 12.343145 15 14L 15 31M 49 36.779999C 48.999928 36.275635 48.828568 35.786247 48.514 35.391998L 45 31L 15 31L 11.493999 35.400002C 10.966737 36.066948 10.866264 36.976288 11.235205 37.742256C 11.604146 38.508224 12.377816 38.996521 13.228 39L 31 39M 29.007999 35L 31.007999 35"></path></g></g></g><g id="g-root-tx_airgappe_dl33mw9h7uo8-stroke" data-item-order="0" transform="translate(483, 543)"></g><g id="g-root-woma_1cympt49r4mbv-stroke" data-item-order="0" transform="translate(423, 627)"><g id="woma_1cympt49r4mbv-stroke" fill="none" stroke-linecap="round" stroke-linejoin="round" stroke-miterlimit="4" stroke="#fb6762" stroke-width="2"><g><path d="M 39 37.669998C 43.01276 38.089867 47.040062 37.022373 50.318001 34.669998C 48.618 32.970001 47.448002 31.902 47 25.302C 46.334 15.46 39.700001 12 34 12C 28.299999 12 21.666 15.46 21 25.298C 20.552 31.898001 19.382 32.966 17.681999 34.666C 20.956921 37.023781 24.988321 38.086662 29 37.650002M 40.306 41.374001C 39.520996 41.083557 38.999886 40.335007 39 39.498001L 39 35.846001C 38.999897 35.284576 39.235771 34.748962 39.650002 34.370003C 41.1595 32.994312 42.013741 31.042282 42 29L 42 24C 38.870712 23.51849 36.02544 21.909491 34 19.476C 31.974558 21.909491 29.129286 23.51849 26 24L 26 29C 25.986263 31.042282 26.840502 32.994312 28.35 34.370003C 28.764229 34.748962 29.000103 35.284576 29 35.846001L 29 39.498001C 29.000113 40.335007 28.479002 41.083557 27.694 41.374001C 20.299999 44.112 14.4 46.066002 13 48.886002C 11.776982 51.42239 11.095842 54.185776 11 57L 57 57C 56.90416 54.185776 56.223019 51.42239 55 48.886002C 53.599998 46.066002 47.700001 44.112 40.306 41.374001ZM 11 33L 11 37C 11 38.104568 11.895431 39 13 39L 17 39M 11 17L 11 13C 11 11.895431 11.895431 11 13 11L 17 11M 57 17L 57 13C 57 11.895431 56.104568 11 55 11L 51 11M 57 33L 57 37C 57 38.104568 56.104568 39 55 39L 51 39"></path></g></g></g><g id="g-root-tx_integrat_dl33mw9h7uo9-stroke" data-item-order="0" transform="translate(483, 639)"></g></g></g></svg>