<?xml version="1.0" encoding="utf-8" standalone="yes"?>
<!DOCTYPE svg PUBLIC "-//W3C//DTD SVG 1.1//EN" "http://www.w3.org/Graphics/SVG/1.1/DTD/svg11.dtd">
<svg width="998" height="368" viewBox="0 0 998 368" style="fill:none;stroke:none;fill-rule:evenodd;clip-rule:evenodd;stroke-linecap:round;stroke-linejoin:round;stroke-miterlimit:1.5;" version="1.1" xmlns="http://www.w3.org/2000/svg" xmlns:xlink="http://www.w3.org/1999/xlink"><style class="text-font-style fontImports" data-font-family="Roboto">@import url('https://fonts.googleapis.com/css2?family=Roboto:wght@400;700&amp;display=block');</style><g id="items" style="isolation: isolate"><g id="blend" style="mix-blend-mode: normal"><g id="g-root-ro_8xrdi0ciz402-fill" data-item-order="-33408" transform="translate(399, 135)"><g id="ro_8xrdi0ciz402-fill" stroke="none" fill="#545454"><g><path d="M 34 10L 178 10C 178 10 202 10 202 34L 202 160C 202 160 202 184 178 184L 34 184C 34 184 10 184 10 160L 10 34C 10 34 10 10 34 10"></path></g></g></g><g id="g-root-ro_1qbccnscj0idk-fill" data-item-order="-17496" transform="translate(639, 123)"><g id="ro_1qbccnscj0idk-fill" stroke="none" fill="#60436d"><g><path d="M 22 10L 322 10C 322 10 334 10 334 22L 334 52C 334 52 334 64 322 64L 22 64C 22 64 10 64 10 52L 10 22C 10 22 10 10 22 10"></path></g></g></g><g id="g-root-ro_7493scj0jy9-fill" data-item-order="-15552" transform="translate(63, 123)"><g id="ro_7493scj0jy9-fill" stroke="none" fill="#54502f"><g><path d="M 22 10L 286 10C 286 10 298 10 298 22L 298 52C 298 52 298 64 286 64L 22 64C 22 64 10 64 10 52L 10 22C 10 22 10 10 22 10"></path></g></g></g><g id="g-root-tx_desktops_zp1t08cj0idq-fill" data-item-order="0" transform="translate(687, 261)"><g id="tx_desktops_zp1t08cj0idq-fill" stroke="none" fill="#f4f4f4"><g><text style="font: 20px Roboto, sans-serif; white-space: pre;" font-size="20px" font-family="Roboto, sans-serif"><tspan x="13.64" y="33.5" dominant-baseline="ideographic">Desktop Support</tspan></text></g></g></g><g id="g-root-cu_1d1r9jscj0jr6-fill" data-item-order="0" transform="translate(663, 177)"></g><g id="g-root-cu_1d1r9jscj0jr8-fill" data-item-order="0" transform="translate(663, 177)"></g><g id="g-root-cu_1qclau0cj0kju-fill" data-item-order="0" transform="translate(351, 150)"></g><g id="g-root-tx_errorred_1lviujccj0j5u-fill" data-item-order="0" transform="translate(159, 225)"><g id="tx_errorred_1lviujccj0j5u-fill" stroke="none" fill="#f4f4f4"><g><text style="font: 20px Roboto, sans-serif; white-space: pre;" font-size="20px" font-family="Roboto, sans-serif"><tspan x="13.28" y="33.5" dominant-baseline="ideographic">Error Reduction</tspan></text></g></g></g><g id="g-root-cu_1qclau0cj0kjx-fill" data-item-order="0" transform="translate(591, 150)"></g><g id="g-root-tx_enhancin_1d1r9jscj0jra-fill" data-item-order="0" transform="translate(243, 39)"><g id="tx_enhancin_1d1r9jscj0jra-fill" stroke="none" fill="#f4f4f4"><g><text style="font: 25px Roboto, sans-serif; white-space: pre;" font-size="25px" font-family="Roboto, sans-serif"><tspan x="15.44" y="42.5" dominant-baseline="ideographic">Enhancing User Experience in Hybrid Wallet</tspan></text></g></g></g><g id="g-root-cu_1hhkro8cj0iyv-fill" data-item-order="0" transform="translate(663, 177)"></g><g id="g-root-tx_mobileap_18k2c60cj0kqt-fill" data-item-order="0" transform="translate(687, 225)"><g id="tx_mobileap_18k2c60cj0kqt-fill" stroke="none" fill="#f4f4f4"><g><text style="font: 20px Roboto, sans-serif; white-space: pre;" font-size="20px" font-family="Roboto, sans-serif"><tspan x="11.92" y="33.5" dominant-baseline="ideographic">Mobile Applications</tspan></text></g></g></g><g id="g-root-tx_stepbyst_1qbccnscj0idl-fill" data-item-order="0" transform="translate(15, 189)"><g id="tx_stepbyst_1qbccnscj0idl-fill" stroke="none" fill="#f4f4f4"><g><text style="font: 20px Roboto, sans-serif; white-space: pre;" font-size="20px" font-family="Roboto, sans-serif"><tspan x="14.3" y="33.5" dominant-baseline="ideographic">Step-by-Step Audio Instructions</tspan></text></g></g></g><g id="g-root-cu_1lwrspkcj0lc8-fill" data-item-order="0" transform="translate(309, 177)"></g><g id="g-root-cu_1hhkro8cj0iyr-fill" data-item-order="0" transform="translate(309, 177)"></g><g id="g-root-cu_1hhkro8cj0iyt-fill" data-item-order="0" transform="translate(309, 177)"></g><g id="g-root-tx_accessib_1lviujccj0j5v-fill" data-item-order="0" transform="translate(51, 261)"><g id="tx_accessib_1lviujccj0j5v-fill" stroke="none" fill="#f4f4f4"><g><text style="font: 20px Roboto, sans-serif; white-space: pre;" font-size="20px" font-family="Roboto, sans-serif"><tspan x="16.48" y="33.5" dominant-baseline="ideographic">Accessibility Enhancement</tspan></text></g></g></g><g id="g-root-tx_webappli_1czvuagcj0jyk-fill" data-item-order="0" transform="translate(687, 189)"><g id="tx_webappli_1czvuagcj0jyk-fill" stroke="none" fill="#f4f4f4"><g><text style="font: 20px Roboto, sans-serif; white-space: pre;" font-size="20px" font-family="Roboto, sans-serif"><tspan x="15.66" y="33.5" dominant-baseline="ideographic">Web Application</tspan></text></g></g></g><g id="g-root-work_4mxr88cj0j60-fill" data-item-order="1000000000" transform="translate(309, 135)"></g><g id="g-root-tx_voicegui_92r9cocj0idr-fill" data-item-order="1000000000" transform="translate(75, 138)"><g id="tx_voicegui_92r9cocj0idr-fill" stroke="none" fill="#ffe711"><g><text style="font: 20px Roboto, sans-serif; white-space: pre;" font-size="20px" font-family="Roboto, sans-serif"><tspan x="11.85" y="33.5" dominant-baseline="ideographic">Voice-Guided Procedures</tspan></text></g></g></g><g id="g-root-desi_1uqjdp4cj0kr3-fill" data-item-order="1000000000" transform="translate(651, 135)"></g><g id="g-root-tx_crosspla_4l2bywcj0k5i-fill" data-item-order="1000000000" transform="translate(687, 138)"><g id="tx_crosspla_4l2bywcj0k5i-fill" stroke="none" fill="#cb68f9"><g><text style="font: 20px Roboto, sans-serif; white-space: pre;" font-size="20px" font-family="Roboto, sans-serif"><tspan x="13.49" y="33.5" dominant-baseline="ideographic">Cross-Platform Compatibility</tspan></text></g></g></g><g id="g-root-sett_dcyejcciz6dl-fill" data-item-order="1000000000" transform="translate(471, 159)"></g><g id="g-root-tx_userexpe_qoewwociz4so-fill" data-item-order="1000000000" transform="translate(423, 213)"><g id="tx_userexpe_qoewwociz4so-fill" stroke="none" fill="#b7b7b7"><g><text style="font: 20px Roboto, sans-serif; white-space: pre;" font-size="20px" font-family="Roboto, sans-serif"><tspan x="61.66" y="33.5" dominant-baseline="ideographic">User </tspan><tspan x="33.25" y="57.5" dominant-baseline="ideographic">Experience </tspan><tspan x="15.76" y="81.5" dominant-baseline="ideographic">Enhancements</tspan></text></g></g></g><g id="g-root-ro_8xrdi0ciz402-stroke" data-item-order="-33408" transform="translate(399, 135)"><g id="ro_8xrdi0ciz402-stroke" fill="none" stroke-linecap="round" stroke-linejoin="round" stroke-miterlimit="4" stroke="#f4f4f4" stroke-width="2"><g><path d="M 34 10L 178 10C 178 10 202 10 202 34L 202 160C 202 160 202 184 178 184L 34 184C 34 184 10 184 10 160L 10 34C 10 34 10 10 34 10"></path></g></g></g><g id="g-root-ro_1qbccnscj0idk-stroke" data-item-order="-17496" transform="translate(639, 123)"><g id="ro_1qbccnscj0idk-stroke" fill="none" stroke-linecap="round" stroke-linejoin="round" stroke-miterlimit="4" stroke="#cb68f9" stroke-width="2"><g><path d="M 22 10L 322 10C 322 10 334 10 334 22L 334 52C 334 52 334 64 322 64L 22 64C 22 64 10 64 10 52L 10 22C 10 22 10 10 22 10"></path></g></g></g><g id="g-root-ro_7493scj0jy9-stroke" data-item-order="-15552" transform="translate(63, 123)"><g id="ro_7493scj0jy9-stroke" fill="none" stroke-linecap="round" stroke-linejoin="round" stroke-miterlimit="4" stroke="#ffe711" stroke-width="2"><g><path d="M 22 10L 286 10C 286 10 298 10 298 22L 298 52C 298 52 298 64 286 64L 22 64C 22 64 10 64 10 52L 10 22C 10 22 10 10 22 10"></path></g></g></g><g id="g-root-tx_desktops_zp1t08cj0idq-stroke" data-item-order="0" transform="translate(687, 261)"></g><g id="g-root-cu_1d1r9jscj0jr6-stroke" data-item-order="0" transform="translate(663, 177)"><g id="cu_1d1r9jscj0jr6-stroke" fill="none" stroke-linecap="round" stroke-linejoin="round" stroke-miterlimit="4" stroke="#b7b7b7" stroke-width="2" stroke-dasharray="5.0, 7.0"><g><path d="M 10 10L 10 40L 10 70L 19 70L 28 70"></path></g></g></g><g id="g-root-cu_1d1r9jscj0jr8-stroke" data-item-order="0" transform="translate(663, 177)"><g id="cu_1d1r9jscj0jr8-stroke" fill="none" stroke-linecap="round" stroke-linejoin="round" stroke-miterlimit="4" stroke="#b7b7b7" stroke-width="2" stroke-dasharray="5.0, 7.0"><g><path d="M 10 10L 10 22L 10 94C 10.000004 100.627423 15.372587 106.000006 22.000005 106.000005L 22.1 106L 28 106"></path></g></g></g><g id="g-root-cu_1qclau0cj0kju-stroke" data-item-order="0" transform="translate(351, 150)"><g id="cu_1qclau0cj0kju-stroke" fill="none" stroke-linecap="round" stroke-linejoin="round" stroke-miterlimit="4" stroke="#b7b7b7" stroke-width="2" stroke-dasharray="5.0, 7.0"><g><path d="M 58 53L 55 53L 54.9 53C 43.357252 53.000001 34.000002 43.642752 34.000002 32.1L 34 32L 34 30.9C 33.999998 19.357248 24.64275 10 13.1 10L 13 10L 10 10"></path></g></g></g><g id="g-root-tx_errorred_1lviujccj0j5u-stroke" data-item-order="0" transform="translate(159, 225)"></g><g id="g-root-cu_1qclau0cj0kjx-stroke" data-item-order="0" transform="translate(591, 150)"><g id="cu_1qclau0cj0kjx-stroke" fill="none" stroke-linecap="round" stroke-linejoin="round" stroke-miterlimit="4" stroke="#b7b7b7" stroke-width="2" stroke-dasharray="5.0, 7.0"><g><path d="M 10 53L 13 53L 13.1 53C 24.642753 52.999998 34.000001 43.642749 34 32.099998L 34 32L 34 30.9C 33.999999 19.357249 43.357248 10.000001 54.899999 10.000002L 55 10L 58 10"></path></g></g></g><g id="g-root-tx_enhancin_1d1r9jscj0jra-stroke" data-item-order="0" transform="translate(243, 39)"></g><g id="g-root-cu_1hhkro8cj0iyv-stroke" data-item-order="0" transform="translate(663, 177)"><g id="cu_1hhkro8cj0iyv-stroke" fill="none" stroke-linecap="round" stroke-linejoin="round" stroke-miterlimit="4" stroke="#b7b7b7" stroke-width="2" stroke-dasharray="5.0, 7.0"><g><path d="M 10 10L 10 22L 10 34L 19 34L 28 34"></path></g></g></g><g id="g-root-tx_mobileap_18k2c60cj0kqt-stroke" data-item-order="0" transform="translate(687, 225)"></g><g id="g-root-tx_stepbyst_1qbccnscj0idl-stroke" data-item-order="0" transform="translate(15, 189)"></g><g id="g-root-cu_1lwrspkcj0lc8-stroke" data-item-order="0" transform="translate(309, 177)"><g id="cu_1lwrspkcj0lc8-stroke" fill="none" stroke-linecap="round" stroke-linejoin="round" stroke-miterlimit="4" stroke="#b7b7b7" stroke-width="2" stroke-dasharray="5.0, 7.0"><g><path d="M 28 10L 28 22L 28 34L 19 34L 10 34"></path></g></g></g><g id="g-root-cu_1hhkro8cj0iyr-stroke" data-item-order="0" transform="translate(309, 177)"><g id="cu_1hhkro8cj0iyr-stroke" fill="none" stroke-linecap="round" stroke-linejoin="round" stroke-miterlimit="4" stroke="#b7b7b7" stroke-width="2" stroke-dasharray="5.0, 7.0"><g><path d="M 28 10L 28 40L 28 70L 19 70L 10 70"></path></g></g></g><g id="g-root-cu_1hhkro8cj0iyt-stroke" data-item-order="0" transform="translate(309, 177)"><g id="cu_1hhkro8cj0iyt-stroke" fill="none" stroke-linecap="round" stroke-linejoin="round" stroke-miterlimit="4" stroke="#b7b7b7" stroke-width="2" stroke-dasharray="5.0, 7.0"><g><path d="M 28 10L 28 22L 28 94C 28.000002 100.627415 22.627419 105.999998 16.000002 105.999998L 15.9 106L 10 106"></path></g></g></g><g id="g-root-tx_accessib_1lviujccj0j5v-stroke" data-item-order="0" transform="translate(51, 261)"></g><g id="g-root-tx_webappli_1czvuagcj0jyk-stroke" data-item-order="0" transform="translate(687, 189)"></g><g id="g-root-work_4mxr88cj0j60-stroke" data-item-order="1000000000" transform="translate(309, 135)"><g id="work_4mxr88cj0j60-stroke" fill="none" stroke-linecap="round" stroke-linejoin="round" stroke-miterlimit="4" stroke="#ffe711" stroke-width="2"><g><path d="M 20.6875 15.687637C 20.0625 15.562637 19.4375 15.437625 18.8125 15.437625C 14.4375 15.437625 10.9375 18.937613 10.9375 23.312624M 10.9375 33.5625C 10.9375 36.5625 13.4375 39.0625 16.4375 39.0625C 19.4375 39.0625 21.9375 36.5625 21.9375 33.5625C 21.9375 31.9375 22.6875 30.3125 23.9375 29.3125C 24.1875 29.0625 24.5625 28.8125 24.8125 28.4375M 31.5625 25.9375C 35.704624 25.9375 39.0625 22.579624 39.0625 18.4375C 39.0625 14.295362 35.704624 10.9375 31.5625 10.9375C 27.420376 10.9375 24.0625 14.295362 24.0625 18.4375C 24.0625 22.579624 27.420376 25.9375 31.5625 25.9375ZM 10 10M 34.9375 16.187437L 31.3125 21.062475C 31.091375 21.287113 30.9375 21.43745 30.6875 21.43745C 30.4375 21.43745 30.146875 21.39205 29.9375 21.187437L 28.0625 19.312437M 16.026138 35.095875C 17.451038 35.095875 18.672375 33.874626 18.672375 32.449623C 18.672375 31.02475 17.552813 29.803501 16.026138 29.803501C 15.51725 29.803501 14.656987 29.960751 14.249875 30.266125L 14.249875 24.554251C 14.249875 22.304213 15.999875 20.554201 18.249874 20.554201C 19.010075 20.554201 19.7132 20.768238 20.311037 21.133636"></path></g></g></g><g id="g-root-tx_voicegui_92r9cocj0idr-stroke" data-item-order="1000000000" transform="translate(75, 138)"></g><g id="g-root-desi_1uqjdp4cj0kr3-stroke" data-item-order="1000000000" transform="translate(651, 135)"><g id="desi_1uqjdp4cj0kr3-stroke" fill="none" stroke-linecap="round" stroke-linejoin="round" stroke-miterlimit="4" stroke="#cb68f9" stroke-width="2"><g><path d="M 20.625 34.375L 29.375 34.375M 25 31.875L 25 34.375M 14.375 28.125L 29.375 28.125M 11.875 10.625L 16.875 10.625C 16.875 10.625 18.125 10.625 18.125 11.875L 18.125 20.625C 18.125 20.625 18.125 21.875 16.875 21.875L 11.875 21.875C 11.875 21.875 10.625 21.875 10.625 20.625L 10.625 11.875C 10.625 11.875 10.625 10.625 11.875 10.625M 33.125 28.125L 38.125 28.125C 38.125 28.125 39.375 28.125 39.375 29.375L 39.375 38.125C 39.375 38.125 39.375 39.375 38.125 39.375L 33.125 39.375C 33.125 39.375 31.875 39.375 31.875 38.125L 31.875 29.375C 31.875 29.375 31.875 28.125 33.125 28.125M 31.875 36.875L 39.375 36.875M 20.625 16.875L 33.75 16.875C 34.785534 16.875 35.625 17.714466 35.625 18.75L 35.625 25.625M 29.375 31.875L 16.25 31.875C 15.214466 31.875 14.375 31.035536 14.375 30L 14.375 24.375"></path></g></g></g><g id="g-root-tx_crosspla_4l2bywcj0k5i-stroke" data-item-order="1000000000" transform="translate(687, 138)"></g><g id="g-root-sett_dcyejcciz6dl-stroke" data-item-order="1000000000" transform="translate(471, 159)"><g id="sett_dcyejcciz6dl-stroke" fill="none" stroke-linecap="round" stroke-linejoin="round" stroke-miterlimit="4" stroke="#b7b7b7" stroke-width="2"><g><path d="M 42.625999 44.063999C 42.626003 45.651268 43.912735 46.938004 45.5 46.938004C 47.087269 46.938004 48.374001 45.651268 48.374001 44.064003C 48.374001 42.476734 47.087269 41.190002 45.5 41.190002C 43.912735 41.190002 42.626003 42.476734 42.626003 44.064003ZM 10 10M 47.942001 32.942001L 48.790001 35.725998C 49.079254 36.684647 50.062237 37.254845 51.038002 37.029999L 53.862 36.375999C 54.959873 36.12854 56.09087 36.625343 56.65136 37.601265C 57.211845 38.577183 57.071003 39.804428 56.304001 40.627998L 54.327999 42.757999C 53.651917 43.492813 53.651917 44.623184 54.327999 45.357998L 56.304001 47.487999C 57.071003 48.311573 57.211845 49.538818 56.65136 50.514736C 56.09087 51.490654 54.959873 51.987461 53.862 51.740002L 51.037998 51.085999C 50.062634 50.867977 49.084904 51.442032 48.799999 52.400002L 47.952 55.183998C 47.627914 56.261845 46.635513 56.999741 45.509998 56.999741C 44.384487 56.999741 43.392086 56.261845 43.068001 55.183998L 42.209999 52.400002C 41.920746 51.441357 40.937763 50.871155 39.961998 51.096001L 37.138 51.75C 36.040127 51.997459 34.90913 51.500656 34.34864 50.524734C 33.788155 49.548817 33.928997 48.321571 34.695999 47.498001L 36.672001 45.368C 37.348076 44.633183 37.348076 43.502815 36.671997 42.767998L 34.695999 40.638C 33.928997 39.81443 33.788155 38.587181 34.34864 37.611263C 34.90913 36.635345 36.040127 36.138542 37.138 36.386002L 39.961998 37.040001C 40.937763 37.264847 41.920746 36.694645 42.209999 35.736L 43.057999 32.952C 43.379871 31.873486 44.370766 31.133551 45.496281 31.131245C 46.621799 31.128941 47.615715 31.864813 47.942001 32.942001ZM 31 43L 11 43C 11.026983 40.715012 11.502659 38.457588 12.4 36.356003C 13.38 34.393997 17.478001 33.034 22.622 31.129999C 24.012001 30.614 23.784 26.983999 23.167999 26.306C 21.180573 24.156961 20.205471 21.261486 20.487999 18.348C 20.309784 16.494543 20.909979 14.650401 22.144955 13.256882C 23.379929 11.863361 25.138561 11.045857 27 11C 28.861441 11.045857 30.620071 11.863361 31.855047 13.256882C 33.090023 14.650401 33.690216 16.494543 33.512001 18.348C 33.796669 21.2603 32.824532 24.155613 30.84 26.306C 30.224001 26.983999 29.996 30.614 31.386 31.129999C 32.293999 31.466 33.167999 31.784 34 32.094002"></path></g></g></g><g id="g-root-tx_userexpe_qoewwociz4so-stroke" data-item-order="1000000000" transform="translate(423, 213)"></g></g></g></svg>