<?xml version="1.0" encoding="utf-8" standalone="yes"?>
<!DOCTYPE svg PUBLIC "-//W3C//DTD SVG 1.1//EN" "http://www.w3.org/Graphics/SVG/1.1/DTD/svg11.dtd">
<svg width="758" height="458" viewBox="0 0 758 458" style="fill:none;stroke:none;fill-rule:evenodd;clip-rule:evenodd;stroke-linecap:round;stroke-linejoin:round;stroke-miterlimit:1.5;" version="1.1" xmlns="http://www.w3.org/2000/svg" xmlns:xlink="http://www.w3.org/1999/xlink"><style class="text-font-style fontImports" data-font-family="Roboto">@import url('https://fonts.googleapis.com/css2?family=Roboto:wght@400;700&amp;display=block');</style><g id="items" style="isolation: isolate"><g id="blend" style="mix-blend-mode: normal"><g id="g-root--1.cu_sy_v9uotkav8m4t-fill" data-item-order="-110586" transform="translate(303, 111)"><g id="-1.cu_sy_v9uotkav8m4t-fill" stroke="none" fill="#545454"><g><path d="M 65.766602 298C 80.754802 298 106.000002 233.529 106.000002 154C 106.000002 74.471 80.754802 10 65.766602 10C 80.775202 10.0075 92.941702 74.6668 92.941702 154C 92.941702 233.333 80.775202 297.992 65.766602 298ZM 65.765897 298C 80.774597 297.992 92.941097 233.333 92.941097 154C 92.941097 74.6668 80.774597 10.0075 65.765897 10L 51.957397 10C 66.060697 15.1659 77.199297 77.8539 77.199297 154C 77.199297 230.146 65.382597 292.834 51.279297 298L 65.765897 298ZM 77.2 154C 77.2 230.146 65.3833 292.834 51.28 298L 50.0615 298C 35.0734 298 10 233.529 10 154C 10 74.471 35.0734 10 50.0615 10C 50.6991 10 51.9581 10 51.9581 10C 66.0614 15.1659 77.2 77.8539 77.2 154Z"></path></g></g></g><g id="g-root-0.cr-medium_cr_v9uotkav8m4u-fill" data-item-order="-110582" transform="translate(471, 219)"><g id="0.cr-medium_cr_v9uotkav8m4u-fill" stroke="none" fill="#545454"><g><path d="M 10 46C 10 65.882251 26.117749 82 46 82C 65.882251 82 82 65.882251 82 46C 82 26.117749 65.882251 10 46 10C 26.117749 10 10 26.117749 10 46"></path></g></g></g><g id="g-root-3.line_sy_qu16p4av8mx3-fill" data-item-order="-110575" transform="translate(219.10940551757812, 279)"></g><g id="g-root-3.cr-small_cr_qu16p4av8mx4-fill" data-item-order="-110574" transform="translate(159, 309)"><g id="3.cr-small_cr_qu16p4av8mx4-fill" stroke="none" fill="#3b5649"><g><path d="M 10 40C 10.000002 56.568544 23.431459 70.000002 40.000002 70.000002C 56.568544 70.000002 70.000002 56.568544 70.000002 40.000002C 70.000002 23.431459 56.568544 10.000002 40.000002 10.000002C 23.431459 10.000002 10.000002 23.431459 10.000002 40.000002"></path></g></g></g><g id="g-root-2.line_sy_qu16p4av8mx5-fill" data-item-order="-110567" transform="translate(219, 255)"></g><g id="g-root-2.cr-small_cr_meu5nsav8kjm-fill" data-item-order="-110566" transform="translate(159, 225)"><g id="2.cr-small_cr_meu5nsav8kjm-fill" stroke="none" fill="#4b533a"><g><path d="M 10 40C 10.000002 56.568544 23.431459 70.000002 40.000002 70.000002C 56.568544 70.000002 70.000002 56.568544 70.000002 40.000002C 70.000002 23.431459 56.568544 10.000002 40.000002 10.000002C 23.431459 10.000002 10.000002 23.431459 10.000002 40.000002"></path></g></g></g><g id="g-root-1.line_sy_meu5nsav8kjn-fill" data-item-order="-110559" transform="translate(219, 171)"></g><g id="g-root-1.cr-small_cr_meu5nsav8kjo-fill" data-item-order="-110558" transform="translate(159, 141)"><g id="1.cr-small_cr_meu5nsav8kjo-fill" stroke="none" fill="#344e57"><g><path d="M 10 40C 10.000002 56.568544 23.431459 70.000002 40.000002 70.000002C 56.568544 70.000002 70.000002 56.568544 70.000002 40.000002C 70.000002 23.431459 56.568544 10.000002 40.000002 10.000002C 23.431459 10.000002 10.000002 23.431459 10.000002 40.000002"></path></g></g></g><g id="g-root-tx_unifiedb_1um6hwoauvyto-fill" data-item-order="0" transform="translate(213, 27)"><g id="tx_unifiedb_1um6hwoauvyto-fill" stroke="none" fill="#f4f4f4"><g><text style="font: bold 25px Roboto, sans-serif; white-space: pre;" font-weight="bold" font-size="25px" font-family="Roboto, sans-serif"><tspan x="15.09" y="42.5" dominant-baseline="ideographic">Unified Bot Integration</tspan></text></g></g></g><g id="g-root-tx_telegram_m7czl4auvz0p-fill" data-item-order="0" transform="translate(15, 147)"><g id="tx_telegram_m7czl4auvz0p-fill" stroke="none" fill="#f4f4f4"><g><text style="font: 20px Roboto, sans-serif; white-space: pre;" font-size="20px" font-family="Roboto, sans-serif"><tspan x="21.55" y="33.5" dominant-baseline="ideographic">Telegram Bot </tspan><tspan x="69.42" y="57.5" dominant-baseline="ideographic">Support</tspan></text></g></g></g><g id="g-root-1_ddl548auytca-fill" data-item-order="0" transform="translate(171, 153)"></g><g id="g-root-tx_automate_qn6hpkauvy8f-fill" data-item-order="0" transform="translate(39, 231)"><g id="tx_automate_qn6hpkauvy8f-fill" stroke="none" fill="#f4f4f4"><g><text style="font: 20px Roboto, sans-serif; white-space: pre;" font-size="20px" font-family="Roboto, sans-serif"><tspan x="17.43" y="33.5" dominant-baseline="ideographic">Automated </tspan><tspan x="63.35" y="57.5" dominant-baseline="ideographic">Alerts</tspan></text></g></g></g><g id="g-root-1_v4v5m0auyqz0-fill" data-item-order="0" transform="translate(171, 237)"></g><g id="g-root-purs_dj75ewav8lcd-fill" data-item-order="0" transform="translate(483, 231)"></g><g id="g-root-tx_enhanced_1d3n4mgauukg1-fill" data-item-order="0" transform="translate(555, 231)"><g id="tx_enhanced_1d3n4mgauukg1-fill" stroke="none" fill="#f4f4f4"><g><text style="font: 20px Roboto, sans-serif; white-space: pre;" font-size="20px" font-family="Roboto, sans-serif"><tspan x="12" y="33.5" dominant-baseline="ideographic">Enhanced Wallet </tspan><tspan x="12" y="57.5" dominant-baseline="ideographic">Functionality</tspan></text></g></g></g><g id="g-root-tx_secureco_zithygauvxfo-fill" data-item-order="0" transform="translate(39, 303)"><g id="tx_secureco_zithygauvxfo-fill" stroke="none" fill="#f4f4f4"><g><text style="font: 20px Roboto, sans-serif; white-space: pre;" font-size="20px" font-family="Roboto, sans-serif"><tspan x="54.83" y="33.5" dominant-baseline="ideographic">Secure </tspan><tspan x="23.29" y="57.5" dominant-baseline="ideographic">Command </tspan><tspan x="36.53" y="81.5" dominant-baseline="ideographic">Interface</tspan></text></g></g></g><g id="g-root-comp_1cwrn6wauul1p-fill" data-item-order="0" transform="translate(171, 321)"></g><g id="g-root--1.cu_sy_v9uotkav8m4t-stroke" data-item-order="-110586" transform="translate(303, 111)"><g id="-1.cu_sy_v9uotkav8m4t-stroke" fill="none" stroke-linecap="round" stroke-linejoin="round" stroke-miterlimit="4" stroke="#b7b7b7" stroke-width="2"><g><path d="M 65.766602 298C 80.754802 298 106.000002 233.529 106.000002 154C 106.000002 74.471 80.754802 10 65.766602 10C 80.775202 10.0075 92.941702 74.6668 92.941702 154C 92.941702 233.3332 80.775202 297.9925 65.766602 298ZM 65.765897 298C 80.774597 297.9925 92.941097 233.3332 92.941097 154C 92.941097 74.6668 80.774597 10.0075 65.765897 10L 51.957397 10C 66.060697 15.1659 77.199297 77.8539 77.199297 154C 77.199297 230.1462 65.382597 292.8341 51.279297 298L 65.765897 298ZM 77.2 154C 77.2 230.1462 65.3833 292.8341 51.28 298L 50.0615 298C 35.0734 298 10 233.529 10 154C 10 74.471 35.0734 10 50.0615 10C 50.6991 10 51.9581 10 51.9581 10C 66.0614 15.1659 77.2 77.8539 77.2 154Z"></path></g></g></g><g id="g-root-0.cr-medium_cr_v9uotkav8m4u-stroke" data-item-order="-110582" transform="translate(471, 219)"><g id="0.cr-medium_cr_v9uotkav8m4u-stroke" fill="none" stroke-linecap="round" stroke-linejoin="round" stroke-miterlimit="4" stroke="#b7b7b7" stroke-width="2"><g><path d="M 10 46C 10 65.882251 26.117749 82 46 82C 65.882251 82 82 65.882251 82 46C 82 26.117749 65.882251 10 46 10C 26.117749 10 10 26.117749 10 46"></path></g></g></g><g id="g-root-3.line_sy_qu16p4av8mx3-stroke" data-item-order="-110575" transform="translate(219.10940551757812, 279)"><g id="3.line_sy_qu16p4av8mx3-stroke" fill="none" stroke-linecap="round" stroke-linejoin="round" stroke-miterlimit="4" stroke="#43dd93" stroke-width="2"><g><path d="M 254.08058 10.859863L 129.89058 69.999863L 10.00058 69.999863"></path><path d="M 251.50058 19.259863L 254.50058 10.659863L 245.90058 7.559863" stroke-dasharray="none"></path></g></g></g><g id="g-root-3.cr-small_cr_qu16p4av8mx4-stroke" data-item-order="-110574" transform="translate(159, 309)"><g id="3.cr-small_cr_qu16p4av8mx4-stroke" fill="none" stroke-linecap="round" stroke-linejoin="round" stroke-miterlimit="4" stroke="#43dd93" stroke-width="2"><g><path d="M 10 40C 10.000002 56.568544 23.431459 70.000002 40.000002 70.000002C 56.568544 70.000002 70.000002 56.568544 70.000002 40.000002C 70.000002 23.431459 56.568544 10.000002 40.000002 10.000002C 23.431459 10.000002 10.000002 23.431459 10.000002 40.000002"></path></g></g></g><g id="g-root-2.line_sy_qu16p4av8mx5-stroke" data-item-order="-110567" transform="translate(219, 255)"><g id="2.line_sy_qu16p4av8mx5-stroke" fill="none" stroke-linecap="round" stroke-linejoin="round" stroke-miterlimit="4" stroke="#a6da37" stroke-width="2"><g><path d="M 248 10L 130 10L 10 10"></path><path d="M 242 16.5L 248.5 10L 242 3.5" stroke-dasharray="none"></path></g></g></g><g id="g-root-2.cr-small_cr_meu5nsav8kjm-stroke" data-item-order="-110566" transform="translate(159, 225)"><g id="2.cr-small_cr_meu5nsav8kjm-stroke" fill="none" stroke-linecap="round" stroke-linejoin="round" stroke-miterlimit="4" stroke="#a6da37" stroke-width="2"><g><path d="M 10 40C 10.000002 56.568544 23.431459 70.000002 40.000002 70.000002C 56.568544 70.000002 70.000002 56.568544 70.000002 40.000002C 70.000002 23.431459 56.568544 10.000002 40.000002 10.000002C 23.431459 10.000002 10.000002 23.431459 10.000002 40.000002"></path></g></g></g><g id="g-root-1.line_sy_meu5nsav8kjn-stroke" data-item-order="-110559" transform="translate(219, 171)"><g id="1.line_sy_meu5nsav8kjn-stroke" fill="none" stroke-linecap="round" stroke-linejoin="round" stroke-miterlimit="4" stroke="#1ac3fb" stroke-width="2"><g><path d="M 254.19 69.14L 130 10L 10 10"></path><path d="M 246 72.4L 254.6 69.4L 251.6 60.7" stroke-dasharray="none"></path></g></g></g><g id="g-root-1.cr-small_cr_meu5nsav8kjo-stroke" data-item-order="-110558" transform="translate(159, 141)"><g id="1.cr-small_cr_meu5nsav8kjo-stroke" fill="none" stroke-linecap="round" stroke-linejoin="round" stroke-miterlimit="4" stroke="#1ac3fb" stroke-width="2"><g><path d="M 10 40C 10.000002 56.568544 23.431459 70.000002 40.000002 70.000002C 56.568544 70.000002 70.000002 56.568544 70.000002 40.000002C 70.000002 23.431459 56.568544 10.000002 40.000002 10.000002C 23.431459 10.000002 10.000002 23.431459 10.000002 40.000002"></path></g></g></g><g id="g-root-tx_unifiedb_1um6hwoauvyto-stroke" data-item-order="0" transform="translate(213, 27)"></g><g id="g-root-tx_telegram_m7czl4auvz0p-stroke" data-item-order="0" transform="translate(15, 147)"></g><g id="g-root-1_ddl548auytca-stroke" data-item-order="0" transform="translate(171, 153)"><g id="1_ddl548auytca-stroke" fill="none" stroke-linecap="round" stroke-linejoin="round" stroke-miterlimit="4" stroke="#1ac3fb" stroke-width="2"><g><path d="M 34 18.25C 34 17.00736 35.007362 16 36.25 16C 37.492641 16 38.5 17.00736 38.5 18.25C 38.5 19.492641 37.492641 20.5 36.25 20.5M 36.25 22.75C 36.457108 22.75 36.625 22.917892 36.625 23.125C 36.625 23.332108 36.457108 23.5 36.25 23.5C 36.042892 23.5 35.875 23.332108 35.875 23.125C 35.875 22.917892 36.042892 22.75 36.25 22.75M 26.299 44.973999C 22.698999 41.363503 23.9755 38.5495 25.93 36.5965L 27.191502 35.334999C 28.447414 34.079147 30.483587 34.079147 31.7395 35.335003L 37.199501 40.795002C 37.644405 41.240406 37.836765 41.878975 37.71191 42.496014C 37.587055 43.113052 37.161568 43.626602 36.578499 43.863998C 29.588257 46.720963 21.56633 45.105659 16.226585 39.765915C 10.886842 34.42617 9.271537 26.404243 12.1285 19.414C 12.3659 18.830935 12.87945 18.405447 13.496488 18.280592C 14.113525 18.155735 14.752095 18.348097 15.1975 18.793001L 20.6605 24.25C 21.916351 25.505913 21.916351 27.542088 20.6605 28.798L 19.399 30.0595C 17.448999 32.009499 14.632 33.290501 11.0215 29.6905M 36.149502 10.75C 32.847298 10.746207 29.802864 12.533841 28.197241 15.419413C 26.591618 18.304985 26.677471 21.834412 28.421501 24.6385L 25.75 30.25L 31.3615 27.577C 34.641697 29.610451 38.848022 29.352551 41.855232 26.933601C 44.862442 24.514652 46.015785 20.461321 44.73254 16.821556C 43.449295 13.18179 40.00885 10.748056 36.149502 10.75Z"></path></g></g></g><g id="g-root-tx_automate_qn6hpkauvy8f-stroke" data-item-order="0" transform="translate(39, 231)"></g><g id="g-root-1_v4v5m0auyqz0-stroke" data-item-order="0" transform="translate(171, 237)"><g id="1_v4v5m0auyqz0-stroke" fill="none" stroke-linecap="round" stroke-linejoin="round" stroke-miterlimit="4" stroke="#a6da37" stroke-width="2"><g><path d="M 25.428572 44.071426L 30.571428 44.071426M 38.285713 24.785713C 38.285713 19.10507 33.680641 14.5 28 14.5C 22.319357 14.5 17.714285 19.10507 17.714285 24.785713L 17.714285 33.785713C 17.714285 35.915955 15.987385 37.642857 13.857142 37.642857L 42.142857 37.642857C 40.012619 37.642857 38.285713 35.915955 38.285713 33.785713ZM 11.285714 24.451427C 11.288527 19.485865 13.681091 14.82515 17.714285 11.928572M 44.714287 24.451427C 44.711475 19.485865 42.318909 14.82515 38.285713 11.928572"></path></g></g></g><g id="g-root-purs_dj75ewav8lcd-stroke" data-item-order="0" transform="translate(483, 231)"><g id="purs_dj75ewav8lcd-stroke" fill="none" stroke-linecap="round" stroke-linejoin="round" stroke-miterlimit="4" stroke="#b7b7b7" stroke-width="2"><g><path d="M 56.285713 51.142857C 56.285713 38.834801 46.308064 28.857145 34 28.857145C 21.69194 28.857145 11.714287 38.834801 11.714287 51.142857C 11.714286 53.983181 14.016822 56.285713 16.857143 56.285713L 51.142857 56.285713C 53.983181 56.285713 56.285713 53.983181 56.285713 51.142857ZM 40.857143 13.428572C 40.857143 17.215666 37.787094 20.285715 34 20.285715C 30.212906 20.285715 27.142857 17.215666 27.142857 13.428572M 12.194285 29.337143C 24.241636 17.304775 43.758366 17.304775 55.805714 29.337143"></path></g></g></g><g id="g-root-tx_enhanced_1d3n4mgauukg1-stroke" data-item-order="0" transform="translate(555, 231)"></g><g id="g-root-tx_secureco_zithygauvxfo-stroke" data-item-order="0" transform="translate(39, 303)"></g><g id="g-root-comp_1cwrn6wauul1p-stroke" data-item-order="0" transform="translate(171, 321)"><g id="comp_1cwrn6wauul1p-stroke" fill="none" stroke-linecap="round" stroke-linejoin="round" stroke-miterlimit="4" stroke="#43dd93" stroke-width="2"><g><path d="M 30.571428 20.285713L 43.42857 20.285713C 44.200001 20.285713 44.714287 20.799999 44.714287 21.571428L 44.714287 29.285713C 44.714287 30.057142 44.200001 30.571428 43.42857 30.571428L 30.571428 30.571428C 29.799999 30.571428 29.285713 30.057142 29.285713 29.285713L 29.285713 21.571428C 29.285713 20.799999 29.799999 20.285713 30.571428 20.285713ZM 31.857143 20.285713L 31.857143 16.428572C 31.857143 13.599999 34.171429 11.285714 37 11.285714C 39.828571 11.285714 42.142857 13.599999 42.142857 16.428572L 42.142857 20.285713M 37 37C 37 37.771427 36.485714 38.285713 35.714287 38.285713L 12.571428 38.285713C 11.8 38.285713 11.285714 37.771427 11.285714 37L 11.285714 20.285713C 11.285714 19.514286 11.8 19 12.571428 19L 22.857143 19M 24.142857 38.285713L 24.142857 44.714287M 19 44.714287L 29.285713 44.714287M 16.685715 28.514284C 16.685715 28.798319 16.915968 29.028572 17.199999 29.028572C 17.484032 29.028572 17.714285 28.798319 17.714285 28.514286C 17.714285 28.230253 17.484032 28 17.199999 28C 16.915968 28 16.685715 28.230253 16.685715 28.514286M 22.857143 28.514284C 22.857143 28.798319 23.087397 29.028572 23.371429 29.028572C 23.65546 29.028572 23.885714 28.798319 23.885714 28.514286C 23.885714 28.230253 23.65546 28 23.371429 28C 23.087397 28 22.857143 28.230253 22.857143 28.514286"></path></g></g></g></g></g></svg>