<?xml version="1.0" encoding="utf-8" standalone="yes"?>
<!DOCTYPE svg PUBLIC "-//W3C//DTD SVG 1.1//EN" "http://www.w3.org/Graphics/SVG/1.1/DTD/svg11.dtd">
<svg width="614" height="644" viewBox="0 0 614 644" style="fill:none;stroke:none;fill-rule:evenodd;clip-rule:evenodd;stroke-linecap:round;stroke-linejoin:round;stroke-miterlimit:1.5;" version="1.1" xmlns="http://www.w3.org/2000/svg" xmlns:xlink="http://www.w3.org/1999/xlink"><style class="text-font-style fontImports" data-font-family="Roboto">@import url('https://fonts.googleapis.com/css2?family=Roboto:wght@400;700&amp;display=block');</style><g id="items" style="isolation: isolate"><g id="blend" style="mix-blend-mode: normal"><g id="g-root--1.fill_fr_4hbnw2dwyia2-fill" data-item-order="-307942" transform="translate(27, 39)"><g id="-1.fill_fr_4hbnw2dwyia2-fill" stroke="none" fill="#ababab"><g><path d="M 10 10L 130 10L 130 556L 10 556L 10 10Z"></path></g></g></g><g id="g-root-1.g-1_fr_1i5rmdwyj2c-fill" data-item-order="-307916" transform="translate(163.0050048828125, 93)"><g id="1.g-1_fr_1i5rmdwyj2c-fill" stroke="none" fill="#4f91fc"><g><path d="M 48.795105 9.999998C 63.820105 9.999999 76.000005 22.070098 76.000005 36.959698L 76.000005 37.040298C 76.000005 51.929898 63.820105 63.999998 48.795105 63.999998C 28.890305 63.999998 10.000005 36.999998 10.000005 36.999998C 10.000005 36.999998 28.890305 9.999997 48.795105 9.999998Z"></path></g></g></g><g id="g-root-2.g-2_fr_1i5rmdwyj2e-fill" data-item-order="-307898" transform="translate(163.0050048828125, 189)"><g id="2.g-2_fr_1i5rmdwyj2e-fill" stroke="none" fill="#1ac3fb"><g><path d="M 48.795105 9.999998C 63.820105 9.999999 76.000005 22.070098 76.000005 36.959698L 76.000005 37.040298C 76.000005 51.929898 63.820105 63.999998 48.795105 63.999998C 28.890305 63.999998 10.000005 36.999998 10.000005 36.999998C 10.000005 36.999998 28.890305 9.999997 48.795105 9.999998Z"></path></g></g></g><g id="g-root-3.g-3_fr_1umspmadwyjnk-fill" data-item-order="-307880" transform="translate(163.0050048828125, 285)"><g id="3.g-3_fr_1umspmadwyjnk-fill" stroke="none" fill="#43dd93"><g><path d="M 48.795105 9.999998C 63.820105 9.999999 76.000005 22.070098 76.000005 36.959698L 76.000005 37.040298C 76.000005 51.929898 63.820105 63.999998 48.795105 63.999998C 28.890305 63.999998 10.000005 36.999998 10.000005 36.999998C 10.000005 36.999998 28.890305 9.999997 48.795105 9.999998Z"></path></g></g></g><g id="g-root-4.g-4_fr_1umspmadwyjnm-fill" data-item-order="-307862" transform="translate(163.0050048828125, 381)"><g id="4.g-4_fr_1umspmadwyjnm-fill" stroke="none" fill="#a6da37"><g><path d="M 48.795105 9.999998C 63.820105 9.999999 76.000005 22.070098 76.000005 36.959698L 76.000005 37.040298C 76.000005 51.929898 63.820105 63.999998 48.795105 63.999998C 28.890305 63.999998 10.000005 36.999998 10.000005 36.999998C 10.000005 36.999998 28.890305 9.999997 48.795105 9.999998Z"></path></g></g></g><g id="g-root-5.g-5_fr_1lrs6gidwyhak-fill" data-item-order="-307842" transform="translate(163.0050048828125, 477)"><g id="5.g-5_fr_1lrs6gidwyhak-fill" stroke="none" fill="#b7b7b7"><g><path d="M 48.795105 9.999998C 63.820105 9.999999 76.000005 22.070098 76.000005 36.959698L 76.000005 37.040298C 76.000005 51.929898 63.820105 63.999998 48.795105 63.999998C 28.890305 63.999998 10.000005 36.999998 10.000005 36.999998C 10.000005 36.999998 28.890305 9.999997 48.795105 9.999998Z"></path></g></g></g><g id="g-root-tx_a2minute_1cw567mdwyiv4-fill" data-item-order="0" transform="translate(267, 147)"><g id="tx_a2minute_1cw567mdwyiv4-fill" stroke="none" fill="#ebf2ff"><g><text style="font: 15px Roboto, sans-serif; white-space: pre;" font-size="15px" font-family="Roboto, sans-serif"><tspan x="12" y="30.5" dominant-baseline="ideographic">A 2-minute window for security operations</tspan></text></g></g></g><g id="g-root-poin_mgpuiadwyivj-fill" data-item-order="0" transform="translate(181, 198)"></g><g id="g-root-tx_qrcodege_1hitwaadwyi31-fill" data-item-order="0" transform="translate(267, 207)"><g id="tx_qrcodege_1hitwaadwyi31-fill" stroke="none" fill="#e5f8ff"><g><text style="font: bold 20px Roboto, sans-serif; white-space: pre;" font-weight="bold" font-size="20px" font-family="Roboto, sans-serif"><tspan x="12" y="33.5" dominant-baseline="ideographic">QR Code Generation</tspan></text></g></g></g><g id="g-root-tx_qrcodeco_18n6w1edwyjnk-fill" data-item-order="0" transform="translate(267, 243)"><g id="tx_qrcodeco_18n6w1edwyjnk-fill" stroke="none" fill="#e5f8ff"><g><text style="font: 15px Roboto, sans-serif; white-space: pre;" font-size="15px" font-family="Roboto, sans-serif"><tspan x="12" y="30.5" dominant-baseline="ideographic">QR code containing key data is created</tspan></text></g></g></g><g id="g-root-tx_initials_1hbyoc2dwyi2v-fill" data-item-order="0" transform="translate(267, 111)"><g id="tx_initials_1hbyoc2dwyi2v-fill" stroke="none" fill="#ebf2ff"><g><text style="font: bold 20px Roboto, sans-serif; white-space: pre;" font-weight="bold" font-size="20px" font-family="Roboto, sans-serif"><tspan x="12" y="33.5" dominant-baseline="ideographic">Initial Security Window</tspan></text></g></g></g><g id="g-root-code_4l2ieqdx1btb-fill" data-item-order="0" transform="translate(181, 294)"></g><g id="g-root-tx_hardware_1ltnlpudx1bsw-fill" data-item-order="0" transform="translate(267, 303)"><g id="tx_hardware_1ltnlpudx1bsw-fill" stroke="none" fill="#dffff0"><g><text style="font: bold 20px Roboto, sans-serif; white-space: pre;" font-weight="bold" font-size="20px" font-family="Roboto, sans-serif"><tspan x="12" y="33.5" dominant-baseline="ideographic">Hardware Scanning</tspan></text></g></g></g><g id="g-root-tx_qrcodeis_v7d22adx1bt2-fill" data-item-order="0" transform="translate(267, 339)"><g id="tx_qrcodeis_v7d22adx1bt2-fill" stroke="none" fill="#dffff0"><g><text style="font: 15px Roboto, sans-serif; white-space: pre;" font-size="15px" font-family="Roboto, sans-serif"><tspan x="12" y="30.5" dominant-baseline="ideographic">QR code is scanned by hardware</tspan></text></g></g></g><g id="g-root-tx_systemlo_1cyn2k2dx445j-fill" data-item-order="0" transform="translate(267, 531)"><g id="tx_systemlo_1cyn2k2dx445j-fill" stroke="none" fill="#f4f4f4"><g><text style="font: 15px Roboto, sans-serif; white-space: pre;" font-size="15px" font-family="Roboto, sans-serif"><tspan x="12" y="30.5" dominant-baseline="ideographic">System locks down after the time window</tspan></text></g></g></g><g id="g-root-lock_1qegwj6dx2qyv-fill" data-item-order="0" transform="translate(181, 390)"></g><g id="g-root-tx_securest_qvaegidx2pl8-fill" data-item-order="0" transform="translate(267, 399)"><g id="tx_securest_qvaegidx2pl8-fill" stroke="none" fill="#f2ffd7"><g><text style="font: bold 20px Roboto, sans-serif; white-space: pre;" font-weight="bold" font-size="20px" font-family="Roboto, sans-serif"><tspan x="12" y="33.5" dominant-baseline="ideographic">Secure Storage</tspan></text></g></g></g><g id="g-root-tx_dataisse_hzne7mdx2r5s-fill" data-item-order="0" transform="translate(267, 435)"><g id="tx_dataisse_hzne7mdx2r5s-fill" stroke="none" fill="#f2ffd7"><g><text style="font: 15px Roboto, sans-serif; white-space: pre;" font-size="15px" font-family="Roboto, sans-serif"><tspan x="12" y="30.5" dominant-baseline="ideographic">Data is securely stored in the system</tspan></text></g></g></g><g id="g-root-tx_hybridwa_1hbyoc2dwyi2u-fill" data-item-order="0" transform="translate(159, 39)"><g id="tx_hybridwa_1hbyoc2dwyi2u-fill" stroke="none" fill="#f4f4f4"><g><text style="font: bold 20px Roboto, sans-serif; white-space: pre;" font-weight="bold" font-size="20px" font-family="Roboto, sans-serif"><tspan x="75.27" y="33.5" dominant-baseline="ideographic">Hybrid Wallet Security Process</tspan></text></g></g></g><g id="g-root-1_mcciwidx445q-fill" data-item-order="0" transform="translate(181, 486)"></g><g id="g-root-tx_automati_1q9h3uadx45qb-fill" data-item-order="0" transform="translate(267, 495)"><g id="tx_automati_1q9h3uadx45qb-fill" stroke="none" fill="#f4f4f4"><g><text style="font: bold 20px Roboto, sans-serif; white-space: pre;" font-weight="bold" font-size="20px" font-family="Roboto, sans-serif"><tspan x="12" y="33.5" dominant-baseline="ideographic">Automatic Lockdown</tspan></text></g></g></g><g id="g-root-time_1cw567mdwyiv5-fill" data-item-order="0" transform="translate(181, 102)"></g><g id="g-root--1.fill_fr_4hbnw2dwyia2-stroke" data-item-order="-307942" transform="translate(27, 39)"><g id="-1.fill_fr_4hbnw2dwyia2-stroke" fill="none" stroke-linecap="round" stroke-linejoin="round" stroke-miterlimit="4" stroke="#2c2c2c" stroke-width="2" stroke-dasharray="5.0, 7.0"><g><path d="M 70 556L 70 10M 130 556L 130 10M 10 556L 10 10"></path></g></g></g><g id="g-root-1.g-1_fr_1i5rmdwyj2c-stroke" data-item-order="-307916" transform="translate(163.0050048828125, 93)"><g id="1.g-1_fr_1i5rmdwyj2c-stroke" fill="none" stroke-linecap="round" stroke-linejoin="round" stroke-miterlimit="4" stroke="#2c2c2c" stroke-width="2"><g><path d="M 48.795105 9.999998C 63.820105 9.999999 76.000005 22.070098 76.000005 36.959698L 76.000005 37.040298C 76.000005 51.929898 63.820105 63.999998 48.795105 63.999998C 28.890305 63.999998 10.000005 36.999998 10.000005 36.999998C 10.000005 36.999998 28.890305 9.999997 48.795105 9.999998Z"></path></g></g></g><g id="g-root-2.g-2_fr_1i5rmdwyj2e-stroke" data-item-order="-307898" transform="translate(163.0050048828125, 189)"><g id="2.g-2_fr_1i5rmdwyj2e-stroke" fill="none" stroke-linecap="round" stroke-linejoin="round" stroke-miterlimit="4" stroke="#2c2c2c" stroke-width="2"><g><path d="M 48.795105 9.999998C 63.820105 9.999999 76.000005 22.070098 76.000005 36.959698L 76.000005 37.040298C 76.000005 51.929898 63.820105 63.999998 48.795105 63.999998C 28.890305 63.999998 10.000005 36.999998 10.000005 36.999998C 10.000005 36.999998 28.890305 9.999997 48.795105 9.999998Z"></path></g></g></g><g id="g-root-3.g-3_fr_1umspmadwyjnk-stroke" data-item-order="-307880" transform="translate(163.0050048828125, 285)"><g id="3.g-3_fr_1umspmadwyjnk-stroke" fill="none" stroke-linecap="round" stroke-linejoin="round" stroke-miterlimit="4" stroke="#2c2c2c" stroke-width="2"><g><path d="M 48.795105 9.999998C 63.820105 9.999999 76.000005 22.070098 76.000005 36.959698L 76.000005 37.040298C 76.000005 51.929898 63.820105 63.999998 48.795105 63.999998C 28.890305 63.999998 10.000005 36.999998 10.000005 36.999998C 10.000005 36.999998 28.890305 9.999997 48.795105 9.999998Z"></path></g></g></g><g id="g-root-4.g-4_fr_1umspmadwyjnm-stroke" data-item-order="-307862" transform="translate(163.0050048828125, 381)"><g id="4.g-4_fr_1umspmadwyjnm-stroke" fill="none" stroke-linecap="round" stroke-linejoin="round" stroke-miterlimit="4" stroke="#2c2c2c" stroke-width="2"><g><path d="M 48.795105 9.999998C 63.820105 9.999999 76.000005 22.070098 76.000005 36.959698L 76.000005 37.040298C 76.000005 51.929898 63.820105 63.999998 48.795105 63.999998C 28.890305 63.999998 10.000005 36.999998 10.000005 36.999998C 10.000005 36.999998 28.890305 9.999997 48.795105 9.999998Z"></path></g></g></g><g id="g-root-5.g-5_fr_1lrs6gidwyhak-stroke" data-item-order="-307842" transform="translate(163.0050048828125, 477)"><g id="5.g-5_fr_1lrs6gidwyhak-stroke" fill="none" stroke-linecap="round" stroke-linejoin="round" stroke-miterlimit="4" stroke="#2c2c2c" stroke-width="2"><g><path d="M 48.795105 9.999998C 63.820105 9.999999 76.000005 22.070098 76.000005 36.959698L 76.000005 37.040298C 76.000005 51.929898 63.820105 63.999998 48.795105 63.999998C 28.890305 63.999998 10.000005 36.999998 10.000005 36.999998C 10.000005 36.999998 28.890305 9.999997 48.795105 9.999998Z"></path></g></g></g><g id="g-root-tx_a2minute_1cw567mdwyiv4-stroke" data-item-order="0" transform="translate(267, 147)"></g><g id="g-root-poin_mgpuiadwyivj-stroke" data-item-order="0" transform="translate(181, 198)"><g id="poin_mgpuiadwyivj-stroke" fill="none" stroke-linecap="round" stroke-linejoin="round" stroke-miterlimit="4" stroke="#2c2c2c" stroke-width="2"><g><path d="M 17.755863 41.347599L 40.239452 41.347599M 17.755863 14.65234L 40.239452 14.65234M 10 10M 14.777835 17.47657L 14.777835 38.507351M 10 10M 43.222137 17.47657L 43.222137 38.507351M 14.780084 17.474499C 16.426947 17.474865 17.762199 16.210186 17.762199 14.65C 17.762199 13.089813 16.426947 11.825134 14.780084 11.8255C 13.13322 11.825134 11.797968 13.089813 11.797968 14.65C 11.797968 16.210186 13.13322 17.474865 14.780084 17.474499M 43.224667 17.474499C 44.871532 17.474865 46.206783 16.210186 46.206783 14.65C 46.206783 13.089813 44.871532 11.825134 43.224667 11.8255C 41.577801 11.825134 40.24255 13.089813 40.24255 14.65C 40.24255 16.210186 41.577801 17.474865 43.224667 17.474499M 14.7785 44.171501C 16.425364 44.171867 17.760616 42.907185 17.760616 41.347C 17.760616 39.786812 16.425364 38.522133 14.7785 38.522499C 13.131636 38.522133 11.796385 39.786812 11.796385 41.347C 11.796385 42.907185 13.131636 44.171867 14.7785 44.171501M 43.223083 44.171501C 44.869949 44.171867 46.2052 42.907185 46.2052 41.347C 46.2052 39.786812 44.869949 38.522133 43.223083 38.522499C 41.576218 38.522133 40.240967 39.786812 40.240967 41.347C 40.240967 42.907185 41.576218 44.171867 43.223083 44.171501M 26.590166 20.417965L 22.298668 25.435301L 37.276402 25.435301M 10 10M 31.409834 35.570351L 35.701302 30.552999L 20.723553 30.552999"></path></g></g></g><g id="g-root-tx_qrcodege_1hitwaadwyi31-stroke" data-item-order="0" transform="translate(267, 207)"></g><g id="g-root-tx_qrcodeco_18n6w1edwyjnk-stroke" data-item-order="0" transform="translate(267, 243)"></g><g id="g-root-tx_initials_1hbyoc2dwyi2v-stroke" data-item-order="0" transform="translate(267, 111)"></g><g id="g-root-code_4l2ieqdx1btb-stroke" data-item-order="0" transform="translate(181, 294)"><g id="code_4l2ieqdx1btb-stroke" fill="none" stroke-linecap="round" stroke-linejoin="round" stroke-miterlimit="4" stroke="#2c2c2c" stroke-width="2"><g><path d="M 18.708334 10.75L 39.291668 10.75L 39.291668 45.25L 18.708334 45.25ZM 39.291668 16.75L 18.708334 16.75M 39.291668 39.25L 18.708334 39.25M 25.041668 13.75L 32.958332 13.75M 29 41.875L 29 41.875C 29.218613 41.875 29.395834 42.042892 29.395834 42.25L 29.395834 42.25C 29.395834 42.457108 29.218613 42.625 29 42.625L 29 42.625C 28.781387 42.625 28.604168 42.457108 28.604168 42.25L 28.604168 42.25C 28.604168 42.042892 28.781387 41.875 29 41.875M 21.868668 21.25L 25.035334 21.25L 25.035334 24.25L 21.868668 24.25ZM 21.868668 31.75L 25.035334 31.75L 25.035334 34.75L 21.868668 34.75ZM 32.952 21.25L 36.118668 21.25L 36.118668 24.25L 32.952 24.25ZM 21.868668 28.75L 28.202002 28.75L 28.202002 30.25M 31.368668 30.25L 31.368668 34.75L 36.118668 34.75L 36.118668 30.25L 34.535336 30.25M 28.202002 33.25L 28.202002 34.75M 28.202002 21.25L 28.202002 25.75L 29.785334 25.75M 32.952 27.25L 36.118668 27.25"></path></g></g></g><g id="g-root-tx_hardware_1ltnlpudx1bsw-stroke" data-item-order="0" transform="translate(267, 303)"></g><g id="g-root-tx_qrcodeis_v7d22adx1bt2-stroke" data-item-order="0" transform="translate(267, 339)"></g><g id="g-root-tx_systemlo_1cyn2k2dx445j-stroke" data-item-order="0" transform="translate(267, 531)"></g><g id="g-root-lock_1qegwj6dx2qyv-stroke" data-item-order="0" transform="translate(181, 390)"><g id="lock_1qegwj6dx2qyv-stroke" fill="none" stroke-linecap="round" stroke-linejoin="round" stroke-miterlimit="4" stroke="#2c2c2c" stroke-width="2"><g><path d="M 28.208334 45.25L 12.375 45.25C 11.500549 45.25 10.791667 44.578426 10.791667 43.75L 10.791667 12.25C 10.791667 11.421573 11.500549 10.75 12.375 10.75L 33.4175 10.75C 33.838356 10.747695 34.242863 10.904221 34.541668 11.185L 40.415833 16.75C 40.712212 17.033077 40.877434 17.416296 40.875 17.815001L 40.875 22.75M 21.479166 22C 21.479166 21.792892 21.656387 21.625 21.875 21.625C 22.093613 21.625 22.270834 21.792892 22.270834 22C 22.270834 22.207108 22.093613 22.375 21.875 22.375C 21.656387 22.375 21.479166 22.207108 21.479166 22M 21.479166 25.75C 21.479166 25.542892 21.656387 25.375 21.875 25.375C 22.093613 25.375 22.270834 25.542892 22.270834 25.75C 22.270834 25.957108 22.093613 26.125 21.875 26.125C 21.656387 26.125 21.479166 25.957108 21.479166 25.75M 21.479166 29.5C 21.479166 29.292892 21.656387 29.125 21.875 29.125C 22.093613 29.125 22.270834 29.292892 22.270834 29.5C 22.270834 29.707108 22.093613 29.875 21.875 29.875C 21.656387 29.875 21.479166 29.707108 21.479166 29.5M 21.479166 33.25C 21.479166 33.042892 21.656387 32.875 21.875 32.875C 22.093613 32.875 22.270834 33.042892 22.270834 33.25C 22.270834 33.457108 22.093613 33.625 21.875 33.625C 21.656387 33.625 21.479166 33.457108 21.479166 33.25M 21.479166 37C 21.479166 36.792892 21.656387 36.625 21.875 36.625C 22.093613 36.625 22.270834 36.792892 22.270834 37C 22.270834 37.207108 22.093613 37.375 21.875 37.375C 21.656387 37.375 21.479166 37.207108 21.479166 37M 21.479166 40.84C 21.479166 40.632893 21.656387 40.465 21.875 40.465C 22.093613 40.465 22.270834 40.632893 22.270834 40.84C 22.270834 41.047104 22.093613 41.215 21.875 41.215C 21.656387 41.215 21.479166 41.047104 21.479166 40.84M 24.25 16.165001C 24.331537 16.795547 24.124035 17.428976 23.68 17.905001C 23.223583 18.385622 22.57325 18.660082 21.890833 18.660082C 21.208418 18.660082 20.558083 18.385622 20.101665 17.905001C 19.646225 17.43401 19.426989 16.799994 19.5 16.165001L 20.085833 10.75L 23.458334 10.75ZM 34.541668 33.25L 45.625 33.25C 45.625 33.25 47.208336 33.25 47.208336 34.75L 47.208336 43.75C 47.208336 43.75 47.208336 45.25 45.625 45.25L 34.541668 45.25C 34.541668 45.25 32.958332 45.25 32.958332 43.75L 32.958332 34.75C 32.958332 34.75 32.958332 33.25 34.541668 33.25M 38.104168 39.34C 38.104168 40.375534 38.990273 41.215 40.083336 41.215C 41.176395 41.215 42.0625 40.375534 42.0625 39.34C 42.0625 38.304466 41.176395 37.465 40.083336 37.465C 38.990273 37.465 38.104168 38.304466 38.104168 39.34M 44.041668 31C 44.041668 28.928932 42.269463 27.25 40.083336 27.25C 37.897205 27.25 36.125 28.928932 36.125 31L 36.125 33.25L 44.041668 33.25Z"></path></g></g></g><g id="g-root-tx_securest_qvaegidx2pl8-stroke" data-item-order="0" transform="translate(267, 399)"></g><g id="g-root-tx_dataisse_hzne7mdx2r5s-stroke" data-item-order="0" transform="translate(267, 435)"></g><g id="g-root-tx_hybridwa_1hbyoc2dwyi2u-stroke" data-item-order="0" transform="translate(159, 39)"></g><g id="g-root-1_mcciwidx445q-stroke" data-item-order="0" transform="translate(181, 486)"><g id="1_mcciwidx445q-stroke" fill="none" stroke-linecap="round" stroke-linejoin="round" stroke-miterlimit="4" stroke="#2c2c2c" stroke-width="2"><g><path d="M 13.958333 14.506L 44.041668 14.506C 44.041668 14.506 47.208336 14.506 47.208336 17.506001L 47.208336 38.506001C 47.208336 38.506001 47.208336 41.506001 44.041668 41.506001L 13.958333 41.506001C 13.958333 41.506001 10.791667 41.506001 10.791667 38.506001L 10.791667 17.506001C 10.791667 17.506001 10.791667 14.506 13.958333 14.506M 10.791667 22.006001L 47.208336 22.006001M 16.333334 17.881001C 16.551947 17.881001 16.729166 18.048893 16.729166 18.256001C 16.729166 18.463106 16.551947 18.631001 16.333334 18.631001C 16.114721 18.631001 15.9375 18.463106 15.9375 18.256001C 15.9375 18.048893 16.114721 17.881001 16.333334 17.881001M 21.083334 17.881001C 21.301947 17.881001 21.479166 18.048893 21.479166 18.256001C 21.479166 18.463106 21.301947 18.631001 21.083334 18.631001C 20.864721 18.631001 20.6875 18.463106 20.6875 18.256001C 20.6875 18.048893 20.864721 17.881001 21.083334 17.881001M 25.833334 17.881001C 26.051947 17.881001 26.229168 18.048893 26.229168 18.256001C 26.229168 18.463106 26.051947 18.631001 25.833334 18.631001C 25.614721 18.631001 25.4375 18.463106 25.4375 18.256001C 25.4375 18.048893 25.614721 17.881001 25.833334 17.881001M 25.041668 29.506001L 31.375 29.506001C 31.375 29.506001 32.958332 29.506001 32.958332 31.006001L 32.958332 35.506001C 32.958332 35.506001 32.958332 37.006001 31.375 37.006001L 25.041668 37.006001C 25.041668 37.006001 23.458334 37.006001 23.458334 35.506001L 23.458334 31.006001C 23.458334 31.006001 23.458334 29.506001 25.041668 29.506001M 28.208334 25L 28.208334 25C 26.459433 25 25.041668 26.343145 25.041668 28L 25.041668 29.5L 31.375 29.5L 31.375 28C 31.375 26.343145 29.957235 25 28.208334 25ZM 28.208334 32.9095C 28.426947 32.9095 28.604168 33.077393 28.604168 33.2845C 28.604168 33.491608 28.426947 33.6595 28.208334 33.6595C 27.989721 33.6595 27.8125 33.491608 27.8125 33.2845C 27.8125 33.077393 27.989721 32.9095 28.208334 32.9095"></path></g></g></g><g id="g-root-tx_automati_1q9h3uadx45qb-stroke" data-item-order="0" transform="translate(267, 495)"></g><g id="g-root-time_1cw567mdwyiv5-stroke" data-item-order="0" transform="translate(181, 102)"><g id="time_1cw567mdwyiv5-stroke" fill="none" stroke-linecap="round" stroke-linejoin="round" stroke-miterlimit="4" stroke="#2c2c2c" stroke-width="2"><g><path d="M 45.593178 23.960545L 45.593178 15.39649C 45.593178 14.568055 44.884315 13.89649 44.009842 13.89649L 13.992344 13.89649C 13.1179 13.89649 12.40901 14.568055 12.40901 15.39649L 12.40901 24.82501C 12.40901 25.6534 13.1179 26.324949 13.992344 26.324949L 26.035524 26.324949M 37.006916 42.103001C 41.748348 42.10321 45.592159 38.461884 45.592159 33.970001C 45.592159 29.478115 41.748348 25.836786 37.006916 25.837C 32.265484 25.836786 28.421675 29.478115 28.421675 33.970001C 28.421675 38.461884 32.265484 42.10321 37.006916 42.103001M 37.006287 30.290951L 37.006287 33.90625L 39.518242 36.285999M 18.773979 21.60874C 19.648802 21.60874 20.357992 20.936874 20.357992 20.10808C 20.357992 19.279285 19.648802 18.60742 18.773979 18.60742C 17.899139 18.60742 17.189949 19.279285 17.189949 20.10808C 17.189949 20.936874 17.899139 21.60874 18.773979 21.60874ZM 25.10421 21.60874C 25.979 21.60874 26.688175 20.936874 26.688175 20.10808C 26.688175 19.279285 25.979 18.60742 25.10421 18.60742C 24.22937 18.60742 23.520178 19.279285 23.520178 20.10808C 23.520178 20.936874 24.22937 21.60874 25.10421 21.60874ZM 31.437542 21.60874C 32.312332 21.60874 33.021507 20.936874 33.021507 20.10808C 33.021507 19.279285 32.312332 18.60742 31.437542 18.60742C 30.562752 18.60742 29.853575 19.279285 29.853575 20.10808C 29.853575 20.936874 30.562752 21.60874 31.437542 21.60874Z"></path></g></g></g></g></g></svg>