<?xml version="1.0" encoding="utf-8" standalone="yes"?>
<!DOCTYPE svg PUBLIC "-//W3C//DTD SVG 1.1//EN" "http://www.w3.org/Graphics/SVG/1.1/DTD/svg11.dtd">
<svg width="1004" height="771" viewBox="0 0 1004 771" style="fill:none;stroke:none;fill-rule:evenodd;clip-rule:evenodd;stroke-linecap:round;stroke-linejoin:round;stroke-miterlimit:1.5;" version="1.1" xmlns="http://www.w3.org/2000/svg" xmlns:xlink="http://www.w3.org/1999/xlink"><style class="text-font-style fontImports" data-font-family="Roboto">@import url('https://fonts.googleapis.com/css2?family=Roboto:wght@400;700&amp;display=block');</style><g id="items" style="isolation: isolate"><g id="blend" style="mix-blend-mode: normal"><g id="g-root-1.Polygon_sy_1upaluwbyyknb-fill" data-item-order="-417977" transform="translate(243.16000366210938, 135)"></g><g id="g-root-1.cu_sy_1q9h3qgbyylfk-fill" data-item-order="-417976" transform="translate(311.1600036621094, 123)"><g id="1.cu_sy_1q9h3qgbyylfk-fill" stroke="none" fill="#8769fd"><g><path d="M 13.2067 286.015C 8.9311 293.433 8.9311 302.567 13.2067 309.985L 165.373 573.985C 169.658 581.419 177.586 586 186.167 586L 490.431 586C 499.011 586 506.939 581.419 511.224 573.985L 663.391 309.985C 667.666 302.567 667.666 293.433 663.391 286.015L 511.224 22.015C 506.939 14.5809 499.011 10 490.431 10L 186.167 10.000014C 177.586 10.000014 169.658 14.5809 165.373 22.015L 13.2067 286.015ZM 69.1994 322.02C 64.928 329.436 64.928 338.564 69.1994 345.98L 193.624 561.98C 197.909 569.417 205.838 574 214.421 574L 463.177 574C 471.759 574 479.689 569.417 483.973 561.98L 608.398 345.98C 612.669 338.564 612.669 329.436 608.398 322.02L 483.973 106.0204C 479.689 98.5833 471.759 94 463.177 94L 214.421 94C 205.838 94 197.909 98.5833 193.624 106.0204L 69.1994 322.02Z"></path></g></g></g><g id="g-root-1.line_sy_1q9h3qgbyylfl-fill" data-item-order="-417971" transform="translate(284.1600036621094, 172)"></g><g id="g-root-2.Polygon_sy_1q9h3qgbyylfm-fill" data-item-order="-417967" transform="translate(243.16000366210938, 255)"></g><g id="g-root-2.cu_sy_1hegkkobyyj2j-fill" data-item-order="-417966" transform="translate(367.1600036621094, 207)"><g id="2.cu_sy_1hegkkobyyj2j-fill" stroke="none" fill="#cb68f9"><g><path d="M 13.203631 238.02C 8.932131 245.436 8.932131 254.564 13.203631 261.98L 137.629031 477.98C 141.913031 485.417 149.842031 490 158.425031 490L 407.181031 490C 415.764031 490 423.693031 485.417 427.977031 477.98L 552.402031 261.98C 556.674031 254.564 556.674031 245.436 552.402031 238.02L 427.977031 22.0204C 423.693031 14.5833 415.764031 10 407.181031 10L 158.425031 10.000012C 149.842031 10.000012 141.913031 14.5833 137.629031 22.0204L 13.203631 238.02ZM 68.192731 274.029C 63.927531 281.44 63.927531 290.56 68.192731 297.971L 164.880031 465.971C 169.163031 473.413 177.095031 478 185.681031 478L 378.924031 478C 387.511031 478 395.443031 473.413 399.726031 465.971L 496.413031 297.971C 500.678031 290.56 500.678031 281.44 496.413031 274.029L 399.726031 106.0285C 395.443031 98.5868 387.511031 94 378.924031 94L 185.681031 94C 177.095031 94 169.163031 98.5869 164.880031 106.0286L 68.192731 274.029Z"></path></g></g></g><g id="g-root-2.line_sy_1hegkkobyyj2k-fill" data-item-order="-417961" transform="translate(284.1600036621094, 291)"></g><g id="g-root-3.Polygon_sy_1hegkkobyyj2l-fill" data-item-order="-417957" transform="translate(243.16000366210938, 375)"></g><g id="g-root-3.cu_sy_1cyn2g8byyjuu-fill" data-item-order="-417956" transform="translate(422.1499938964844, 291)"><g id="3.cu_sy_1cyn2g8byyjuu-fill" stroke="none" fill="#f366bb"><g><path d="M 13.1989 190.029C 8.9337 197.44 8.9337 206.56 13.1989 213.971L 109.8864 381.971C 114.169 389.413 122.101 394 130.688 394L 323.931 394C 332.517 394 340.449 389.413 344.732 381.971L 441.419 213.971C 445.685 206.56 445.685 197.44 441.419 190.029L 344.732 22.0286C 340.449 14.5868 332.517 10 323.931 10L 130.687 10.000009C 122.101 10.00001 114.169 14.5869 109.8864 22.0286L 13.1989 190.029ZM 69.1444 226.069C 64.9104 233.46 64.9104 242.54 69.1444 249.931L 137.894 369.931C 142.171 377.395 150.116 382 158.719 382L 295.899 382C 304.502 382 312.447 377.395 316.724 369.931L 385.474 249.931C 389.708 242.54 389.708 233.46 385.474 226.069L 316.724 106.0693C 312.447 98.6047 304.502 94 295.899 94L 158.719 94C 150.116 94 142.171 98.6047 137.894 106.0693L 69.1444 226.069Z"></path></g></g></g><g id="g-root-3.line_sy_143027cbyyknj-fill" data-item-order="-417951" transform="translate(284.1600036621094, 411)"></g><g id="g-root-4.Polygon_sy_18itkbsbyykn4-fill" data-item-order="-417947" transform="translate(243.16000366210938, 495)"></g><g id="g-root-4.cu_sy_18itkbsbyykn5-fill" data-item-order="-417946" transform="translate(478.1200256347656, 375)"><g id="4.cu_sy_18itkbsbyykn5-fill" stroke="none" fill="#fb6762"><g><path d="M 13.1755 142.069C 8.9415 149.46 8.9415 158.54 13.1755 165.931L 81.9255 285.931C 86.2022 293.395 94.1471 298 102.75 298L 239.93 298C 248.533 298 256.478 293.395 260.755 285.931L 329.505 165.931C 333.739 158.54 333.739 149.46 329.505 142.069L 260.755 22.0693C 256.478 14.6047 248.533 10 239.93 10L 102.75 10.000007C 94.147 10.000007 86.2021 14.6047 81.9255 22.0693L 13.1755 142.069ZM 68.1755 178.069C 63.9415 185.46 63.9415 194.54 68.1755 201.931L 109.4255 273.931C 113.702 281.395 121.647 286 130.25 286L 212.43 286C 221.033 286 228.978 281.395 233.255 273.931L 274.505 201.931C 278.739 194.54 278.739 185.46 274.505 178.069L 233.255 106.0693C 228.978 98.6047 221.033 94 212.43 94L 130.25 94C 121.647 94 113.702 98.6047 109.4255 106.0693L 68.1755 178.069Z"></path></g></g></g><g id="g-root-4.line_sy_zn6k2wbyylfu-fill" data-item-order="-417941" transform="translate(284.1600036621094, 531)"></g><g id="g-root-5.Polygon_sy_zn6k2wbyylfv-fill" data-item-order="-417937" transform="translate(243.16000366210938, 615)"></g><g id="g-root-5.cu_sy_zn6k2wbyylfw-fill" data-item-order="-417936" transform="translate(533.1199951171875, 459)"><g id="5.cu_sy_zn6k2wbyylfw-fill" stroke="none" fill="#f79438"><g><path d="M 13.1755 117.931C 8.9415 110.54 8.9415 101.4596 13.1755 94.0693L 54.4255 22.0693C 58.7022 14.6047 66.6471 10.000004 75.25 10.000004L 157.43 10C 166.033 10 173.978 14.6047 178.255 22.0693L 219.505 94.0693C 223.739 101.4596 223.739 110.54 219.505 117.931L 178.255 189.931C 173.978 197.395 166.033 202 157.43 202L 75.25 202C 66.6471 202 58.7022 197.395 54.4255 189.931L 13.1755 117.931Z"></path></g></g></g><g id="g-root-5.line_sy_v7zj1kbyyj2d-fill" data-item-order="-417931" transform="translate(284.1600036621094, 651)"></g><g id="g-root-tx_transact_4loze0byyj2m-fill" data-item-order="0" transform="translate(14.999996185302734, 675.3798828125)"><g id="tx_transact_4loze0byyj2m-fill" stroke="none" fill="#f4f4f4"><g><text style="font: 15px Roboto, sans-serif; white-space: pre;" font-size="15px" font-family="Roboto, sans-serif"><tspan x="14.78" y="27.5" dominant-baseline="ideographic">Transaction completed with </tspan><tspan x="126.42" y="45.5" dominant-baseline="ideographic">verification</tspan></text></g></g></g><g id="g-root-tx_1_dhyn1kbz5l3i-fill" data-item-order="0" transform="translate(627.1599731445312, 321)"><g id="tx_1_dhyn1kbz5l3i-fill" stroke="none" fill="#2c2c2c"><g><text style="font: 20px Roboto, sans-serif; white-space: pre;" font-size="20px" font-family="Roboto, sans-serif"><tspan x="16.38" y="33.5" dominant-baseline="ideographic">3</tspan></text></g></g></g><g id="g-root-code_i09v6wbzckjy-fill" data-item-order="0" transform="translate(219.16000366210938, 386.97998046875)"></g><g id="g-root-tx_amountsp_hwj0o8byyknd-fill" data-item-order="0" transform="translate(39.15999984741211, 279)"><g id="tx_amountsp_hwj0o8byyknd-fill" stroke="none" fill="#cb68f9"><g><text style="font: bold 20px Roboto, sans-serif; white-space: pre;" font-weight="bold" font-size="20px" font-family="Roboto, sans-serif"><tspan x="15.76" y="33.5" dominant-baseline="ideographic">Amount Specified</tspan></text></g></g></g><g id="g-root-poun_1d3myawbyrklk-fill" data-item-order="0" transform="translate(219.16000366210938, 266.990234375)"></g><g id="g-root-tx_qrcodege_dgpijsbyylfn-fill" data-item-order="0" transform="translate(27.15999984741211, 399)"><g id="tx_qrcodege_dgpijsbyylfn-fill" stroke="none" fill="#f366bb"><g><text style="font: bold 20px Roboto, sans-serif; white-space: pre;" font-weight="bold" font-size="20px" font-family="Roboto, sans-serif"><tspan x="12.02" y="33.5" dominant-baseline="ideographic">QR Code Generated</tspan></text></g></g></g><g id="g-root-tx_1_9254x4bz5lvs-fill" data-item-order="0" transform="translate(627.1599731445312, 237)"><g id="tx_1_9254x4bz5lvs-fill" stroke="none" fill="#2c2c2c"><g><text style="font: 20px Roboto, sans-serif; white-space: pre;" font-size="20px" font-family="Roboto, sans-serif"><tspan x="16.38" y="33.5" dominant-baseline="ideographic">2</tspan></text></g></g></g><g id="g-root-tx_1_mdlnagbz5kas-fill" data-item-order="0" transform="translate(627.1599731445312, 405)"><g id="tx_1_mdlnagbz5kas-fill" stroke="none" fill="#2c2c2c"><g><text style="font: 20px Roboto, sans-serif; white-space: pre;" font-size="20px" font-family="Roboto, sans-serif"><tspan x="16.38" y="33.5" dominant-baseline="ideographic">4</tspan></text></g></g></g><g id="g-root-tx_qrcodege_dgpijsbyylfm-fill" data-item-order="0" transform="translate(75, 435.3798828125)"><g id="tx_qrcodege_dgpijsbyylfm-fill" stroke="none" fill="#f4f4f4"><g><text style="font: 15px Roboto, sans-serif; white-space: pre;" font-size="15px" font-family="Roboto, sans-serif"><tspan x="13.29" y="30.5" dominant-baseline="ideographic">QR code generated</tspan></text></g></g></g><g id="g-root-tx_usersele_v7zj1kbyyj2e-fill" data-item-order="0" transform="translate(75, 195.3798828125)"><g id="tx_usersele_v7zj1kbyyj2e-fill" stroke="none" fill="#f4f4f4"><g><text style="font: 15px Roboto, sans-serif; white-space: pre;" font-size="15px" font-family="Roboto, sans-serif"><tspan x="14.66" y="30.5" dominant-baseline="ideographic">User selects wallet</tspan></text></g></g></g><g id="g-root-yuan_1ur6148bz9seg-fill" data-item-order="0" transform="translate(219.1619873046875, 506.98046875)"></g><g id="g-root-tx_1_9254x4bz5lvt-fill" data-item-order="0" transform="translate(627.1599731445312, 153)"><g id="tx_1_9254x4bz5lvt-fill" stroke="none" fill="#2c2c2c"><g><text style="font: 20px Roboto, sans-serif; white-space: pre;" font-size="20px" font-family="Roboto, sans-serif"><tspan x="16.38" y="33.5" dominant-baseline="ideographic">1</tspan></text></g></g></g><g id="g-root-tx_walletsc_4loze0byyj2l-fill" data-item-order="0" transform="translate(63.15999984741211, 519)"><g id="tx_walletsc_4loze0byyj2l-fill" stroke="none" fill="#fb6762"><g><text style="font: bold 20px Roboto, sans-serif; white-space: pre;" font-weight="bold" font-size="20px" font-family="Roboto, sans-serif"><tspan x="13.05" y="33.5" dominant-baseline="ideographic">Wallet Scanned</tspan></text></g></g></g><g id="g-root-wall_92rm08bz2qdp-fill" data-item-order="0" transform="translate(219.16000366210938, 147)"></g><g id="g-root-tx_1_qtf5ewbz5jii-fill" data-item-order="0" transform="translate(627.1599731445312, 543)"><g id="tx_1_qtf5ewbz5jii-fill" stroke="none" fill="#2c2c2c"><g><text style="font: 20px Roboto, sans-serif; white-space: pre;" font-size="20px" font-family="Roboto, sans-serif"><tspan x="16.38" y="33.5" dominant-baseline="ideographic">1</tspan></text></g></g></g><g id="g-root-tx_walletsc_dgpijsbyylfo-fill" data-item-order="0" transform="translate(14.999996185302734, 555.3798828125)"><g id="tx_walletsc_dgpijsbyylfo-fill" stroke="none" fill="#f4f4f4"><g><text style="font: 15px Roboto, sans-serif; white-space: pre;" font-size="15px" font-family="Roboto, sans-serif"><tspan x="21.3" y="30.5" dominant-baseline="ideographic">Wallet scanned and signed</tspan></text></g></g></g><g id="g-root-tx_transact_5vh9kbyyjuv-fill" data-item-order="0" transform="translate(87.16000366210938, 627)"><g id="tx_transact_5vh9kbyyjuv-fill" stroke="none" fill="#f79438"><g><text style="font: bold 20px Roboto, sans-serif; white-space: pre;" font-weight="bold" font-size="20px" font-family="Roboto, sans-serif"><tspan x="21.38" y="33.5" dominant-baseline="ideographic">Transaction </tspan><tspan x="30.11" y="57.5" dominant-baseline="ideographic">Completed</tspan></text></g></g></g><g id="g-root-smar_5vh9kbyyjuw-fill" data-item-order="0" transform="translate(219.16000366210938, 626.97998046875)"></g><g id="g-root-tx_walletse_mccisobyyjv3-fill" data-item-order="0" transform="translate(51.15999984741211, 159)"><g id="tx_walletse_mccisobyyjv3-fill" stroke="none" fill="#8769fd"><g><text style="font: bold 20px Roboto, sans-serif; white-space: pre;" font-weight="bold" font-size="20px" font-family="Roboto, sans-serif"><tspan x="18.78" y="33.5" dominant-baseline="ideographic">Wallet Selection</tspan></text></g></g></g><g id="g-root-tx_usertran_zofokobz5lvk-fill" data-item-order="0" transform="translate(369.1600036621094, 39)"><g id="tx_usertran_zofokobz5lvk-fill" stroke="none" fill="#f4f4f4"><g><text style="font: bold 20px Roboto, sans-serif; white-space: pre;" font-weight="bold" font-size="20px" font-family="Roboto, sans-serif"><tspan x="14.69" y="33.5" dominant-baseline="ideographic">User Transaction Process</tspan></text></g></g></g><g id="g-root-tx_userspec_hwj0o8byyknc-fill" data-item-order="0" transform="translate(50.999996185302734, 315.3798828125)"><g id="tx_userspec_hwj0o8byyknc-fill" stroke="none" fill="#f4f4f4"><g><text style="font: 15px Roboto, sans-serif; white-space: pre;" font-size="15px" font-family="Roboto, sans-serif"><tspan x="15.09" y="30.5" dominant-baseline="ideographic">User specifies amount</tspan></text></g></g></g><g id="g-root-1.Polygon_sy_1upaluwbyyknb-stroke" data-item-order="-417977" transform="translate(243.16000366210938, 135)"><g id="1.Polygon_sy_1upaluwbyyknb-stroke" fill="none" stroke-linecap="round" stroke-linejoin="round" stroke-miterlimit="4" stroke="#8769fd" stroke-width="2"><g><path d="M 10 82L 27.5538 82C 29.6878 82 31.6612 80.8665 32.7365 79.0232L 50.2365 49.0232C 51.3262 47.155 51.3262 44.8449 50.2365 42.9768L 32.7365 12.9768C 31.6612 11.1335 29.6878 10 27.5538 10L 10 10"></path></g></g></g><g id="g-root-1.cu_sy_1q9h3qgbyylfk-stroke" data-item-order="-417976" transform="translate(311.1600036621094, 123)"><g id="1.cu_sy_1q9h3qgbyylfk-stroke" fill="none" stroke-linecap="round" stroke-linejoin="round" stroke-miterlimit="4" stroke="#2c2c2c" stroke-width="2"><g><path d="M 13.2067 286.015C 8.9311 293.433 8.9311 302.567 13.2067 309.985L 165.3734 573.985C 169.6583 581.4191 177.5861 586 186.1667 586L 490.4308 586C 499.0113 586 506.9391 581.4191 511.224 573.985L 663.3907 309.985C 667.6663 302.567 667.6663 293.433 663.3907 286.015L 511.224 22.015C 506.9391 14.5809 499.0113 10 490.4308 10L 186.1666 10C 177.5861 10 169.6583 14.5809 165.3734 22.015L 13.2067 286.015ZM 69.1994 322.0204C 64.928 329.4357 64.928 338.5643 69.1994 345.9796L 193.6245 561.9796C 197.9086 569.4167 205.8381 574 214.4209 574L 463.1766 574C 471.7594 574 479.6889 569.4167 483.973 561.9796L 608.398 345.9796C 612.6695 338.5643 612.6695 329.4357 608.398 322.0204L 483.973 106.0204C 479.6889 98.5833 471.7594 94 463.1766 94L 214.4208 94C 205.838 94 197.9086 98.5833 193.6245 106.0204L 69.1994 322.0204Z"></path></g></g></g><g id="g-root-1.line_sy_1q9h3qgbyylfl-stroke" data-item-order="-417971" transform="translate(284.1600036621094, 172)"><g id="1.line_sy_1q9h3qgbyylfl-stroke" fill="none" stroke-linecap="round" stroke-linejoin="round" stroke-miterlimit="4" stroke="#8769fd" stroke-width="2"><style>.fillAsStrokeColor-143mg5togq48w { fill:#8769fd; }</style><g><path d="M 10 10L 171 10"></path><path d="M 7 10C 7 11.656854 8.343146 13 10 13C 11.656854 13 13 11.656854 13 10C 13 8.343146 11.656854 7 10 7C 8.343146 7 7 8.343146 7 10Z" stroke-dasharray="none" class="fillAsStrokeColor-143mg5togq48w"></path><path d="M 168 10C 168.000005 11.656854 169.343151 13 171.000005 13C 172.656859 13 174.000005 11.656854 174.000005 10C 174.000005 8.343146 172.656859 7 171.000005 7C 169.343151 7 168.000005 8.343146 168.000005 10Z" stroke-dasharray="none" class="fillAsStrokeColor-143mg5togq48w"></path></g></g></g><g id="g-root-2.Polygon_sy_1q9h3qgbyylfm-stroke" data-item-order="-417967" transform="translate(243.16000366210938, 255)"><g id="2.Polygon_sy_1q9h3qgbyylfm-stroke" fill="none" stroke-linecap="round" stroke-linejoin="round" stroke-miterlimit="4" stroke="#cb68f9" stroke-width="2"><g><path d="M 10 82L 27.5538 82C 29.6878 82 31.6612 80.8665 32.7365 79.0232L 50.2365 49.0232C 51.3262 47.155 51.3262 44.8449 50.2365 42.9768L 32.7365 12.9768C 31.6612 11.1335 29.6878 10 27.5538 10L 10 10"></path></g></g></g><g id="g-root-2.cu_sy_1hegkkobyyj2j-stroke" data-item-order="-417966" transform="translate(367.1600036621094, 207)"><g id="2.cu_sy_1hegkkobyyj2j-stroke" fill="none" stroke-linecap="round" stroke-linejoin="round" stroke-miterlimit="4" stroke="#2c2c2c" stroke-width="2"><g><path d="M 13.203631 238.0204C 8.932131 245.4357 8.932131 254.5643 13.203631 261.9796L 137.628631 477.9796C 141.912731 485.4167 149.842231 490 158.425031 490L 407.180831 490C 415.763631 490 423.693131 485.4167 427.977131 477.9796L 552.402231 261.9796C 556.673631 254.5643 556.673631 245.4357 552.402231 238.0204L 427.977131 22.0204C 423.693131 14.5833 415.763531 10 407.180831 10L 158.425031 10C 149.842231 10 141.912731 14.5833 137.628631 22.0204L 13.203631 238.0204ZM 68.192731 274.0286C 63.927531 281.4397 63.927531 290.5604 68.192731 297.9715L 164.880231 465.9714C 169.163131 473.4131 177.095131 478 185.681331 478L 378.924531 478C 387.510731 478 395.442731 473.4131 399.725631 465.9714L 496.413131 297.9714C 500.678331 290.5603 500.678331 281.4396 496.413131 274.0285L 399.725631 106.0285C 395.442731 98.5868 387.510731 94 378.924531 94L 185.681331 94C 177.095131 94 169.163031 98.5869 164.880231 106.0286L 68.192731 274.0286Z"></path></g></g></g><g id="g-root-2.line_sy_1hegkkobyyj2k-stroke" data-item-order="-417961" transform="translate(284.1600036621094, 291)"><g id="2.line_sy_1hegkkobyyj2k-stroke" fill="none" stroke-linecap="round" stroke-linejoin="round" stroke-miterlimit="4" stroke="#cb68f9" stroke-width="2"><style>.fillAsStrokeColor-v7zfwxogq51l { fill:#cb68f9; }</style><g><path d="M 10 10L 179 10"></path><path d="M 7 10C 7 11.656854 8.343146 13 10 13C 11.656854 13 13 11.656854 13 10C 13 8.343146 11.656854 7 10 7C 8.343146 7 7 8.343146 7 10Z" stroke-dasharray="none" class="fillAsStrokeColor-v7zfwxogq51l"></path><path d="M 176 10C 176.000005 11.656854 177.343151 13 179.000005 13C 180.656859 13 182.000005 11.656854 182.000005 10C 182.000005 8.343146 180.656859 7 179.000005 7C 177.343151 7 176.000005 8.343146 176.000005 10Z" stroke-dasharray="none" class="fillAsStrokeColor-v7zfwxogq51l"></path></g></g></g><g id="g-root-3.Polygon_sy_1hegkkobyyj2l-stroke" data-item-order="-417957" transform="translate(243.16000366210938, 375)"><g id="3.Polygon_sy_1hegkkobyyj2l-stroke" fill="none" stroke-linecap="round" stroke-linejoin="round" stroke-miterlimit="4" stroke="#f366bb" stroke-width="2"><g><path d="M 10 82L 27.5538 82C 29.6878 82 31.6612 80.8665 32.7365 79.0232L 50.2365 49.0232C 51.3262 47.155 51.3262 44.8449 50.2365 42.9768L 32.7365 12.9768C 31.6612 11.1335 29.6878 10 27.5538 10L 10 10"></path></g></g></g><g id="g-root-3.cu_sy_1cyn2g8byyjuu-stroke" data-item-order="-417956" transform="translate(422.1499938964844, 291)"><g id="3.cu_sy_1cyn2g8byyjuu-stroke" fill="none" stroke-linecap="round" stroke-linejoin="round" stroke-miterlimit="4" stroke="#2c2c2c" stroke-width="2"><g><path d="M 13.1989 190.0286C 8.9337 197.4397 8.9337 206.5604 13.1989 213.9715L 109.8864 381.9714C 114.1693 389.4131 122.1014 394 130.6875 394L 323.9307 394C 332.5169 394 340.4489 389.4131 344.7318 381.9714L 441.4193 213.9715C 445.6845 206.5603 445.6845 197.4396 441.4193 190.0285L 344.7318 22.0286C 340.4489 14.5868 332.5169 10 323.9307 10L 130.6875 10C 122.1013 10 114.1693 14.5869 109.8864 22.0286L 13.1989 190.0286ZM 69.1444 226.0693C 64.9104 233.4596 64.9104 242.5404 69.1444 249.9307L 137.8944 369.9307C 142.171 377.3954 150.1159 382 158.7189 382L 295.8994 382C 304.5023 382 312.4472 377.3954 316.7238 369.9307L 385.4738 249.9307C 389.7079 242.5404 389.7079 233.4596 385.4738 226.0693L 316.7238 106.0693C 312.4472 98.6047 304.5023 94 295.8994 94L 158.7189 94C 150.1159 94 142.171 98.6047 137.8944 106.0693L 69.1444 226.0693Z"></path></g></g></g><g id="g-root-3.line_sy_143027cbyyknj-stroke" data-item-order="-417951" transform="translate(284.1600036621094, 411)"><g id="3.line_sy_143027cbyyknj-stroke" fill="none" stroke-linecap="round" stroke-linejoin="round" stroke-miterlimit="4" stroke="#f366bb" stroke-width="2"><style>.fillAsStrokeColor-v7zfwxogq51m { fill:#f366bb; }</style><g><path d="M 10 10L 185 10"></path><path d="M 7 10C 7 11.656854 8.343146 13 10 13C 11.656854 13 13 11.656854 13 10C 13 8.343146 11.656854 7 10 7C 8.343146 7 7 8.343146 7 10Z" stroke-dasharray="none" class="fillAsStrokeColor-v7zfwxogq51m"></path><path d="M 182 10C 182.000005 11.656854 183.343151 13 185.000005 13C 186.656859 13 188.000005 11.656854 188.000005 10C 188.000005 8.343146 186.656859 7 185.000005 7C 183.343151 7 182.000005 8.343146 182.000005 10Z" stroke-dasharray="none" class="fillAsStrokeColor-v7zfwxogq51m"></path></g></g></g><g id="g-root-4.Polygon_sy_18itkbsbyykn4-stroke" data-item-order="-417947" transform="translate(243.16000366210938, 495)"><g id="4.Polygon_sy_18itkbsbyykn4-stroke" fill="none" stroke-linecap="round" stroke-linejoin="round" stroke-miterlimit="4" stroke="#fb6762" stroke-width="2"><g><path d="M 10 82L 27.5538 82C 29.6878 82 31.6612 80.8665 32.7365 79.0232L 50.2365 49.0232C 51.3262 47.155 51.3262 44.8449 50.2365 42.9768L 32.7365 12.9768C 31.6612 11.1335 29.6878 10 27.5538 10L 10 10"></path></g></g></g><g id="g-root-4.cu_sy_18itkbsbyykn5-stroke" data-item-order="-417946" transform="translate(478.1200256347656, 375)"><g id="4.cu_sy_18itkbsbyykn5-stroke" fill="none" stroke-linecap="round" stroke-linejoin="round" stroke-miterlimit="4" stroke="#2c2c2c" stroke-width="2"><g><path d="M 13.1755 142.0693C 8.9415 149.4596 8.9415 158.5404 13.1755 165.9307L 81.9255 285.9307C 86.2022 293.3954 94.1471 298 102.75 298L 239.9305 298C 248.5334 298 256.4783 293.3954 260.7549 285.9307L 329.5049 165.9307C 333.739 158.5404 333.739 149.4596 329.5049 142.0693L 260.7549 22.0693C 256.4783 14.6047 248.5334 10 239.9305 10L 102.75 10C 94.147 10 86.2021 14.6047 81.9255 22.0693L 13.1755 142.0693ZM 68.1755 178.0693C 63.9415 185.4596 63.9415 194.5404 68.1755 201.9307L 109.4255 273.9307C 113.7022 281.3954 121.6471 286 130.25 286L 212.4305 286C 221.0334 286 228.9783 281.3954 233.2549 273.9307L 274.5049 201.9307C 278.739 194.5404 278.739 185.4596 274.5049 178.0693L 233.2549 106.0693C 228.9783 98.6047 221.0334 94 212.4305 94L 130.25 94C 121.647 94 113.7021 98.6047 109.4255 106.0693L 68.1755 178.0693Z"></path></g></g></g><g id="g-root-4.line_sy_zn6k2wbyylfu-stroke" data-item-order="-417941" transform="translate(284.1600036621094, 531)"><g id="4.line_sy_zn6k2wbyylfu-stroke" fill="none" stroke-linecap="round" stroke-linejoin="round" stroke-miterlimit="4" stroke="#fb6762" stroke-width="2"><style>.fillAsStrokeColor-qssevlogq2o3 { fill:#fb6762; }</style><g><path d="M 10 10L 207 10"></path><path d="M 7 10C 7 11.656854 8.343146 13 10 13C 11.656854 13 13 11.656854 13 10C 13 8.343146 11.656854 7 10 7C 8.343146 7 7 8.343146 7 10Z" stroke-dasharray="none" class="fillAsStrokeColor-qssevlogq2o3"></path><path d="M 204 10C 204.000006 11.656854 205.343152 13 207.000006 13C 208.65686 13 210.000006 11.656854 210.000006 10C 210.000006 8.343146 208.65686 7 207.000006 7C 205.343152 7 204.000006 8.343146 204.000006 10Z" stroke-dasharray="none" class="fillAsStrokeColor-qssevlogq2o3"></path></g></g></g><g id="g-root-5.Polygon_sy_zn6k2wbyylfv-stroke" data-item-order="-417937" transform="translate(243.16000366210938, 615)"><g id="5.Polygon_sy_zn6k2wbyylfv-stroke" fill="none" stroke-linecap="round" stroke-linejoin="round" stroke-miterlimit="4" stroke="#f79438" stroke-width="2"><g><path d="M 10 82L 27.5538 82C 29.6878 82 31.6612 80.8665 32.7365 79.0232L 50.2365 49.0232C 51.3262 47.155 51.3262 44.8449 50.2365 42.9768L 32.7365 12.9768C 31.6612 11.1335 29.6878 10 27.5538 10L 10 10"></path></g></g></g><g id="g-root-5.cu_sy_zn6k2wbyylfw-stroke" data-item-order="-417936" transform="translate(533.1199951171875, 459)"><g id="5.cu_sy_zn6k2wbyylfw-stroke" fill="none" stroke-linecap="round" stroke-linejoin="round" stroke-miterlimit="4" stroke="#2c2c2c" stroke-width="2"><g><path d="M 13.1755 117.9307C 8.9415 110.5404 8.9415 101.4596 13.1755 94.0693L 54.4255 22.0693C 58.7022 14.6046 66.6471 10 75.25 10L 157.4305 10C 166.0334 10 173.9783 14.6047 178.255 22.0693L 219.505 94.0693C 223.739 101.4596 223.739 110.5404 219.505 117.9307L 178.2549 189.9307C 173.9783 197.3954 166.0334 202 157.4305 202L 75.25 202C 66.6471 202 58.7022 197.3953 54.4255 189.9307L 13.1755 117.9307Z"></path></g></g></g><g id="g-root-5.line_sy_v7zj1kbyyj2d-stroke" data-item-order="-417931" transform="translate(284.1600036621094, 651)"><g id="5.line_sy_v7zj1kbyyj2d-stroke" fill="none" stroke-linecap="round" stroke-linejoin="round" stroke-miterlimit="4" stroke="#f79438" stroke-width="2"><style>.fillAsStrokeColor-qssevlogq2o4 { fill:#f79438; }</style><g><path d="M 10 10L 365 10"></path><path d="M 7 10C 7 11.656854 8.343146 13 10 13C 11.656854 13 13 11.656854 13 10C 13 8.343146 11.656854 7 10 7C 8.343146 7 7 8.343146 7 10Z" stroke-dasharray="none" class="fillAsStrokeColor-qssevlogq2o4"></path><path d="M 362 10C 362.000011 11.656854 363.343156 13 365.000011 13C 366.656865 13 368.000011 11.656854 368.000011 10C 368.000011 8.343146 366.656865 7 365.000011 7C 363.343156 7 362.000011 8.343146 362.000011 10Z" stroke-dasharray="none" class="fillAsStrokeColor-qssevlogq2o4"></path></g></g></g><g id="g-root-tx_transact_4loze0byyj2m-stroke" data-item-order="0" transform="translate(14.999996185302734, 675.3798828125)"></g><g id="g-root-tx_1_dhyn1kbz5l3i-stroke" data-item-order="0" transform="translate(627.1599731445312, 321)"></g><g id="g-root-code_i09v6wbzckjy-stroke" data-item-order="0" transform="translate(219.16000366210938, 386.97998046875)"><g id="code_i09v6wbzckjy-stroke" fill="none" stroke-linecap="round" stroke-linejoin="round" stroke-miterlimit="4" stroke="#f366bb" stroke-width="2"><g><path d="M 10.9999 10.9999L 24.998503 10.9999L 24.998503 24.998503L 10.9999 24.998503ZM 14.999501 14.999501L 20.998901 14.999501L 20.998901 20.998901L 14.999501 20.998901ZM 10.9999 42.996704L 24.998503 42.996704L 24.998503 56.995308L 10.9999 56.995308ZM 14.999501 46.996307L 20.998901 46.996307L 20.998901 52.995708L 14.999501 52.995708ZM 42.996704 42.996704L 48.996105 42.996704L 48.996105 48.996105L 42.996704 48.996105ZM 42.996704 10.9999L 56.995308 10.9999L 56.995308 24.998503L 42.996704 24.998503ZM 46.996307 14.999501L 52.995708 14.999501L 52.995708 20.998901L 46.996307 20.998901ZM 35.997406 28.998102L 28.998102 28.998102M 28.998102 32.997704L 28.998102 38.997105L 35.997406 38.997105M 10.9999 28.998102L 24.998503 28.998102L 24.998503 32.997704M 54.985512 38.997105L 54.985512 28.998102L 56.995308 28.998102M 50.985909 32.997704L 50.985909 38.997105M 49.996006 28.998102L 40.986904 28.998102L 40.986904 32.997704M 34.997505 18.999102L 34.997505 22.998703L 38.997105 22.998703L 38.997105 14.999501M 28.998102 24.998503L 28.998102 18.999102M 32.997704 10.9999L 38.997105 10.9999M 28.998102 10.9999L 28.998102 14.999501L 32.997704 14.999501M 14.999501 34.997505L 20.998901 34.997505M 10.9999 32.997704L 10.9999 38.997105L 14.999501 38.997105M 34.997505 56.995308L 52.995708 56.995308L 52.995708 42.996704L 56.995308 42.996704L 56.995308 48.996105M 28.998102 44.996506L 28.998102 52.995708L 34.997505 52.995708M 48.996105 52.995708L 38.997105 52.995708L 38.997105 47.996204M 32.987705 48.996105L 32.987705 42.996704L 38.997105 42.996704M 20.998901 38.997105L 24.998503 38.997105M 35.997406 32.997704L 31.997803 32.997704M 40.986904 38.997105L 46.986309 38.997105M 44.986507 38.997105L 44.986507 34.997505"></path></g></g></g><g id="g-root-tx_amountsp_hwj0o8byyknd-stroke" data-item-order="0" transform="translate(39.15999984741211, 279)"></g><g id="g-root-poun_1d3myawbyrklk-stroke" data-item-order="0" transform="translate(219.16000366210938, 266.990234375)"><g id="poun_1d3myawbyrklk-stroke" fill="none" stroke-linecap="round" stroke-linejoin="round" stroke-miterlimit="4" stroke="#cb68f9" stroke-width="2"><g><path d="M 27.998083 52.995708L 12.99958 52.995708C 11.895119 52.995708 10.999778 52.100395 10.999778 50.995907L 10.999778 44.996506C 10.999778 43.892017 11.895119 42.996704 12.99958 42.996704L 36.997105 42.996704M 15.999281 47.996204L 26.998182 47.996204M 10 10M 36.997505 56.995308L 32.377964 51.995808C 31.847618 51.38327 31.582245 50.584949 31.640438 49.776829C 31.698433 48.968708 32.075397 48.216587 32.687935 47.686237C 33.300472 47.155888 34.098595 46.890514 34.906914 46.948711C 35.715031 47.006905 36.467159 47.383671 36.997505 47.996204L 40.997105 52.575752L 40.997105 35.997406C 40.997105 35.201881 41.313072 34.438759 41.875618 33.876217C 42.43816 33.313671 43.201286 32.997704 43.996803 32.997704C 44.792324 32.997704 45.555248 33.313671 46.117794 33.876217C 46.680336 34.438759 46.996506 35.201881 46.996506 35.997406L 46.996506 45.996407L 48.996304 45.996407C 51.117695 45.996407 53.152493 46.839123 54.652542 48.339371C 56.152592 49.83942 56.995506 51.87402 56.995506 53.995605L 56.995506 56.995308M 22.82476 16.973904L 17.950247 16.973904L 17.950247 21.848417L 22.82476 21.848417L 22.82476 16.973904ZM 22.82476 26.148788L 17.950247 26.148788L 17.950247 31.0233L 22.82476 31.0233L 22.82476 26.148788ZM 32.118793 16.973904L 27.244257 16.973904L 27.244257 21.848417L 32.118793 21.848417L 32.118793 16.973904ZM 32.118793 26.148788L 27.244257 26.148788L 27.244257 31.0233L 32.118793 31.0233L 32.118793 26.148788ZM 36.997105 36.997303L 14.999381 36.997303C 13.938626 36.997303 12.921309 36.575947 12.171243 35.825821C 11.421165 35.075695 10.999778 34.058399 10.999778 32.997704L 10.999778 14.999501C 10.999778 13.938746 11.421165 12.921429 12.171243 12.171363C 12.921309 11.421286 13.938626 10.9999 14.999381 10.9999L 46.996109 10.9999C 48.056999 10.9999 49.074299 11.421286 49.824425 12.171363C 50.574348 12.921429 50.995708 13.938746 50.995708 14.999501L 50.995708 32.997704C 51.006706 33.696632 50.834324 34.385963 50.495758 34.997505M 10 10M 27.23254 36.997303L 23.343887 42.997505M 44.313976 19.121748C 44.313976 18.494232 44.064796 17.892412 43.621044 17.448677C 43.177288 17.004961 42.575546 16.755665 41.948009 16.755665C 41.320473 16.755665 40.718533 17.004961 40.274776 17.448677C 39.831223 17.892412 39.581848 18.494232 39.581848 19.121748L 39.581848 26.219961C 39.581848 27.508732 38.504555 28.586044 37.215881 28.586044L 44.313976 28.586044M 37.215881 23.921471L 44.313976 23.921471"></path></g></g></g><g id="g-root-tx_qrcodege_dgpijsbyylfn-stroke" data-item-order="0" transform="translate(27.15999984741211, 399)"></g><g id="g-root-tx_1_9254x4bz5lvs-stroke" data-item-order="0" transform="translate(627.1599731445312, 237)"></g><g id="g-root-tx_1_mdlnagbz5kas-stroke" data-item-order="0" transform="translate(627.1599731445312, 405)"></g><g id="g-root-tx_qrcodege_dgpijsbyylfm-stroke" data-item-order="0" transform="translate(75, 435.3798828125)"></g><g id="g-root-tx_usersele_v7zj1kbyyj2e-stroke" data-item-order="0" transform="translate(75, 195.3798828125)"></g><g id="g-root-yuan_1ur6148bz9seg-stroke" data-item-order="0" transform="translate(219.1619873046875, 506.98046875)"><g id="yuan_1ur6148bz9seg-stroke" fill="none" stroke-linecap="round" stroke-linejoin="round" stroke-miterlimit="4" stroke="#fb6762" stroke-width="2"><g><path d="M 43.16827 29.250925C 43.623825 28.795412 44.164368 28.434069 44.75951 28.187532C 45.354649 27.941017 45.992382 27.814131 46.63652 27.814131C 47.280655 27.814131 47.918594 27.941017 48.513733 28.187532C 49.108669 28.434069 49.649418 28.795412 50.104973 29.250925M 39.918594 25.054428C 41.699814 23.273308 44.115776 22.272688 46.63472 22.272688C 49.153667 22.272688 51.569424 23.273308 53.350647 25.054428M 36.377949 21.24769C 39.098278 18.527483 42.787907 16.999296 46.634918 16.999296C 50.482132 16.999296 54.171562 18.527483 56.891888 21.24769M 10 10M 38.650322 51.812L 46.623524 56.463535C 46.969288 56.665112 47.362247 56.7719 47.762409 56.773102C 48.162567 56.7743 48.556129 56.66991 48.903095 56.470531C 49.250259 56.271152 49.538429 55.98378 49.73901 55.637413C 49.939587 55.29105 50.045177 54.89809 50.045177 54.49773L 50.045177 44.006786C 50.045177 43.211468 49.836597 42.429943 49.440441 41.740013C 49.044277 41.050282 48.474335 40.476341 47.787403 40.07518L 39.814205 35.425648C 39.468639 35.223465 39.07568 35.116276 38.675117 35.114677C 38.274761 35.113079 37.881001 35.217468 37.533634 35.416847C 37.18647 35.616425 36.898098 35.903999 36.69772 36.250763C 36.497337 36.59753 36.392151 36.991089 36.392551 37.391449L 36.392551 47.880398C 36.392151 48.675915 36.60033 49.457836 36.996689 50.147568C 37.392849 50.837498 37.96299 51.411442 38.650322 51.812L 38.650322 51.812ZM 38.150574 35.159473L 53.699009 35.159473C 54.00618 35.150875 54.311947 35.202667 54.598923 35.312458C 54.886089 35.422249 55.148464 35.587631 55.371441 35.799007C 55.594418 36.010387 55.773602 36.26376 55.898388 36.544735C 56.023178 36.825504 56.091167 37.128075 56.09877 37.435246L 56.09877 52.233757M 45.149868 47.650021C 44.73571 47.650021 44.399944 47.314251 44.399944 46.900093C 44.399944 46.485935 44.73571 46.150169 45.149868 46.150169M 45.149868 47.650021C 45.56403 47.650021 45.899796 47.314251 45.899796 46.900093C 45.899796 46.485935 45.56403 46.150169 45.149868 46.150169M 31.101082 50.995884L 15.102768 50.995884C 14.041994 50.995884 13.024676 50.574528 12.274611 49.824398C 11.524545 49.074276 11.103161 48.056976 11.103161 46.996284L 11.103161 20.998896C 11.103161 19.938143 11.524545 18.920824 12.274611 18.170759C 13.024676 17.420675 14.041994 16.999296 15.102768 16.999296L 33.186069 16.999296M 33.528835 16.999296L 19.102365 16.999296L 21.102165 10.9999L 35.100681 10.9999L 36.100578 13.999599M 10 10M 35.562634 55.605419L 35.100681 56.995281L 21.102165 56.995281L 19.102365 50.995884M 20.781878 25.524321L 20.781878 30.063185C 20.781878 30.659325 20.899286 31.249466 21.127382 31.800211C 21.35548 32.350956 21.689825 32.851303 22.111303 33.272663C 22.532782 33.694221 23.033131 34.028587 23.583836 34.256565C 24.13452 34.484741 24.724741 34.602131 25.320801 34.602131C 25.916861 34.602131 26.507082 34.484741 27.057768 34.256565C 27.608452 34.028587 28.10882 33.694221 28.530298 33.272663C 28.951777 32.851303 29.286102 32.350956 29.514219 31.800211C 29.742317 31.249466 29.859724 30.659325 29.859724 30.063185L 29.859724 25.524321M 25.32122 34.602928L 25.32122 43.394848M 20.781878 39.521034L 29.859724 39.521034"></path></g></g></g><g id="g-root-tx_1_9254x4bz5lvt-stroke" data-item-order="0" transform="translate(627.1599731445312, 153)"></g><g id="g-root-tx_walletsc_4loze0byyj2l-stroke" data-item-order="0" transform="translate(63.15999984741211, 519)"></g><g id="g-root-wall_92rm08bz2qdp-stroke" data-item-order="0" transform="translate(219.16000366210938, 147)"><g id="wall_92rm08bz2qdp-stroke" fill="none" stroke-linecap="round" stroke-linejoin="round" stroke-miterlimit="4" stroke="#8769fd" stroke-width="2"><g><path d="M 40.996906 16.999302L 44.996506 16.999302C 48.309883 16.999302 50.995907 19.685324 50.995907 22.998703L 50.995907 28.998102M 54.995506 24.998503L 50.995907 28.998102L 46.996307 24.998503M 13.697631 30.953907L 23.22468 36.511353C 24.065311 37.001949 25.104118 37.005547 25.948126 36.520779C 26.792133 36.036015 27.312462 35.136906 27.312271 34.163589L 27.312271 21.628839C 27.312944 19.694521 26.28558 17.905584 24.61454 16.931309L 15.089492 11.373863C 14.24826 10.883398 13.209003 10.880106 12.364681 11.36523C 11.520359 11.850354 10.999824 12.74986 10.9999 13.723628L 10.9999 26.256376C 10.999637 28.190588 12.026891 29.979334 13.697631 30.953907ZM 13.719628 10.9999L 32.159786 10.9999C 33.694351 10.967526 34.964718 12.185072 34.997505 13.719628L 34.997505 31.397863M 20.568945 26.480354C 20.568945 27.032583 21.016615 27.480255 21.568844 27.480255C 22.121075 27.480255 22.568745 27.032583 22.568745 26.480354C 22.568745 25.928125 22.121075 25.480455 21.568844 25.480455C 21.016615 25.480455 20.568945 25.928125 20.568945 26.480354M 56.995308 40.996906L 56.995308 54.995506C 56.995308 54.995506 56.995308 56.995308 54.995506 56.995308L 34.997505 56.995308C 34.997505 56.995308 32.997704 56.995308 32.997704 54.995506L 32.997704 40.996906C 32.997704 40.996906 32.997704 38.997105 34.997505 38.997105L 54.995506 38.997105C 54.995506 38.997105 56.995308 38.997105 56.995308 40.996906M 56.995308 44.996506L 32.997704 44.996506M 49.996006 51.995808L 52.995708 51.995808"></path></g></g></g><g id="g-root-tx_1_qtf5ewbz5jii-stroke" data-item-order="0" transform="translate(627.1599731445312, 543)"></g><g id="g-root-tx_walletsc_dgpijsbyylfo-stroke" data-item-order="0" transform="translate(14.999996185302734, 555.3798828125)"></g><g id="g-root-tx_transact_5vh9kbyyjuv-stroke" data-item-order="0" transform="translate(87.16000366210938, 627)"></g><g id="g-root-smar_5vh9kbyyjuw-stroke" data-item-order="0" transform="translate(219.16000366210938, 626.97998046875)"><g id="smar_5vh9kbyyjuw-stroke" fill="none" stroke-linecap="round" stroke-linejoin="round" stroke-miterlimit="4" stroke="#f79438" stroke-width="2"><g><path d="M 33.489639 47.94619L 29.490044 47.94619C 26.176666 47.94619 23.490646 45.26017 23.490646 41.946793L 23.490644 36.947292M 19.491047 39.946991L 23.490644 35.947395L 27.490244 39.946991M 44.754509 32.947697L 54.753506 32.947697C 54.753506 32.947697 56.753304 32.947697 56.753304 34.947495L 56.753304 54.945488C 56.753304 54.945488 56.753304 56.945286 54.753506 56.945286L 44.754509 56.945286C 44.754509 56.945286 42.754711 56.945286 42.754711 54.945488L 42.754711 34.947495C 42.754711 34.947495 42.754711 32.947697 44.754509 32.947697M 56.753304 50.945889L 42.754711 50.945889M 35.239464 13.049694L 35.239464 27.048288C 35.239464 27.048288 35.239464 29.048088 33.239666 29.048088L 13.241674 29.048088C 13.241674 29.048088 11.241876 29.048088 11.241876 27.048288L 11.241876 13.049694C 11.241876 13.049694 11.241876 11.049894 13.241674 11.049894L 33.239666 11.049894C 33.239666 11.049894 35.239464 11.049894 35.239464 13.049694M 35.239464 17.049292L 11.241876 17.049292M 28.240168 24.04859L 31.239866 24.04859"></path></g></g></g><g id="g-root-tx_walletse_mccisobyyjv3-stroke" data-item-order="0" transform="translate(51.15999984741211, 159)"></g><g id="g-root-tx_usertran_zofokobz5lvk-stroke" data-item-order="0" transform="translate(369.1600036621094, 39)"></g><g id="g-root-tx_userspec_hwj0o8byyknc-stroke" data-item-order="0" transform="translate(50.999996185302734, 315.3798828125)"></g></g></g></svg>