<?xml version="1.0" encoding="utf-8" standalone="yes"?>
<!DOCTYPE svg PUBLIC "-//W3C//DTD SVG 1.1//EN" "http://www.w3.org/Graphics/SVG/1.1/DTD/svg11.dtd">
<svg width="783" height="638" viewBox="0 0 783 638" style="fill:none;stroke:none;fill-rule:evenodd;clip-rule:evenodd;stroke-linecap:round;stroke-linejoin:round;stroke-miterlimit:1.5;" version="1.1" xmlns="http://www.w3.org/2000/svg" xmlns:xlink="http://www.w3.org/1999/xlink"><style class="text-font-style fontImports" data-font-family="Roboto">@import url('https://fonts.googleapis.com/css2?family=Roboto:wght@400;700&amp;display=block');</style><g id="items" style="isolation: isolate"><g id="blend" style="mix-blend-mode: normal"><g id="g-root-0.cu_sy_dhywjsav04y6-fill" data-item-order="-129086" transform="translate(263, 129)"></g><g id="g-root-3.cu_cu_sy_925efcav05qf-fill" data-item-order="-129082" transform="translate(194.57000732421875, 122.400390625)"></g><g id="g-root-2.cu_cu_sy_4mbwawav06io-fill" data-item-order="-129078" transform="translate(333, 332.5302734375)"></g><g id="g-root-1.cu_cu_sy_4mbwawav06ip-fill" data-item-order="-129074" transform="translate(462, 122.400390625)"></g><g id="g-root-tx_keyfeatu_1ursy14av074a-fill" data-item-order="0" transform="translate(220, 39)"><g id="tx_keyfeatu_1ursy14av074a-fill" stroke="none" fill="#f4f4f4"><g><text style="font: bold 20px Roboto, sans-serif; white-space: pre;" font-weight="bold" font-size="20px" font-family="Roboto, sans-serif"><tspan x="13.57" y="33.5" dominant-baseline="ideographic">Key Features Enhancing Hybrid Wallet</tspan></text></g></g></g><g id="g-root-tx_modernin_vb4fgoav05jh-fill" data-item-order="0" transform="translate(63, 99)"><g id="tx_modernin_vb4fgoav05jh-fill" stroke="none" fill="#1ac3fb"><g><text style="font: bold 20px Roboto, sans-serif; white-space: pre;" font-weight="bold" font-size="20px" font-family="Roboto, sans-serif"><tspan x="46.6" y="33.5" dominant-baseline="ideographic">Modern </tspan><tspan x="17.67" y="57.5" dominant-baseline="ideographic">Integration</tspan></text></g></g></g><g id="g-root-tx_enhanced_4otvt4av05jj-fill" data-item-order="0" transform="translate(592, 99)"><g id="tx_enhanced_4otvt4av05jj-fill" stroke="none" fill="#fb6762"><g><text style="font: bold 20px Roboto, sans-serif; white-space: pre;" font-weight="bold" font-size="20px" font-family="Roboto, sans-serif"><tspan x="12" y="33.5" dominant-baseline="ideographic">Enhanced </tspan><tspan x="12" y="57.5" dominant-baseline="ideographic">Security</tspan></text></g></g></g><g id="g-root-tx_enabless_144w0g8av05qe-fill" data-item-order="0" transform="translate(15, 159)"><g id="tx_enabless_144w0g8av05qe-fill" stroke="none" fill="#f4f4f4"><g><text style="font: 15px Roboto, sans-serif; white-space: pre;" font-size="15px" font-family="Roboto, sans-serif"><tspan x="43.45" y="30.5" dominant-baseline="ideographic">Enables seamless </tspan><tspan x="22.55" y="48.5" dominant-baseline="ideographic">connectivity and real-</tspan><tspan x="58.22" y="66.5" dominant-baseline="ideographic">time monitoring</tspan></text></g></g></g><g id="g-root-serv_1qbzfwoav07wj-fill" data-item-order="0" transform="translate(219, 148.41015625)"></g><g id="g-root-key_1hhldu0avct1e-fill" data-item-order="0" transform="translate(496, 148.41015625)"></g><g id="g-root-tx_protects_dilgsoav05qh-fill" data-item-order="0" transform="translate(592, 159)"><g id="tx_protects_dilgsoav05qh-fill" stroke="none" fill="#f4f4f4"><g><text style="font: 15px Roboto, sans-serif; white-space: pre;" font-size="15px" font-family="Roboto, sans-serif"><tspan x="12" y="30.5" dominant-baseline="ideographic">Protects against </tspan><tspan x="12" y="48.5" dominant-baseline="ideographic">unauthorized access </tspan><tspan x="12" y="66.5" dominant-baseline="ideographic">and breaches</tspan></text></g></g></g><g id="g-root-yuan_1ur6k3sauuiod-fill" data-item-order="0" transform="translate(333.00274658203125, 200.998046875)"></g><g id="g-root-smok_qn6r7sauuio3-fill" data-item-order="0" transform="translate(358, 375)"></g><g id="g-root-tx_usercent_74yfcav07bf-fill" data-item-order="0" transform="translate(315, 459)"><g id="tx_usercent_74yfcav07bf-fill" stroke="none" fill="#43dd93"><g><text style="font: bold 20px Roboto, sans-serif; white-space: pre;" font-weight="bold" font-size="20px" font-family="Roboto, sans-serif"><tspan x="16.32" y="33.5" dominant-baseline="ideographic">User-Centric </tspan><tspan x="42.5" y="57.5" dominant-baseline="ideographic">Design</tspan></text></g></g></g><g id="g-root-tx_improves_v9907cav06j3-fill" data-item-order="0" transform="translate(297, 519)"><g id="tx_improves_v9907cav06j3-fill" stroke="none" fill="#f4f4f4"><g><text style="font: 15px Roboto, sans-serif; white-space: pre;" font-size="15px" font-family="Roboto, sans-serif"><tspan x="17.24" y="30.5" dominant-baseline="ideographic">Improves usability and </tspan><tspan x="30.1" y="48.5" dominant-baseline="ideographic">accessibility for all </tspan><tspan x="73.74" y="66.5" dominant-baseline="ideographic">users</tspan></text></g></g></g><g id="g-root-0.cu_sy_dhywjsav04y6-stroke" data-item-order="-129086" transform="translate(263, 129)"><g id="0.cu_sy_dhywjsav04y6-stroke" fill="none" stroke-linecap="round" stroke-linejoin="round" stroke-miterlimit="4" stroke="#d3d3d3" stroke-width="2"><g><path d="M 161.337 245.8671C 212.4141 232.0866 250 185.4326 250 130C 250 117.6953 248.148 105.8231 244.7076 94.647M 219.4653 50.0235C 197.4918 25.4599 165.5513 10 130 10C 94.1819 10 62.0291 25.6927 40.0418 50.5779M 15.3498 94.4612C 11.8726 105.6915 10 117.627 10 130C 10 184.8648 46.8199 231.1299 97.0977 245.4333"></path></g></g></g><g id="g-root-3.cu_cu_sy_925efcav05qf-stroke" data-item-order="-129082" transform="translate(194.57000732421875, 122.400390625)"><g id="3.cu_cu_sy_925efcav05qf-stroke" fill="none" stroke-linecap="round" stroke-linejoin="round" stroke-miterlimit="4" stroke="#1ac3fb" stroke-width="2"><g><path d="M 104.373615 45.589023C 101.195215 33.722823 93.490115 23.069223 82.011515 16.440823C 59.054515 3.184023 29.697515 11.047623 16.440815 34.004523C 3.184015 56.961523 11.047615 86.318523 34.004515 99.575223C 45.483015 106.203623 58.561515 107.551923 70.427515 104.373523L 116.793015 91.954423L 104.376415 45.599623C 104.375515 45.596023 104.374515 45.592523 104.373615 45.589023Z"></path></g></g></g><g id="g-root-2.cu_cu_sy_4mbwawav06io-stroke" data-item-order="-129078" transform="translate(333, 332.5302734375)"><g id="2.cu_cu_sy_4mbwawav06io-stroke" fill="none" stroke-linecap="round" stroke-linejoin="round" stroke-miterlimit="4" stroke="#43dd93" stroke-width="2"><g><path d="M 91.9408 43.9411C 100.6273 52.6274 106 64.6276 106 77.8825C 106 104.3922 84.5097 125.8825 58 125.8825C 31.4903 125.8825 10 104.3922 10 77.8825C 10 64.6277 15.3726 52.6277 24.0589 43.9414L 57.9997 10L 91.9331 43.9333C 91.9356 43.9359 91.9382 43.9385 91.9408 43.9411Z"></path></g></g></g><g id="g-root-1.cu_cu_sy_4mbwawav06ip-stroke" data-item-order="-129074" transform="translate(462, 122.400390625)"><g id="1.cu_cu_sy_4mbwawav06ip-stroke" fill="none" stroke-linecap="round" stroke-linejoin="round" stroke-miterlimit="4" stroke="#fb6762" stroke-width="2"><g><path d="M 22.4233 45.585077C 25.6027 33.719177 33.3087 23.066277 44.7879 16.438777C 67.7459 3.183977 97.1022 11.049977 110.3571 34.007977C 123.6119 56.966077 115.7459 86.322377 92.7878 99.577177C 81.3088 106.204677 68.2302 107.551877 56.3645 104.372477L 10 91.949477L 22.4205 45.595677C 22.4214 45.592177 22.4224 45.588577 22.4233 45.585077Z"></path></g></g></g><g id="g-root-tx_keyfeatu_1ursy14av074a-stroke" data-item-order="0" transform="translate(220, 39)"></g><g id="g-root-tx_modernin_vb4fgoav05jh-stroke" data-item-order="0" transform="translate(63, 99)"></g><g id="g-root-tx_enhanced_4otvt4av05jj-stroke" data-item-order="0" transform="translate(592, 99)"></g><g id="g-root-tx_enabless_144w0g8av05qe-stroke" data-item-order="0" transform="translate(15, 159)"></g><g id="g-root-serv_1qbzfwoav07wj-stroke" data-item-order="0" transform="translate(219, 148.41015625)"><g id="serv_1qbzfwoav07wj-stroke" fill="none" stroke-linecap="round" stroke-linejoin="round" stroke-miterlimit="4" stroke="#1ac3fb" stroke-width="2"><g><path d="M 34.099998 36.5L 34.099998 56.5M 21.5 46.5L 25.485821 46.5C 26.8144 46.5 27.70014 47.299999 27.70014 48.5L 27.70014 56.5M 46.5 46.5L 42.642799 46.5C 41.357201 46.5 40.5 47.299999 40.5 48.5L 40.5 56.5M 41.5 32.5C 41.5 34.700001 39.700001 36.5 37.5 36.5L 30.299999 36.5C 28.099979 36.5 26.5 34.700001 26.5 32.700001L 26.5 15.29998C 26.5 13.09998 28.29998 11.5 30.299999 11.5L 37.700001 11.5C 39.900002 11.5 41.5 13.29998 41.5 15.29998L 41.5 32.5ZM 21.5 47.900002C 21.5 49.099998 20.700001 49.900002 19.5 49.900002L 13.5 49.900002C 12.3 49.900002 11.5 49.099998 11.5 47.900002L 11.5 36.900002C 11.5 35.700001 12.3 34.900002 13.5 34.900002L 19.5 34.900002C 20.700001 34.900002 21.5 35.700001 21.5 36.900002L 21.5 47.900002ZM 56.5 47.900002C 56.5 49.099998 55.700001 49.900002 54.5 49.900002L 48.5 49.900002C 47.299999 49.900002 46.5 49.099998 46.5 47.900002L 46.5 36.900002C 46.5 35.700001 47.299999 34.900002 48.5 34.900002L 54.5 34.900002C 55.700001 34.900002 56.5 35.700001 56.5 36.900002L 56.5 47.900002ZM 34.099998 32.238197C 35.074402 32.238197 35.864403 31.4482 35.864403 30.473801C 35.864403 29.499399 35.074402 28.70948 34.099998 28.70948C 33.125603 28.70948 32.335602 29.499399 32.335602 30.473801C 32.335602 31.4482 33.125603 32.238197 34.099998 32.238197Z"></path></g></g></g><g id="g-root-key_1hhldu0avct1e-stroke" data-item-order="0" transform="translate(496, 148.41015625)"><g id="key_1hhldu0avct1e-stroke" fill="none" stroke-linecap="round" stroke-linejoin="round" stroke-miterlimit="4" stroke="#fb6762" stroke-width="2"><g><path d="M 13 17.549999L 13 32.823997C 13.120375 43.162281 19.686607 52.324169 29.438 55.759998L 31.68 56.588001C 33.177765 57.138031 34.822235 57.138031 36.32 56.587997L 38.562 55.759998C 48.313393 52.324169 54.879623 43.162281 54.999996 32.823997L 55 17.549999C 54.995892 16.323391 54.261108 15.217278 53.132 14.738C 47.073589 12.209308 40.564659 10.937597 34 11C 27.435341 10.937597 20.926413 12.209308 14.868 14.738C 13.738894 15.217278 13.004107 16.323391 13 17.549999ZM 47 21L 43 21L 34.292 29.708C 30.770401 28.118292 26.61585 29.272686 24.419182 32.451286C 22.222515 35.629883 22.611534 39.924248 25.343643 42.656357C 28.075752 45.388466 32.370117 45.777485 35.548714 43.580818C 38.727314 41.384148 39.881706 37.229599 38.292 33.708L 47 25ZM 28.5 37C 28.5 38.380714 29.619287 39.5 31 39.5C 32.380714 39.5 33.5 38.380714 33.5 37C 33.5 35.619289 32.380714 34.5 31 34.5C 29.619287 34.5 28.5 35.619289 28.5 37Z"></path></g></g></g><g id="g-root-tx_protects_dilgsoav05qh-stroke" data-item-order="0" transform="translate(592, 159)"></g><g id="g-root-yuan_1ur6k3sauuiod-stroke" data-item-order="0" transform="translate(333.00274658203125, 200.998046875)"><g id="yuan_1ur6k3sauuiod-stroke" fill="none" stroke-linecap="round" stroke-linejoin="round" stroke-miterlimit="4" stroke="#4f91fc" stroke-width="2"><g><path d="M 76.343201 48.505718C 77.254402 47.594601 78.335602 46.871841 79.526001 46.378719C 80.7164 45.885639 81.991997 45.63184 83.280403 45.63184C 84.568802 45.63184 85.844803 45.885639 87.035202 46.378719C 88.225197 46.871841 89.306801 47.594601 90.218002 48.505718M 69.843201 40.111877C 73.405998 36.549278 78.238403 34.54784 83.276802 34.54784C 88.315201 34.54784 93.147202 36.549278 96.709999 40.111877M 62.7612 32.497643C 68.2024 27.056681 75.582397 24 83.277199 24C 90.972397 24 98.351997 27.056681 103.793198 32.497643M 10 10M 67.306396 93.632401L 83.254402 102.936401C 83.945999 103.3396 84.732002 103.5532 85.532402 103.555603C 86.332802 103.557999 87.120003 103.349197 87.814003 102.950401C 88.5084 102.551598 89.084801 101.976799 89.486 101.283997C 89.887199 100.591202 90.098396 99.805199 90.098396 99.004402L 90.098396 78.020401C 90.098396 76.429604 89.681198 74.866402 88.888802 73.486404C 88.096397 72.106796 86.956398 70.958801 85.582397 70.156403L 69.634399 60.8564C 68.943199 60.452 68.157196 60.237598 67.356003 60.234402C 66.555199 60.231201 65.767601 60.439999 65.0728 60.838799C 64.378403 61.237999 63.801601 61.813202 63.400799 62.506802C 63 63.200401 62.7896 63.987598 62.790401 64.788399L 62.790401 85.768402C 62.7896 87.359596 63.206001 88.923599 63.998798 90.3032C 64.791199 91.683197 65.931595 92.8312 67.306396 93.632401L 67.306396 93.632401ZM 66.306801 60.324001L 97.406799 60.324001C 98.021202 60.306801 98.632797 60.4104 99.206802 60.630001C 99.781197 60.849602 100.306 61.180401 100.751999 61.603199C 101.197998 62.026001 101.556396 62.532799 101.806 63.094799C 102.055603 63.656399 102.191597 64.261597 102.206802 64.875999L 102.206802 94.475998M 80.306801 85.307602C 79.478401 85.307602 78.806801 84.636002 78.806801 83.807602C 78.806801 82.979202 79.478401 82.307602 80.306801 82.307602M 80.306801 85.307602C 81.135201 85.307602 81.806801 84.636002 81.806801 83.807602C 81.806801 82.979202 81.135201 82.307602 80.306801 82.307602M 52.206402 92L 20.20656 92C 18.084801 92 16.049961 91.157204 14.549681 89.656799C 13.049397 88.156403 12.206544 86.121597 12.206544 84L 12.206544 32C 12.206544 29.878281 13.049397 27.843439 14.549681 26.343161C 16.049961 24.84284 18.084801 24 20.20656 24L 56.376801 24M 57.062401 24L 28.20656 24L 32.206558 12L 60.206402 12L 62.206402 18M 10 10M 61.130402 101.220001L 60.206402 104L 32.206558 104L 28.20656 92M 31.56592 41.051758L 31.56592 50.130402C 31.56592 51.3228 31.80076 52.503201 32.257 53.604801C 32.713242 54.706402 33.382 55.707199 34.22504 56.549999C 35.068081 57.3932 36.068878 58.062 37.170403 58.518002C 38.271881 58.9744 39.452438 59.209202 40.64468 59.209202C 41.836922 59.209202 43.017479 58.9744 44.118961 58.518002C 45.22044 58.062 46.221279 57.3932 47.06432 56.549999C 47.90736 55.707199 48.57608 54.706402 49.03236 53.604801C 49.488602 52.503201 49.723438 51.3228 49.723438 50.130402L 49.723438 41.051758M 40.645519 59.2108L 40.645519 76.796402M 31.56592 69.048004L 49.723438 69.048004"></path></g></g></g><g id="g-root-smok_qn6r7sauuio3-stroke" data-item-order="0" transform="translate(358, 375)"><g id="smok_qn6r7sauuio3-stroke" fill="none" stroke-linecap="round" stroke-linejoin="round" stroke-miterlimit="4" stroke="#43dd93" stroke-width="2"><g><path d="M 43.240002 50.759998C 40.493202 52.555077 37.28133 53.507515 34 53.5C 26.358816 53.5 19.656536 48.401794 17.616846 41.037872C 15.577158 33.67395 18.701311 25.853977 25.253572 21.922621C 31.805834 17.991264 40.175995 18.914644 45.713722 24.179745C 51.25145 29.444845 52.595852 37.757778 49 44.5M 18.5 43.5L 15 43.5C 12.790861 43.5 11 41.709137 11 39.5L 11 33.5C 11 31.290861 12.790861 29.5 15 29.5L 18.5 29.5M 49.5 43.5L 53 43.5C 55.209141 43.5 57 41.709137 57 39.5L 57 33.5C 57 31.290861 55.209141 29.5 53 29.5L 49.5 29.5M 52.98 29.5C 52.98 19.00659 44.473412 10.5 33.98 10.5C 23.486591 10.5 14.98 19.00659 14.98 29.5M 24.84 41.5C 26.433302 45.137943 30.028446 47.488216 34 47.488216C 37.971558 47.488216 41.5667 45.137943 43.16 41.5M 25 33C 25.276142 33 25.5 33.223858 25.5 33.5C 25.5 33.776142 25.276142 34 25 34C 24.723858 34 24.5 33.776142 24.5 33.5C 24.5 33.223858 24.723858 33 25 33M 43 33C 43.276142 33 43.5 33.223858 43.5 33.5C 43.5 33.776142 43.276142 34 43 34C 42.723858 34 42.5 33.776142 42.5 33.5C 42.5 33.223858 42.723858 33 43 33M 38.739998 46.299999L 48.419998 56C 48.821709 56.404213 49.376774 56.617863 49.945827 56.587311C 50.514885 56.556759 51.04388 56.284901 51.400002 55.84L 52.66 54.259998C 53.000572 53.824078 53.145382 53.266563 53.060001 52.720001C 52.981213 52.169613 52.676868 51.676868 52.220001 51.360001L 41.580002 44"></path></g></g></g><g id="g-root-tx_usercent_74yfcav07bf-stroke" data-item-order="0" transform="translate(315, 459)"></g><g id="g-root-tx_improves_v9907cav06j3-stroke" data-item-order="0" transform="translate(297, 519)"></g></g></g></svg>